<?xml version="1.0" encoding="UTF-8" standalone="no"?>
<svg width="23px" height="23px" viewBox="0 0 23 23" version="1.1" xmlns="http://www.w3.org/2000/svg" xmlns:xlink="http://www.w3.org/1999/xlink">
    <!-- Generator: Sketch 3.8.3 (29802) - http://www.bohemiancoding.com/sketch -->
    <title>Blog</title>
    <desc>Created with Sketch.</desc>
    <defs>
        <polygon id="path-1" points="2.09904461e-21 0.0367899515 2.09904461e-21 13.010097 12.9732488 13.010097 12.9732488 0.0367899515 0 0.0367899515"></polygon>
        <polygon id="path-3" points="2.09904461e-21 0.0367899515 2.09904461e-21 13.010097 12.9732488 13.010097 12.9732488 0.0367899515 0 0.0367899515"></polygon>
    </defs>
    <g id="Welcome" stroke="none" stroke-width="1" fill="none" fill-rule="evenodd" opacity="0.2">
        <g id="Upcoming-Events-Desktop-HD" transform="translate(-987.000000, -1145.000000)">
            <g id="Blog" transform="translate(987.000000, 1145.000000)">
                <g id="Page-1">
                    <path d="M8.80045051,15.985271 C8.30900943,16.4766734 7.51221818,16.4766734 7.0207771,15.985271 C6.52933603,15.49383 6.52933603,14.6970387 7.0207771,14.2055976 L14.1668461,7.05952862 C14.6582872,6.56808754 15.4550785,6.56808754 15.9465195,7.05952862 C16.4379606,7.5509697 16.4379606,8.34776094 15.9465195,8.83920202 L8.80045051,15.985271 Z" id="Fill-1" fill="#4A4A4A"></path>
                    <g id="Group-5" transform="translate(9.989899, 0.006040)" fill="#4A4A4A">
                        <path d="M2.61025606,7.41548653 L7.24951869,2.77622391 C7.49566515,2.53003872 7.89475774,2.53003872 8.14090421,2.77622391 L10.2339042,4.86918519 C10.4800507,5.11533165 10.4800507,5.51442424 10.2339042,5.76057071 L5.59460286,10.3998721 C5.44301195,10.551463 5.23357256,10.6090017 5.03745303,10.5736886 L3.27655909,12.3345825 C4.51604226,13.3073586 6.33102879,13.2227929 7.47138737,12.0824343 L12.05315,7.50067172 C13.2838436,6.26993939 13.286283,4.25267677 12.0555507,3.02198316 L9.98810623,0.954538721 C8.75737391,-0.276193603 6.74015,-0.273754209 5.5094564,0.956939394 L0.927693771,5.5386633 C-0.212703535,6.67909933 -0.297307912,8.49404714 0.675506902,9.7335303 L2.43643956,7.97259764 C2.40112643,7.77651684 2.45862643,7.56707744 2.61025606,7.41548653" id="Fill-3"></path>
                    </g>
                    <g id="Group-8" transform="translate(0.000000, 9.995939)">
                        <mask id="mask-2" fill="white">
                            <use xlink:href="#path-1"></use>
                        </mask>
                        <g id="Clip-7"></g>
                        <path d="M10.2576554,5.73681566 L5.61831532,10.376117 C5.37216886,10.6223022 4.97311498,10.6223022 4.72700724,10.376117 L2.63396852,8.283117 C2.38778333,8.03693182 2.38778333,7.63791667 2.63396852,7.3917702 L7.27330859,2.75243013 C7.42489949,2.60083923 7.63430017,2.54326178 7.83038098,2.57865236 L9.70085404,0.708179293 C8.46137088,-0.264635522 6.64638434,-0.180031145 5.50598704,0.960404882 L0.924224411,5.54216751 C-0.306469192,6.77286111 -0.308908586,8.79008502 0.921823737,10.0208173 L2.98926818,12.0882231 C4.22000051,13.3189554 6.23722441,13.3165934 7.46791801,12.0858998 L12.0497194,7.50409848 C13.1900779,6.36370118 13.2746436,4.54871465 12.3018675,3.3092702 L10.4314719,5.17966582 C10.466785,5.37578535 10.4092463,5.58518603 10.2576554,5.73681566" id="Fill-6" fill="#4A4A4A" mask="url(#mask-2)"></path>
                    </g>
                </g>
                <g id="Page-1-Copy">
                    <path d="M8.80045051,15.985271 C8.30900943,16.4766734 7.51221818,16.4766734 7.0207771,15.985271 C6.52933603,15.49383 6.52933603,14.6970387 7.0207771,14.2055976 L14.1668461,7.05952862 C14.6582872,6.56808754 15.4550785,6.56808754 15.9465195,7.05952862 C16.4379606,7.5509697 16.4379606,8.34776094 15.9465195,8.83920202 L8.80045051,15.985271 Z" id="Fill-1" fill="#4A4A4A"></path>
                    <g id="Group-5" transform="translate(9.989899, 0.006040)" fill="#4A4A4A">
                        <path d="M2.61025606,7.41548653 L7.24951869,2.77622391 C7.49566515,2.53003872 7.89475774,2.53003872 8.14090421,2.77622391 L10.2339042,4.86918519 C10.4800507,5.11533165 10.4800507,5.51442424 10.2339042,5.76057071 L5.59460286,10.3998721 C5.44301195,10.551463 5.23357256,10.6090017 5.03745303,10.5736886 L3.27655909,12.3345825 C4.51604226,13.3073586 6.33102879,13.2227929 7.47138737,12.0824343 L12.05315,7.50067172 C13.2838436,6.26993939 13.286283,4.25267677 12.0555507,3.02198316 L9.98810623,0.954538721 C8.75737391,-0.276193603 6.74015,-0.273754209 5.5094564,0.956939394 L0.927693771,5.5386633 C-0.212703535,6.67909933 -0.297307912,8.49404714 0.675506902,9.7335303 L2.43643956,7.97259764 C2.40112643,7.77651684 2.45862643,7.56707744 2.61025606,7.41548653" id="Fill-3"></path>
                    </g>
                    <g id="Group-8" transform="translate(0.000000, 9.995939)">
                        <mask id="mask-4" fill="white">
                            <use xlink:href="#path-3"></use>
                        </mask>
                        <g id="Clip-7"></g>
                        <path d="M10.2576554,5.73681566 L5.61831532,10.376117 C5.37216886,10.6223022 4.97311498,10.6223022 4.72700724,10.376117 L2.63396852,8.283117 C2.38778333,8.03693182 2.38778333,7.63791667 2.63396852,7.3917702 L7.27330859,2.75243013 C7.42489949,2.60083923 7.63430017,2.54326178 7.83038098,2.57865236 L9.70085404,0.708179293 C8.46137088,-0.264635522 6.64638434,-0.180031145 5.50598704,0.960404882 L0.924224411,5.54216751 C-0.306469192,6.77286111 -0.308908586,8.79008502 0.921823737,10.0208173 L2.98926818,12.0882231 C4.22000051,13.3189554 6.23722441,13.3165934 7.46791801,12.0858998 L12.0497194,7.50409848 C13.1900779,6.36370118 13.2746436,4.54871465 12.3018675,3.3092702 L10.4314719,5.17966582 C10.466785,5.37578535 10.4092463,5.58518603 10.2576554,5.73681566" id="Fill-6" fill="#4A4A4A" mask="url(#mask-4)"></path>
                    </g>
                </g>
            </g>
        </g>
    </g>
</svg>