<svg width="23" height="23" viewBox="0 0 23 23" xmlns="http://www.w3.org/2000/svg" xmlns:xlink="http://www.w3.org/1999/xlink"><title>Blog</title><defs><path id="a" d="M0 13.01h12.973V.037H0z"/></defs><g fill="none" fill-rule="evenodd"><path d="M12.6 7.422l4.64-4.64a.63.63 0 0 1 .89 0l2.094 2.093a.63.63 0 0 1 0 .892l-4.64 4.639a.628.628 0 0 1-.557.174l-1.76 1.76a3.18 3.18 0 0 0 4.194-.252l4.582-4.581a3.178 3.178 0 0 0 .002-4.479L19.978.961a3.178 3.178 0 0 0-4.479.002l-4.581 4.582a3.18 3.18 0 0 0-.253 4.195l1.761-1.761a.628.628 0 0 1 .174-.557" fill="#9B9B9B"/><g transform="translate(0 9.996)"><mask id="b" fill="#fff"><use xlink:href="#a"/></mask><path d="M10.258 5.737l-4.64 4.64a.63.63 0 0 1-.891 0L2.634 8.282a.63.63 0 0 1 0-.891l4.64-4.64a.628.628 0 0 1 .556-.173L9.7.709A3.18 3.18 0 0 0 5.507.96L.924 5.542a3.178 3.178 0 0 0-.002 4.479l2.067 2.067a3.178 3.178 0 0 0 4.479-.002l4.582-4.582a3.18 3.18 0 0 0 .252-4.195l-1.87 1.87a.628.628 0 0 1-.174.558" fill="#9B9B9B" mask="url(#b)"/></g><path d="M8.8 15.985a1.258 1.258 0 0 1-1.78-1.78l7.147-7.145a1.258 1.258 0 0 1 1.78 1.78L8.8 15.984z" fill="#9B9B9B"/></g></svg>