<?xml version="1.0" encoding="UTF-8" standalone="no"?>
<svg width="287px" height="50px" viewBox="0 0 287 50" version="1.1" xmlns="http://www.w3.org/2000/svg" xmlns:xlink="http://www.w3.org/1999/xlink">
    <!-- Generator: sketchtool 39.1 (31720) - http://www.bohemiancoding.com/sketch -->
    <title>744532C8-2CBA-4456-842A-09F56A22AA45</title>
    <desc>Created with sketchtool.</desc>
    <defs></defs>
    <g id="Page-1" stroke="none" stroke-width="1" fill="none" fill-rule="evenodd">
        <g id="1.-Watch-Past---Desktop-HD" transform="translate(-715.000000, -2240.000000)">
            <g id="join-slack" transform="translate(0.000000, 2200.000000)">
                <g id="Group-5" transform="translate(438.000000, 40.000000)">
                    <g id="Button/-Watch-Previous-" transform="translate(277.000000, 0.000000)">
                        <g id="Button/-Watch-Previous--Copy">
                            <g id="SOLD-OUT">
                                <g id="Group-11">
                                    <rect id="Rectangle-68" fill="#4A4A4A" x="0" y="0" width="287" height="50" rx="6"></rect>
                                    <g id="Group" transform="translate(17.000000, 9.000000)" fill="#CDE5B3">
                                        <g id="Group-23">
                                            <path d="M10.1540576,19.3194262 L10.1529202,12.1289237 L17.067882,15.7365444 L10.1540576,19.3194262 L10.1540576,19.3194262 Z M25.3366613,10.8831614 C25.3366613,10.8831614 25.0864283,9.11958737 24.3189523,8.3427276 C23.3461714,7.32359678 22.2550987,7.31876274 21.7549169,7.25904804 C18.1737413,7 12.8016935,7 12.8016935,7 L12.7903193,7 C12.7903193,7 7.41855578,7 3.83709578,7.25904804 C3.3369141,7.31876274 2.24641001,7.32359678 1.27306045,8.3427276 C0.50558443,9.11958737 0.255920127,10.8831614 0.255920127,10.8831614 C0.255920127,10.8831614 0,12.9541239 0,15.0250865 L0,16.9669515 C0,19.0376297 0.255920127,21.1085923 0.255920127,21.1085923 C0.255920127,21.1085923 0.50558443,22.8721663 1.27306045,23.649026 C2.24641001,24.6684412 3.52515757,24.6357403 4.09472204,24.7426581 C6.14236742,24.9391479 12.7960064,25 12.7960064,25 C12.7960064,25 18.1737413,24.9917537 21.7549169,24.73299 C22.2550987,24.6732752 23.3461714,24.6684412 24.3189523,23.649026 C25.0864283,22.8721663 25.3366613,21.1085923 25.3366613,21.1085923 C25.3366613,21.1085923 25.5920127,19.0376297 25.5920127,16.9669515 L25.5920127,15.0250865 C25.5920127,12.9541239 25.3366613,10.8831614 25.3366613,10.8831614 L25.3366613,10.8831614 L25.3366613,10.8831614 Z" id="Fill-2"></path>
                                            <text id="Watch-past-Meetups" font-family="ObjektivMk2-Bold, Objektiv Mk2" font-size="20" font-weight="bold" letter-spacing="0.30646351">
                                                <tspan x="36" y="23">Watch past Meetups</tspan>
                                            </text>
                                        </g>
                                    </g>
                                </g>
                            </g>
                        </g>
                    </g>
                </g>
            </g>
        </g>
    </g>
</svg>