<svg width="1920" height="260" viewBox="0 0 1920 260" xmlns="http://www.w3.org/2000/svg" xmlns:xlink="http://www.w3.org/1999/xlink"><title>Header clear background Copy</title><defs><path id="a" d="M0 89.516h99.904V.544H0z"/></defs><g fill="none" fill-rule="evenodd"><g stroke-width=".5" stroke="#4A4A4A" opacity=".3"><path d="M877.042 10c28.98 0 52.473-23.505 52.473-52.5S906.022-95 877.042-95 824.57-71.495 824.57-42.5 848.062 10 877.042 10z"/><path d="M876.542 32c41.4 0 74.961-33.579 74.961-75s-33.56-75-74.96-75c-41.4 0-74.962 33.579-74.962 75s33.562 75 74.961 75z"/></g><path d="M369.299 140a7.498 7.498 0 0 0 7.496-7.5c0-4.142-3.356-7.5-7.496-7.5a7.498 7.498 0 0 0-7.496 7.5c0 4.142 3.356 7.5 7.496 7.5z" fill="#4A4A4A"/><path d="M369.799 163c16.56 0 29.984-13.431 29.984-30 0-16.569-13.425-30-29.984-30-16.56 0-29.985 13.431-29.985 30 0 16.569 13.425 30 29.985 30z" stroke="#4A4A4A" stroke-width=".5" opacity=".3"/><path d="M369.299 185c28.98 0 52.472-23.505 52.472-52.5S398.28 80 369.3 80s-52.473 23.505-52.473 52.5S340.32 185 369.3 185z" stroke="#4A4A4A" stroke-width=".5" opacity=".3"/><path d="M72.299 196a7.498 7.498 0 0 0 7.496-7.5c0-4.142-3.356-7.5-7.496-7.5a7.498 7.498 0 0 0-7.496 7.5c0 4.142 3.356 7.5 7.496 7.5z" fill="#4A4A4A"/><path d="M72.799 219c16.56 0 29.984-13.431 29.984-30 0-16.569-13.425-30-29.984-30-16.56 0-29.985 13.431-29.985 30 0 16.569 13.425 30 29.985 30z" stroke="#4A4A4A" stroke-width=".5" opacity=".3"/><path d="M72.299 241c28.98 0 52.472-23.505 52.472-52.5S101.28 136 72.3 136s-52.473 23.505-52.473 52.5S43.32 241 72.3 241z" stroke="#4A4A4A" stroke-width=".5" opacity=".3"/><path d="M1845.299 172a7.498 7.498 0 0 0 7.496-7.5c0-4.142-3.356-7.5-7.496-7.5a7.498 7.498 0 0 0-7.496 7.5c0 4.142 3.356 7.5 7.496 7.5z" fill="#4A4A4A"/><path d="M1845.799 195c16.56 0 29.984-13.431 29.984-30 0-16.569-13.425-30-29.984-30-16.56 0-29.985 13.431-29.985 30 0 16.569 13.425 30 29.985 30z" stroke="#4A4A4A" stroke-width=".5" opacity=".3"/><path d="M1845.299 217c28.98 0 52.472-23.505 52.472-52.5S1874.28 112 1845.3 112s-52.473 23.505-52.473 52.5S1816.32 217 1845.3 217z" stroke="#4A4A4A" stroke-width=".5" opacity=".3"/><path d="M566.204 67a7.498 7.498 0 0 0 7.496-7.5c0-4.142-3.356-7.5-7.496-7.5a7.498 7.498 0 0 0-7.496 7.5c0 4.142 3.356 7.5 7.496 7.5z" fill="#4A4A4A"/><path d="M565.704 90c16.56 0 29.985-13.431 29.985-30 0-16.569-13.425-30-29.985-30S535.72 43.431 535.72 60c0 16.569 13.424 30 29.984 30z" stroke="#4A4A4A" stroke-width=".5" opacity=".3"/><path d="M566.204 112c28.98 0 52.473-23.505 52.473-52.5S595.184 7 566.204 7s-52.473 23.505-52.473 52.5 23.493 52.5 52.473 52.5z" stroke="#4A4A4A" stroke-width=".5" opacity=".3"/><path d="M565.704 135c41.4 0 74.961-33.579 74.961-75s-33.56-75-74.96-75c-41.4 0-74.962 33.579-74.962 75s33.562 75 74.961 75z" stroke="#4A4A4A" stroke-width=".5" opacity=".3"/><path d="M566.204 157c53.82 0 97.45-43.652 97.45-97.5S620.023-38 566.203-38s-97.45 43.652-97.45 97.5 43.63 97.5 97.45 97.5z" stroke="#4A4A4A" stroke-width=".5" opacity=".3"/><path d="M314.287 242a7.498 7.498 0 0 0 7.496-7.5c0-4.142-3.356-7.5-7.496-7.5a7.498 7.498 0 0 0-7.496 7.5c0 4.142 3.356 7.5 7.496 7.5z" fill="#4A4A4A"/><path d="M314.787 265c16.56 0 29.984-13.431 29.984-30 0-16.569-13.425-30-29.984-30-16.56 0-29.985 13.431-29.985 30 0 16.569 13.425 30 29.985 30z" stroke="#4A4A4A" stroke-width=".5" opacity=".3"/><path d="M314.287 287c28.98 0 52.473-23.505 52.473-52.5S343.267 182 314.286 182s-52.473 23.505-52.473 52.5 23.493 52.5 52.473 52.5z" stroke="#4A4A4A" stroke-width=".5" opacity=".3"/><path d="M313.787 309c41.4 0 74.961-33.579 74.961-75s-33.561-75-74.96-75c-41.4 0-74.962 33.579-74.962 75s33.561 75 74.961 75z" stroke="#4A4A4A" stroke-width=".5" opacity=".3"/><path d="M1129.909 90a7.498 7.498 0 0 0 7.496-7.5c0-4.142-3.356-7.5-7.496-7.5a7.498 7.498 0 0 0-7.496 7.5c0 4.142 3.356 7.5 7.496 7.5z" fill="#4A4A4A"/><path d="M1129.41 112c16.56 0 29.984-13.431 29.984-30 0-16.569-13.425-30-29.985-30s-29.984 13.431-29.984 30c0 16.569 13.424 30 29.984 30z" stroke="#4A4A4A" stroke-width=".5" opacity=".3"/><path d="M1129.909 135c28.98 0 52.473-23.505 52.473-52.5S1158.889 30 1129.909 30s-52.473 23.505-52.473 52.5 23.493 52.5 52.473 52.5z" stroke="#4A4A4A" stroke-width=".5" opacity=".3"/><path d="M1129.41 157c41.399 0 74.96-33.579 74.96-75s-33.561-75-74.96-75c-41.4 0-74.962 33.579-74.962 75s33.561 75 74.961 75z" stroke="#4A4A4A" stroke-width=".5" opacity=".3"/><path d="M1129.909 180c53.82 0 97.45-43.652 97.45-97.5s-43.63-97.5-97.45-97.5-97.45 43.652-97.45 97.5 43.63 97.5 97.45 97.5z" stroke="#4A4A4A" stroke-width=".5" opacity=".3"/><path d="M1287.829 237a7.498 7.498 0 0 0 7.496-7.5c0-4.142-3.356-7.5-7.496-7.5a7.498 7.498 0 0 0-7.496 7.5c0 4.142 3.356 7.5 7.496 7.5z" fill="#4A4A4A"/><path d="M1288.328 260c16.56 0 29.985-13.431 29.985-30 0-16.569-13.425-30-29.985-30s-29.984 13.431-29.984 30c0 16.569 13.425 30 29.984 30z" stroke="#4A4A4A" stroke-width=".5" opacity=".3"/><path d="M1287.829 282c28.98 0 52.472-23.505 52.472-52.5S1316.81 177 1287.83 177s-52.473 23.505-52.473 52.5 23.493 52.5 52.473 52.5z" stroke="#4A4A4A" stroke-width=".5" opacity=".3"/><path d="M1287.329 304c41.4 0 74.961-33.579 74.961-75s-33.561-75-74.961-75-74.961 33.579-74.961 75 33.561 75 74.961 75z" stroke="#4A4A4A" stroke-width=".5" opacity=".3"/><path d="M1486.725 233a7.498 7.498 0 0 0 7.496-7.5c0-4.142-3.356-7.5-7.496-7.5a7.498 7.498 0 0 0-7.496 7.5c0 4.142 3.356 7.5 7.496 7.5z" fill="#4A4A4A"/><path d="M1487.224 256c16.56 0 29.985-13.431 29.985-30 0-16.569-13.425-30-29.985-30s-29.984 13.431-29.984 30c0 16.569 13.424 30 29.984 30z" stroke="#4A4A4A" stroke-width=".5" opacity=".3"/><path d="M1486.725 278c28.98 0 52.472-23.505 52.472-52.5s-23.493-52.5-52.472-52.5c-28.98 0-52.473 23.505-52.473 52.5s23.493 52.5 52.473 52.5z" stroke="#4A4A4A" stroke-width=".5" opacity=".3"/><path d="M1603.667 83a7.498 7.498 0 0 0 7.496-7.5c0-4.142-3.356-7.5-7.496-7.5a7.498 7.498 0 0 0-7.496 7.5c0 4.142 3.356 7.5 7.496 7.5z" fill="#4A4A4A"/><path d="M1604.167 106c16.56 0 29.984-13.431 29.984-30 0-16.569-13.424-30-29.984-30-16.56 0-29.984 13.431-29.984 30 0 16.569 13.424 30 29.984 30z" stroke="#4A4A4A" stroke-width=".5" opacity=".3"/><path d="M1603.667 128c28.98 0 52.473-23.505 52.473-52.5S1632.647 23 1603.667 23s-52.472 23.505-52.472 52.5 23.493 52.5 52.472 52.5z" stroke="#4A4A4A" stroke-width=".5" opacity=".3"/><path d="M1604.167 151c41.4 0 74.961-33.579 74.961-75s-33.561-75-74.96-75c-41.4 0-74.962 33.579-74.962 75s33.561 75 74.961 75z" stroke="#4A4A4A" stroke-width=".5" opacity=".3"/><path d="M1603.667 173c53.82 0 97.45-43.652 97.45-97.5s-43.63-97.5-97.45-97.5-97.449 43.652-97.449 97.5 43.63 97.5 97.45 97.5z" stroke="#4A4A4A" stroke-width=".5" opacity=".3"/><g stroke-width=".5" stroke="#4A4A4A" opacity=".3"><path d="M745.275 350c28.98 0 52.473-23.505 52.473-52.5S774.255 245 745.275 245s-52.472 23.505-52.472 52.5 23.493 52.5 52.472 52.5z"/><path d="M745.775 373c41.4 0 74.961-33.579 74.961-75s-33.561-75-74.96-75c-41.4 0-74.962 33.579-74.962 75s33.561 75 74.961 75z"/><path d="M745.275 395c53.82 0 97.45-43.652 97.45-97.5s-43.63-97.5-97.45-97.5-97.449 43.652-97.449 97.5 43.63 97.5 97.45 97.5z"/></g><g stroke="#4A4A4A" stroke-width="3" stroke-dasharray="7,7"><path d="M571.702 57L881.54-42M366.5 131.5l380.61 176m740.816-80l165.574 128m-365.671-125l-335.825-112m316.835-160l-137.929 125m156.919 146l199.396-2.5M369.56 131.605L568.704 58 747.61 306 879.541-41l71.963 158 179.906-34 155.919 146-18.99-270 218.886 268 116.693-152.395 180.783 249.72 60.819-160.055M520.728 472L314.012 233.25 73.14 187.836 180.905-57"/></g><g><path d="M1011.9 121.452c0-7.254-8.665-13.536-22.122-17.294a70.87 70.87 0 0 0 1.382-6.578c1.699-10.793-.16-18.357-5.235-21.3-5.075-2.94-12.528-.775-20.99 6.099a69.86 69.86 0 0 0-4.984 4.494 70.05 70.05 0 0 0-4.986-4.494c-8.46-6.874-15.917-9.04-20.99-6.098-5.074 2.942-6.934 10.506-5.235 21.3a70.22 70.22 0 0 0 1.383 6.577C916.666 107.916 908 114.198 908 121.452c0 7.254 8.666 13.536 22.123 17.294a70.22 70.22 0 0 0-1.383 6.578c-1.699 10.794.16 18.357 5.235 21.3 1.478.856 3.158 1.28 5.007 1.28 4.495 0 9.986-2.506 15.983-7.379a70.05 70.05 0 0 0 4.986-4.494 69.86 69.86 0 0 0 4.984 4.494c5.997 4.873 11.487 7.379 15.984 7.379 1.848 0 3.529-.424 5.006-1.28 5.075-2.943 6.934-10.506 5.235-21.3a70.478 70.478 0 0 0-1.382-6.578c13.457-3.758 22.122-10.04 22.122-17.294" fill="#CDE5B4"/><path d="M1011.9 121.452c0-7.254-8.665-13.536-22.122-17.294a70.87 70.87 0 0 0 1.382-6.578c1.699-10.793-.16-18.357-5.235-21.3-5.075-2.94-12.528-.775-20.99 6.099a69.86 69.86 0 0 0-4.984 4.494 70.05 70.05 0 0 0-4.986-4.494c-8.46-6.874-15.917-9.04-20.99-6.098-5.074 2.942-6.934 10.506-5.235 21.3a70.22 70.22 0 0 0 1.383 6.577C916.666 107.916 908 114.198 908 121.452c0 7.254 8.666 13.536 22.123 17.294a70.22 70.22 0 0 0-1.383 6.578c-1.699 10.794.16 18.357 5.235 21.3 1.478.856 3.158 1.28 5.007 1.28 4.495 0 9.986-2.506 15.983-7.379a70.05 70.05 0 0 0 4.986-4.494 69.86 69.86 0 0 0 4.984 4.494c5.997 4.873 11.487 7.379 15.984 7.379 1.848 0 3.529-.424 5.006-1.28 5.075-2.943 6.934-10.506 5.235-21.3a70.478 70.478 0 0 0-1.382-6.578c13.457-3.758 22.122-10.04 22.122-17.294z" stroke="#CDE5B4" stroke-width="4"/><g transform="translate(910 76)"><mask id="b" fill="#fff"><use xlink:href="#a"/></mask><path d="M99.904 45.03c0-6.946-8.332-12.962-21.272-16.562a67.259 67.259 0 0 0 1.33-6.299c1.633-10.337-.155-17.58-5.034-20.398-4.88-2.816-12.047-.743-20.183 5.84a67.08 67.08 0 0 0-4.793 4.304 67.263 67.263 0 0 0-4.793-4.304c-8.136-6.583-15.305-8.658-20.183-5.84-4.88 2.818-6.667 10.061-5.033 20.398a67.16 67.16 0 0 0 1.329 6.3C8.332 32.067 0 38.083 0 45.03c0 6.946 8.332 12.962 21.272 16.562a67.259 67.259 0 0 0-1.33 6.299c-1.633 10.337.155 17.58 5.034 20.398 1.421.82 3.037 1.226 4.814 1.226 4.323 0 9.603-2.4 15.369-7.066a67.263 67.263 0 0 0 4.793-4.304 67.08 67.08 0 0 0 4.793 4.304c5.766 4.666 11.045 7.066 15.37 7.066 1.776 0 3.392-.406 4.813-1.226 4.88-2.818 6.667-10.061 5.033-20.398a67.259 67.259 0 0 0-1.329-6.3c12.94-3.599 21.272-9.615 21.272-16.561M56.617 9.924c5.186-4.197 9.893-6.4 13.482-6.4 1.26 0 2.384.271 3.341.824 3.684 2.126 4.99 8.453 3.583 17.358a64.395 64.395 0 0 1-1.27 6.017c-4.411-1.051-9.283-1.834-14.485-2.301-2.96-4.203-6.071-8.037-9.234-11.383a64.052 64.052 0 0 1 4.583-4.115M64.793 53.6a123.959 123.959 0 0 1-5.169 8.2c-3.082.239-6.309.368-9.672.368-3.363 0-6.59-.13-9.672-.367a123.959 123.959 0 0 1-5.17-8.201 123.83 123.83 0 0 1-4.513-8.57 123.83 123.83 0 0 1 4.513-8.569 124.17 124.17 0 0 1 5.17-8.2 125.65 125.65 0 0 1 9.672-.368c3.363 0 6.59.13 9.672.367a124.17 124.17 0 0 1 5.17 8.201 123.83 123.83 0 0 1 4.513 8.57 123.83 123.83 0 0 1-4.514 8.569m6.112-5.07c1.632 3.735 2.992 7.413 4.051 10.952-3.494.83-7.346 1.495-11.504 1.957a128.572 128.572 0 0 0 7.453-12.908M49.952 73.897c-2.53-2.684-5.03-5.694-7.445-8.968a128.904 128.904 0 0 0 14.89 0c-2.415 3.274-4.914 6.284-7.445 8.968m-13.5-12.458c-4.158-.462-8.01-1.128-11.504-1.957 1.06-3.54 2.419-7.217 4.05-10.951a128.13 128.13 0 0 0 7.453 12.908M28.998 41.53c-1.631-3.735-2.99-7.413-4.05-10.952 3.495-.83 7.346-1.494 11.503-1.957a128.572 128.572 0 0 0-7.453 12.909m20.954-25.367c2.53 2.684 5.03 5.694 7.445 8.968a128.897 128.897 0 0 0-14.89 0c2.415-3.274 4.915-6.284 7.445-8.968m17.418 18.81a128.572 128.572 0 0 0-3.918-6.351c4.158.462 8.01 1.127 11.504 1.956-1.06 3.54-2.42 7.217-4.05 10.952a128.13 128.13 0 0 0-3.536-6.557M22.881 21.706C21.474 12.8 22.78 6.474 26.464 4.348c.958-.553 2.08-.825 3.34-.825 3.59 0 8.297 2.205 13.483 6.401a64.235 64.235 0 0 1 4.584 4.115c-3.164 3.346-6.275 7.18-9.236 11.383-5.2.467-10.073 1.25-14.484 2.301a64.384 64.384 0 0 1-1.27-6.017M2.976 45.03c0-5.078 7.112-10.371 19.09-13.708 1.319 4.418 3.085 9.036 5.248 13.708-2.163 4.671-3.93 9.29-5.247 13.708-11.98-3.337-19.091-8.631-19.091-13.708m40.31 35.106c-7.007 5.671-13.138 7.705-16.822 5.576-3.684-2.126-4.99-8.453-3.583-17.357.306-1.936.736-3.95 1.27-6.018 4.41 1.051 9.284 1.834 14.484 2.301 2.96 4.203 6.072 8.038 9.236 11.383a64.235 64.235 0 0 1-4.584 4.115m33.736-11.781c1.407 8.904.101 15.231-3.583 17.357-3.683 2.127-9.815.094-16.823-5.576a64.052 64.052 0 0 1-4.583-4.115c3.163-3.345 6.274-7.18 9.234-11.383 5.202-.467 10.074-1.25 14.485-2.301a64.395 64.395 0 0 1 1.27 6.018m.814-9.617c-1.317-4.419-3.085-9.037-5.246-13.708 2.161-4.672 3.929-9.29 5.246-13.708 11.979 3.337 19.092 8.63 19.092 13.708 0 5.077-7.113 10.37-19.092 13.708" fill="#4A4A4A" mask="url(#b)"/></g><path d="M960.152 112a9.152 9.152 0 1 0 0 18.304 9.152 9.152 0 0 0 0-18.304" fill="#4A4A4A"/></g></g></svg>