<?xml version="1.0" encoding="UTF-8" standalone="no"?>
<svg width="1920px" height="260px" viewBox="0 0 1920 260" version="1.1" xmlns="http://www.w3.org/2000/svg" xmlns:xlink="http://www.w3.org/1999/xlink">
    <!-- Generator: Sketch 3.8.3 (29802) - http://www.bohemiancoding.com/sketch -->
    <title>Header clear background </title>
    <desc>Created with Sketch.</desc>
    <defs>
        <polygon id="path-1" points="0 89.5160484 99.903871 89.5160484 99.903871 0.544484761 1.09294574e-20 0.544484761"></polygon>
    </defs>
    <g id="Welcome" stroke="none" stroke-width="1" fill="none" fill-rule="evenodd">
        <g id="Header-clear-background-">
            <g id="Dots" transform="translate(19.826132, -130.000000)">
                <g id="dot" transform="translate(781.755336, 0.000000)" stroke-width="0.5" stroke="#4A4A4A" opacity="0.3">
                    <g id="Oval-1-Copy-14">
                        <path d="M74.9609578,150 C116.360752,150 149.921916,116.421356 149.921916,75 C149.921916,33.5786438 116.360752,0 74.9609578,0 C33.561164,0 0,33.5786438 0,75 C0,116.421356 33.561164,150 74.9609578,150 Z"></path>
                    </g>
                </g>
                <g id="dot" transform="translate(297.000000, 198.000000)">
                    <g id="Oval-1-Copy-14">
                        <path d="M52.4726705,60 C56.6126499,60 59.9687663,56.6421356 59.9687663,52.5 C59.9687663,48.3578644 56.6126499,45 52.4726705,45 C48.3326911,45 44.9765747,48.3578644 44.9765747,52.5 C44.9765747,56.6421356 48.3326911,60 52.4726705,60 Z" fill="#4A4A4A"></path>
                        <path d="M52.9724102,83 C69.5323277,83 82.9567933,69.5685425 82.9567933,53 C82.9567933,36.4314575 69.5323277,23 52.9724102,23 C36.4124927,23 22.9880271,36.4314575 22.9880271,53 C22.9880271,69.5685425 36.4124927,83 52.9724102,83 Z" stroke="#4A4A4A" stroke-width="0.5" opacity="0.3"></path>
                        <path d="M52.4726705,105 C81.4525262,105 104.945341,81.4949494 104.945341,52.5 C104.945341,23.5050506 81.4525262,0 52.4726705,0 C23.4928148,0 0,23.5050506 0,52.5 C0,81.4949494 23.4928148,105 52.4726705,105 Z" stroke="#4A4A4A" stroke-width="0.5" opacity="0.3"></path>
                    </g>
                </g>
                <g id="dot" transform="translate(0.000000, 254.000000)">
                    <g id="Oval-1-Copy-14">
                        <path d="M52.4726705,60 C56.6126499,60 59.9687663,56.6421356 59.9687663,52.5 C59.9687663,48.3578644 56.6126499,45 52.4726705,45 C48.3326911,45 44.9765747,48.3578644 44.9765747,52.5 C44.9765747,56.6421356 48.3326911,60 52.4726705,60 Z" fill="#4A4A4A"></path>
                        <path d="M52.9724102,83 C69.5323277,83 82.9567933,69.5685425 82.9567933,53 C82.9567933,36.4314575 69.5323277,23 52.9724102,23 C36.4124927,23 22.9880271,36.4314575 22.9880271,53 C22.9880271,69.5685425 36.4124927,83 52.9724102,83 Z" stroke="#4A4A4A" stroke-width="0.5" opacity="0.3"></path>
                        <path d="M52.4726705,105 C81.4525262,105 104.945341,81.4949494 104.945341,52.5 C104.945341,23.5050506 81.4525262,0 52.4726705,0 C23.4928148,0 0,23.5050506 0,52.5 C0,81.4949494 23.4928148,105 52.4726705,105 Z" stroke="#4A4A4A" stroke-width="0.5" opacity="0.3"></path>
                    </g>
                </g>
                <g id="dot" transform="translate(1773.000000, 230.000000)">
                    <g id="Oval-1-Copy-14">
                        <path d="M52.4726705,60 C56.6126499,60 59.9687663,56.6421356 59.9687663,52.5 C59.9687663,48.3578644 56.6126499,45 52.4726705,45 C48.3326911,45 44.9765747,48.3578644 44.9765747,52.5 C44.9765747,56.6421356 48.3326911,60 52.4726705,60 Z" fill="#4A4A4A"></path>
                        <path d="M52.9724102,83 C69.5323277,83 82.9567933,69.5685425 82.9567933,53 C82.9567933,36.4314575 69.5323277,23 52.9724102,23 C36.4124927,23 22.9880271,36.4314575 22.9880271,53 C22.9880271,69.5685425 36.4124927,83 52.9724102,83 Z" stroke="#4A4A4A" stroke-width="0.5" opacity="0.3"></path>
                        <path d="M52.4726705,105 C81.4525262,105 104.945341,81.4949494 104.945341,52.5 C104.945341,23.5050506 81.4525262,0 52.4726705,0 C23.4928148,0 0,23.5050506 0,52.5 C0,81.4949494 23.4928148,105 52.4726705,105 Z" stroke="#4A4A4A" stroke-width="0.5" opacity="0.3"></path>
                    </g>
                </g>
                <g id="dot" transform="translate(448.928683, 80.000000)">
                    <g id="Oval-1-Copy-14">
                        <path d="M97.4492452,105 C101.589225,105 104.945341,101.642136 104.945341,97.5 C104.945341,93.3578644 101.589225,90 97.4492452,90 C93.3092658,90 89.9531494,93.3578644 89.9531494,97.5 C89.9531494,101.642136 93.3092658,105 97.4492452,105 Z" fill="#4A4A4A"></path>
                        <path d="M96.9495055,128 C113.509423,128 126.933889,114.568542 126.933889,98 C126.933889,81.4314575 113.509423,68 96.9495055,68 C80.3895879,68 66.9651223,81.4314575 66.9651223,98 C66.9651223,114.568542 80.3895879,128 96.9495055,128 Z" stroke="#4A4A4A" stroke-width="0.5" opacity="0.3"></path>
                        <path d="M97.4492452,150 C126.429101,150 149.921916,126.494949 149.921916,97.5 C149.921916,68.5050506 126.429101,45 97.4492452,45 C68.4693895,45 44.9765747,68.5050506 44.9765747,97.5 C44.9765747,126.494949 68.4693895,150 97.4492452,150 Z" stroke="#4A4A4A" stroke-width="0.5" opacity="0.3"></path>
                        <path d="M96.9495055,173 C138.349299,173 171.910463,139.421356 171.910463,98 C171.910463,56.5786438 138.349299,23 96.9495055,23 C55.5497116,23 21.9885476,56.5786438 21.9885476,98 C21.9885476,139.421356 55.5497116,173 96.9495055,173 Z" stroke="#4A4A4A" stroke-width="0.5" opacity="0.3"></path>
                        <path d="M97.4492452,195 C151.268977,195 194.89849,151.347763 194.89849,97.5 C194.89849,43.6522369 151.268977,0 97.4492452,0 C43.6295132,0 0,43.6522369 0,97.5 C0,151.347763 43.6295132,195 97.4492452,195 Z" stroke="#4A4A4A" stroke-width="0.5" opacity="0.3"></path>
                    </g>
                </g>
                <g id="dot" transform="translate(219.000000, 277.000000)">
                    <g id="Oval-1-Copy-14">
                        <path d="M75.4606976,83 C79.6006769,83 82.9567933,79.6421356 82.9567933,75.5 C82.9567933,71.3578644 79.6006769,68 75.4606976,68 C71.3207182,68 67.9646018,71.3578644 67.9646018,75.5 C67.9646018,79.6421356 71.3207182,83 75.4606976,83 Z" fill="#4A4A4A"></path>
                        <path d="M75.9604373,106 C92.5203548,106 105.94482,92.5685425 105.94482,76 C105.94482,59.4314575 92.5203548,46 75.9604373,46 C59.4005197,46 45.9760541,59.4314575 45.9760541,76 C45.9760541,92.5685425 59.4005197,106 75.9604373,106 Z" stroke="#4A4A4A" stroke-width="0.5" opacity="0.3"></path>
                        <path d="M75.4606976,128 C104.440553,128 127.933368,104.494949 127.933368,75.5 C127.933368,46.5050506 104.440553,23 75.4606976,23 C46.4808419,23 22.9880271,46.5050506 22.9880271,75.5 C22.9880271,104.494949 46.4808419,128 75.4606976,128 Z" stroke="#4A4A4A" stroke-width="0.5" opacity="0.3"></path>
                        <path d="M74.9609578,150 C116.360752,150 149.921916,116.421356 149.921916,75 C149.921916,33.5786438 116.360752,0 74.9609578,0 C33.561164,0 0,33.5786438 0,75 C0,116.421356 33.561164,150 74.9609578,150 Z" stroke="#4A4A4A" stroke-width="0.5" opacity="0.3"></path>
                    </g>
                </g>
                <g id="dot" transform="translate(1011.645497, 103.000000)">
                    <g id="Oval-1-Copy-14">
                        <path d="M98.4372723,105 C102.577252,105 105.933368,101.642136 105.933368,97.5 C105.933368,93.3578644 102.577252,90 98.4372723,90 C94.2972929,90 90.9411765,93.3578644 90.9411765,97.5 C90.9411765,101.642136 94.2972929,105 98.4372723,105 Z" fill="#4A4A4A"></path>
                        <path d="M97.9375325,127 C114.49745,127 127.921916,113.568542 127.921916,97 C127.921916,80.4314575 114.49745,67 97.9375325,67 C81.377615,67 67.9531494,80.4314575 67.9531494,97 C67.9531494,113.568542 81.377615,127 97.9375325,127 Z" stroke="#4A4A4A" stroke-width="0.5" opacity="0.3"></path>
                        <path d="M98.4372723,150 C127.417128,150 150.909943,126.494949 150.909943,97.5 C150.909943,68.5050506 127.417128,45 98.4372723,45 C69.4574166,45 45.9646018,68.5050506 45.9646018,97.5 C45.9646018,126.494949 69.4574166,150 98.4372723,150 Z" stroke="#4A4A4A" stroke-width="0.5" opacity="0.3"></path>
                        <path d="M97.9375325,172 C139.337326,172 172.89849,138.421356 172.89849,97 C172.89849,55.5786438 139.337326,22 97.9375325,22 C56.5377387,22 22.9765747,55.5786438 22.9765747,97 C22.9765747,138.421356 56.5377387,172 97.9375325,172 Z" stroke="#4A4A4A" stroke-width="0.5" opacity="0.3"></path>
                        <path d="M98.4372723,195 C152.257004,195 195.886517,151.347763 195.886517,97.5 C195.886517,43.6522369 152.257004,0 98.4372723,0 C44.6175403,0 0.988027069,43.6522369 0.988027069,97.5 C0.988027069,151.347763 44.6175403,195 98.4372723,195 Z" stroke="#4A4A4A" stroke-width="0.5" opacity="0.3"></path>
                    </g>
                </g>
                <g id="dot" transform="translate(1192.541905, 272.000000)">
                    <g id="Oval-1-Copy-14">
                        <path d="M75.4606976,83 C79.6006769,83 82.9567933,79.6421356 82.9567933,75.5 C82.9567933,71.3578644 79.6006769,68 75.4606976,68 C71.3207182,68 67.9646018,71.3578644 67.9646018,75.5 C67.9646018,79.6421356 71.3207182,83 75.4606976,83 Z" fill="#4A4A4A"></path>
                        <path d="M75.9604373,106 C92.5203548,106 105.94482,92.5685425 105.94482,76 C105.94482,59.4314575 92.5203548,46 75.9604373,46 C59.4005197,46 45.9760541,59.4314575 45.9760541,76 C45.9760541,92.5685425 59.4005197,106 75.9604373,106 Z" stroke="#4A4A4A" stroke-width="0.5" opacity="0.3"></path>
                        <path d="M75.4606976,128 C104.440553,128 127.933368,104.494949 127.933368,75.5 C127.933368,46.5050506 104.440553,23 75.4606976,23 C46.4808419,23 22.9880271,46.5050506 22.9880271,75.5 C22.9880271,104.494949 46.4808419,128 75.4606976,128 Z" stroke="#4A4A4A" stroke-width="0.5" opacity="0.3"></path>
                        <path d="M74.9609578,150 C116.360752,150 149.921916,116.421356 149.921916,75 C149.921916,33.5786438 116.360752,0 74.9609578,0 C33.561164,0 0,33.5786438 0,75 C0,116.421356 33.561164,150 74.9609578,150 Z" stroke="#4A4A4A" stroke-width="0.5" opacity="0.3"></path>
                    </g>
                </g>
                <g id="dot" transform="translate(1414.425820, 291.000000)">
                    <g id="Oval-1-Copy-14">
                        <path d="M52.4726705,60 C56.6126499,60 59.9687663,56.6421356 59.9687663,52.5 C59.9687663,48.3578644 56.6126499,45 52.4726705,45 C48.3326911,45 44.9765747,48.3578644 44.9765747,52.5 C44.9765747,56.6421356 48.3326911,60 52.4726705,60 Z" fill="#4A4A4A"></path>
                        <path d="M52.9724102,83 C69.5323277,83 82.9567933,69.5685425 82.9567933,53 C82.9567933,36.4314575 69.5323277,23 52.9724102,23 C36.4124927,23 22.9880271,36.4314575 22.9880271,53 C22.9880271,69.5685425 36.4124927,83 52.9724102,83 Z" stroke="#4A4A4A" stroke-width="0.5" opacity="0.3"></path>
                        <path d="M52.4726705,105 C81.4525262,105 104.945341,81.4949494 104.945341,52.5 C104.945341,23.5050506 81.4525262,0 52.4726705,0 C23.4928148,0 0,23.5050506 0,52.5 C0,81.4949494 23.4928148,105 52.4726705,105 Z" stroke="#4A4A4A" stroke-width="0.5" opacity="0.3"></path>
                    </g>
                </g>
                <g id="dot" transform="translate(1486.391983, 96.000000)">
                    <g id="Oval-1-Copy-14">
                        <path d="M97.4492452,105 C101.589225,105 104.945341,101.642136 104.945341,97.5 C104.945341,93.3578644 101.589225,90 97.4492452,90 C93.3092658,90 89.9531494,93.3578644 89.9531494,97.5 C89.9531494,101.642136 93.3092658,105 97.4492452,105 Z" fill="#4A4A4A"></path>
                        <path d="M97.9489849,128 C114.508902,128 127.933368,114.568542 127.933368,98 C127.933368,81.4314575 114.508902,68 97.9489849,68 C81.3890674,68 67.9646018,81.4314575 67.9646018,98 C67.9646018,114.568542 81.3890674,128 97.9489849,128 Z" stroke="#4A4A4A" stroke-width="0.5" opacity="0.3"></path>
                        <path d="M97.4492452,150 C126.429101,150 149.921916,126.494949 149.921916,97.5 C149.921916,68.5050506 126.429101,45 97.4492452,45 C68.4693895,45 44.9765747,68.5050506 44.9765747,97.5 C44.9765747,126.494949 68.4693895,150 97.4492452,150 Z" stroke="#4A4A4A" stroke-width="0.5" opacity="0.3"></path>
                        <path d="M97.9489849,173 C139.348779,173 172.909943,139.421356 172.909943,98 C172.909943,56.5786438 139.348779,23 97.9489849,23 C56.5491911,23 22.9880271,56.5786438 22.9880271,98 C22.9880271,139.421356 56.5491911,173 97.9489849,173 Z" stroke="#4A4A4A" stroke-width="0.5" opacity="0.3"></path>
                        <path d="M97.4492452,195 C151.268977,195 194.89849,151.347763 194.89849,97.5 C194.89849,43.6522369 151.268977,0 97.4492452,0 C43.6295132,0 0,43.6522369 0,97.5 C0,151.347763 43.6295132,195 97.4492452,195 Z" stroke="#4A4A4A" stroke-width="0.5" opacity="0.3"></path>
                    </g>
                </g>
                <g id="dot" transform="translate(628.000000, 318.000000)" stroke-width="0.5" stroke="#4A4A4A" opacity="0.3">
                    <g id="Oval-1-Copy-14">
                        <path d="M97.9489849,128 C114.508902,128 127.933368,114.568542 127.933368,98 C127.933368,81.4314575 114.508902,68 97.9489849,68 C81.3890674,68 67.9646018,81.4314575 67.9646018,98 C67.9646018,114.568542 81.3890674,128 97.9489849,128 Z"></path>
                        <path d="M97.4492452,150 C126.429101,150 149.921916,126.494949 149.921916,97.5 C149.921916,68.5050506 126.429101,45 97.4492452,45 C68.4693895,45 44.9765747,68.5050506 44.9765747,97.5 C44.9765747,126.494949 68.4693895,150 97.4492452,150 Z"></path>
                        <path d="M97.9489849,173 C139.348779,173 172.909943,139.421356 172.909943,98 C172.909943,56.5786438 139.348779,23 97.9489849,23 C56.5491911,23 22.9880271,56.5786438 22.9880271,98 C22.9880271,139.421356 56.5491911,173 97.9489849,173 Z"></path>
                        <path d="M97.4492452,195 C151.268977,195 194.89849,151.347763 194.89849,97.5 C194.89849,43.6522369 151.268977,0 97.4492452,0 C43.6295132,0 0,43.6522369 0,97.5 C0,151.347763 43.6295132,195 97.4492452,195 Z"></path>
                    </g>
                </g>
            </g>
            <path d="M366.5,119.5 L747.110359,295.5" id="Path-187" stroke="#4A4A4A" stroke-width="3" stroke-dasharray="7,7"></path>
            <path d="M1487.92582,215.5 L1653.5,343.5" id="Path-187-Copy" stroke="#4A4A4A" stroke-width="3" stroke-dasharray="7,7"></path>
            <path d="M571.701718,45 L881.540344,-54" id="Path-188" stroke="#4A4A4A" stroke-width="3" stroke-dasharray="7,7"></path>
            <path d="M1287.82874,218.5 L952.003644,106.5" id="Path-189" stroke="#4A4A4A" stroke-width="3" stroke-dasharray="7,7"></path>
            <path d="M1268.83863,-53.5 L1130.91046,71.5" id="Path-190" stroke="#4A4A4A" stroke-width="3" stroke-dasharray="7,7"></path>
            <path d="M1287.82874,217.5 L1487.22488,215" id="Path-191" stroke="#4A4A4A" stroke-width="3" stroke-dasharray="7,7"></path>
            <path d="M369.560863,119.605469 L568.70328,46 L747.610099,294 L879.541385,-53 L951.503904,105 L1131.4102,71 L1287.329,217 L1268.33889,-53 L1487.22488,215 L1603.91797,62.6054688 L1784.70121,312.324292 L1845.51953,152.269531 M520.728267,460 L314.011716,221.25 L73.140625,175.835938 L180.905258,-69" id="Path-158" stroke="#4A4A4A" stroke-width="3" stroke-dasharray="7,7"></path>
            <g id="React" transform="translate(859.000000, 63.000000)">
                <g stroke-width="1" fill-rule="evenodd">
                    <path d="M152.900194,46.4520957 C152.900194,39.198316 144.234645,32.9163105 130.777548,29.1580543 C131.358774,26.8987217 131.826774,24.6974935 132.159742,22.5804745 C133.858968,11.7865405 131.999548,4.22287101 126.925355,1.28060191 C121.850323,-1.65998301 114.39671,0.505035267 105.934968,7.37903146 C104.274323,8.72806269 102.608645,10.2370914 100.950516,11.8732759 C99.2915484,10.2370914 97.625871,8.72806269 95.9652258,7.37903146 C87.5043226,0.505035267 80.0481935,-1.6616672 74.9748387,1.28060191 C69.9006452,4.22287101 68.0412258,11.7865405 69.7404516,22.5804745 C70.0734194,24.6974935 70.5414194,26.8987217 71.1234839,29.1580543 C57.6655484,32.9163105 49,39.198316 49,46.4520957 C49,53.7058753 57.6655484,59.9878809 71.1234839,63.7461371 C70.5414194,66.0054696 70.0734194,68.2066979 69.7404516,70.3237169 C68.0412258,81.1176509 69.9006452,88.6813204 74.9748387,91.6235895 C76.4534839,92.4799969 78.1334194,92.9035692 79.9819355,92.9035692 C84.4774194,92.9035692 89.9684516,90.3975037 95.9652258,85.5251599 C97.625871,84.1761287 99.2915484,82.6671 100.950516,81.0309154 C102.608645,82.6671 104.274323,84.1761287 105.934968,85.5251599 C111.931742,90.3975037 117.421935,92.9035692 121.919097,92.9035692 C123.766774,92.9035692 125.447548,92.4799969 126.925355,91.6235895 C131.999548,88.6813204 133.858968,81.1176509 132.159742,70.3237169 C131.826774,68.2066979 131.358774,66.0054696 130.777548,63.7461371 C144.234645,59.9878809 152.900194,53.7058753 152.900194,46.4520957" id="Fill-1" fill="#CDE5B4"></path>
                    <path d="M152.900194,46.4520957 C152.900194,39.198316 144.234645,32.9163105 130.777548,29.1580543 C131.358774,26.8987217 131.826774,24.6974935 132.159742,22.5804745 C133.858968,11.7865405 131.999548,4.22287101 126.925355,1.28060191 C121.850323,-1.65998301 114.39671,0.505035267 105.934968,7.37903146 C104.274323,8.72806269 102.608645,10.2370914 100.950516,11.8732759 C99.2915484,10.2370914 97.625871,8.72806269 95.9652258,7.37903146 C87.5043226,0.505035267 80.0481935,-1.6616672 74.9748387,1.28060191 C69.9006452,4.22287101 68.0412258,11.7865405 69.7404516,22.5804745 C70.0734194,24.6974935 70.5414194,26.8987217 71.1234839,29.1580543 C57.6655484,32.9163105 49,39.198316 49,46.4520957 C49,53.7058753 57.6655484,59.9878809 71.1234839,63.7461371 C70.5414194,66.0054696 70.0734194,68.2066979 69.7404516,70.3237169 C68.0412258,81.1176509 69.9006452,88.6813204 74.9748387,91.6235895 C76.4534839,92.4799969 78.1334194,92.9035692 79.9819355,92.9035692 C84.4774194,92.9035692 89.9684516,90.3975037 95.9652258,85.5251599 C97.625871,84.1761287 99.2915484,82.6671 100.950516,81.0309154 C102.608645,82.6671 104.274323,84.1761287 105.934968,85.5251599 C111.931742,90.3975037 117.421935,92.9035692 121.919097,92.9035692 C123.766774,92.9035692 125.447548,92.4799969 126.925355,91.6235895 C131.999548,88.6813204 133.858968,81.1176509 132.159742,70.3237169 C131.826774,68.2066979 131.358774,66.0054696 130.777548,63.7461371 C144.234645,59.9878809 152.900194,53.7058753 152.900194,46.4520957 L152.900194,46.4520957 Z" id="Stroke-3" stroke="#CDE5B4" stroke-width="4"></path>
                    <text id="React-London" font-family="ObjektivMk2-Bold, Objektiv Mk2" font-size="30" font-weight="bold" letter-spacing="-0.70875001" fill="#4A4A4A">
                        <tspan x="0.507500057" y="127">React London</tspan>
                    </text>
                    <g id="Group" transform="translate(51.000000, 1.000000)">
                        <g id="Group-5">
                            <mask id="mask-2" fill="white">
                                <use xlink:href="#path-1"></use>
                            </mask>
                            <g id="Clip-4"></g>
                            <path d="M99.903871,45.0305645 C99.903871,38.0837903 91.5716129,32.0676613 78.6320968,28.4684677 C79.1909677,26.3047581 79.6409677,24.1966935 79.961129,22.1692742 C81.595,11.8321774 79.8070968,4.58862903 74.9280645,1.7708871 C70.0482258,-1.04524194 62.8812903,1.02814516 54.745,7.61120968 C53.1482258,8.90314516 51.5466129,10.3483065 49.9522581,11.9152419 C48.3570968,10.3483065 46.7554839,8.90314516 45.1587097,7.61120968 C37.0232258,1.02814516 29.853871,-1.04685484 24.9756452,1.7708871 C20.0966129,4.58862903 18.3087097,11.8321774 19.9425806,22.1692742 C20.2627419,24.1966935 20.7127419,26.3047581 21.2716129,28.4684677 C8.33209677,32.0676613 -0.000161290322,38.0837903 -0.000161290322,45.0305645 C-0.000161290322,51.9773387 8.33209677,57.9934677 21.2716129,61.5926613 C20.7127419,63.756371 20.2627419,65.8644355 19.9425806,67.8918548 C18.3087097,78.2289516 20.0966129,85.4725 24.9756452,88.2902419 C26.3974194,89.1104032 28.0127419,89.5160484 29.7901613,89.5160484 C34.1127419,89.5160484 39.3925806,87.1160484 45.1587097,82.4499194 C46.7554839,81.1579839 48.3570968,79.7128226 49.9522581,78.1458871 C51.5466129,79.7128226 53.1482258,81.1579839 54.745,82.4499194 C60.511129,87.1160484 65.7901613,89.5160484 70.1143548,89.5160484 C71.8909677,89.5160484 73.5070968,89.1104032 74.9280645,88.2902419 C79.8070968,85.4725 81.595,78.2289516 79.961129,67.8918548 C79.6409677,65.8644355 79.1909677,63.756371 78.6320968,61.5926613 C91.5716129,57.9934677 99.903871,51.9773387 99.903871,45.0305645 M56.6167742,9.9241129 C61.8030645,5.72733871 66.5095161,3.52330645 70.0990323,3.52330645 C71.3595161,3.52330645 72.4829032,3.79508065 73.4401613,4.34830645 C77.1240323,6.4741129 78.4296774,12.8007258 77.0232258,21.7055645 C76.7167742,23.6410484 76.2877419,25.6547581 75.7530645,27.7233065 C71.3417742,26.6716935 66.47,25.8894355 61.2683871,25.4216935 C58.3079032,21.2192742 55.1966129,17.3845968 52.0337097,14.038629 C53.5595161,12.5394355 55.0909677,11.1579839 56.6167742,9.9241129 M64.7933871,53.5999194 C63.1458065,56.4531452 61.4143548,59.1950806 59.6240323,61.8007258 C56.5417742,62.038629 53.3151613,62.1684677 49.9522581,62.1684677 C46.5885484,62.1684677 43.3619355,62.038629 40.2796774,61.8007258 C38.4893548,59.1950806 36.7579032,56.4531452 35.1103226,53.5999194 C33.4643548,50.7491129 31.9570968,47.881371 30.5966129,45.0305645 C31.9570968,42.1797581 33.4643548,39.3120161 35.1103226,36.4612097 C36.7579032,33.6079839 38.4893548,30.8668548 40.2796774,28.2604032 C43.3619355,28.0233065 46.5885484,27.8926613 49.9522581,27.8926613 C53.3151613,27.8926613 56.5417742,28.0233065 59.6240323,28.2604032 C61.4143548,30.8668548 63.1458065,33.6079839 64.7933871,36.4612097 C66.4393548,39.3120161 67.9466129,42.1797581 69.3070968,45.0305645 C67.9466129,47.881371 66.4393548,50.7491129 64.7933871,53.5999194 M70.9054839,48.5305645 C72.5369355,52.2652419 73.8966129,55.9426613 74.9562903,59.4821774 C71.4619355,60.3112097 67.6095161,60.9765323 63.4522581,61.438629 C64.7998387,59.3902419 66.1095161,57.2692742 67.37,55.0870161 C68.6280645,52.9079839 69.8070968,50.7176613 70.9054839,48.5305645 M49.9522581,73.8966935 C47.4216129,71.2128226 44.9216129,68.2031452 42.5070968,64.9289516 C44.9320968,65.0692742 47.4159677,65.1434677 49.9522581,65.1434677 C52.4877419,65.1434677 54.9716129,65.0692742 57.3966129,64.9289516 C54.9820968,68.2031452 52.4829032,71.2128226 49.9522581,73.8966935 M36.4514516,61.438629 C32.2941935,60.9765323 28.4425806,60.3112097 24.9482258,59.4821774 C26.0070968,55.9426613 27.3667742,52.2652419 28.9982258,48.5305645 C30.0966129,50.7176613 31.2756452,52.9079839 32.5337097,55.0870161 C33.7941935,57.2692742 35.103871,59.3902419 36.4514516,61.438629 M28.9982258,41.5305645 C27.3667742,37.7958871 26.0070968,34.1184677 24.9482258,30.5789516 C28.4425806,29.7499194 32.2941935,29.0845968 36.4514516,28.6225 C35.103871,30.6708871 33.7941935,32.7918548 32.5337097,34.9741129 C31.2756452,37.1531452 30.0966129,39.3434677 28.9982258,41.5305645 M49.9522581,16.1644355 C52.4829032,18.8483065 54.9820968,21.8579839 57.3966129,25.1321774 C54.9716129,24.9918548 52.4877419,24.9176613 49.9522581,24.9176613 C47.4159677,24.9176613 44.9320968,24.9918548 42.5070968,25.1321774 C44.9216129,21.8579839 47.4216129,18.8483065 49.9522581,16.1644355 M67.37,34.9741129 C66.1095161,32.7918548 64.7998387,30.6708871 63.4522581,28.6225 C67.6095161,29.0845968 71.4619355,29.7499194 74.9562903,30.5789516 C73.8966129,34.1184677 72.5369355,37.7958871 70.9054839,41.5305645 C69.8070968,39.3434677 68.6280645,37.1531452 67.37,34.9741129 M22.8812903,21.7055645 C21.4740323,12.8007258 22.7796774,6.4741129 26.4635484,4.34830645 C27.4216129,3.79508065 28.5433871,3.52330645 29.8046774,3.52330645 C33.3933871,3.52330645 38.1006452,5.72814516 43.2869355,9.9241129 C44.8127419,11.1579839 46.3441935,12.5394355 47.8708065,14.038629 C44.7070968,17.3845968 41.5958065,21.2192742 38.6353226,25.4216935 C33.4345161,25.8894355 28.5619355,26.6716935 24.1506452,27.7233065 C23.6167742,25.6547581 23.1869355,23.6410484 22.8812903,21.7055645 M2.97564516,45.0305645 C2.97564516,39.9531452 10.0877419,34.6595968 22.0667742,31.3225 C23.3845161,35.7410484 25.1514516,40.3587903 27.3135484,45.0305645 C25.1514516,49.7023387 23.3845161,54.3200806 22.0667742,58.738629 C10.0877419,55.4015323 2.97564516,50.1079839 2.97564516,45.0305645 M43.2869355,80.1370161 C36.278871,85.8079839 30.1482258,87.8418548 26.4635484,85.7128226 C22.7796774,83.5870161 21.4740323,77.2604032 22.8812903,68.3555645 C23.1869355,66.4200806 23.6167742,64.406371 24.1506452,62.3378226 C28.5619355,63.3894355 33.4345161,64.1716935 38.6353226,64.6394355 C41.5958065,68.8418548 44.7070968,72.6765323 47.8708065,76.0225 C46.3441935,77.5216935 44.8127419,78.9031452 43.2869355,80.1370161 M77.0232258,68.3555645 C78.4296774,77.2604032 77.1240323,83.5870161 73.4401613,85.7128226 C69.7570968,87.8402419 63.6248387,85.8071774 56.6167742,80.1370161 C55.0909677,78.9031452 53.5595161,77.5216935 52.0337097,76.0225 C55.1966129,72.6765323 58.3079032,68.8418548 61.2683871,64.6394355 C66.47,64.1716935 71.3417742,63.3894355 75.7530645,62.3378226 C76.2877419,64.406371 76.7167742,66.4200806 77.0232258,68.3555645 M77.8369355,58.738629 C76.52,54.3200806 74.7522581,49.7023387 72.5909677,45.0305645 C74.7522581,40.3587903 76.52,35.7410484 77.8369355,31.3225 C89.8159677,34.6595968 96.928871,39.9531452 96.928871,45.0305645 C96.928871,50.1079839 89.8159677,55.4015323 77.8369355,58.738629" id="Fill-3" fill="#4A4A4A" mask="url(#mask-2)"></path>
                        </g>
                        <path d="M50.1516129,36 C45.0975806,36 41,40.0975806 41,45.1516129 C41,50.2056452 45.0975806,54.3032258 50.1516129,54.3032258 C55.2056452,54.3032258 59.3032258,50.2056452 59.3032258,45.1516129 C59.3032258,40.0975806 55.2056452,36 50.1516129,36" id="Fill-1" fill="#4A4A4A"></path>
                    </g>
                </g>
                <text id="Community" font-family="ObjektivMk2-Bold, Objektiv Mk2" font-size="20" font-weight="bold" fill="#4A4A4A">
                    <tspan x="42.43" y="157">Community</tspan>
                </text>
            </g>
        </g>
    </g>
</svg>