<?xml version="1.0" encoding="UTF-8" standalone="no"?>
<svg width="1920px" height="260px" viewBox="0 0 1920 260" version="1.1" xmlns="http://www.w3.org/2000/svg" xmlns:xlink="http://www.w3.org/1999/xlink">
    <!-- Generator: Sketch 3.8.3 (29802) - http://www.bohemiancoding.com/sketch -->
    <title>Header clear background</title>
    <desc>Created with Sketch.</desc>
    <defs>
        <rect id="path-1" x="0" y="0" width="1920" height="260"></rect>
        <polygon id="path-3" points="0 89.5160484 99.903871 89.5160484 99.903871 0.544484761 1.09294574e-20 0.544484761"></polygon>
    </defs>
    <g id="Welcome" stroke="none" stroke-width="1" fill="none" fill-rule="evenodd">
        <g id="Header-clear-background">
            <g id="Group">
                <mask id="mask-2" fill="white">
                    <use xlink:href="#path-1"></use>
                </mask>
                <g id="Rectangle-8-Copy-4"></g>
                <g id="dashed" mask="url(#mask-2)" stroke="#4A4A4A" stroke-width="3">
                    <g transform="translate(94.000000, -192.000000)">
                        <path d="M445.5,414.500001 L557.396936,206.766115" id="Stroke-12" stroke-dasharray="5.934,2.967"></path>
                        <path d="M445.499998,414.500003 L358.233206,127.616885" id="Stroke-15" stroke-dasharray="6.053,3.026"></path>
                        <path d="M447.499994,417.5 L273.5,257.5" id="Stroke-18" stroke-dasharray="5.98,2.99"></path>
                        <path d="M445.290974,416.988111 C445.290974,416.988111 398.30285,351.06697 430.933492,311.253212 C463.564133,271.439453 494.236936,227.709588 411.355107,154.608916" id="Stroke-29" stroke-dasharray="6,3"></path>
                        <path d="M443.956178,417.115212 L1104.5,68.5" id="Stroke-12" stroke-dasharray="5.934,2.967"></path>
                        <path d="M439.629166,422.359444 L170.224065,677.944192" id="Stroke-3" stroke-dasharray="5.958,2.979"></path>
                        <path d="M449.5,419.5 L588.776649,484.962728" id="Stroke-9" stroke-dasharray="6.007000000000001,3.004"></path>
                        <path d="M470.512241,640.959213 L445.291365,418.987719 C358.362032,318.526511 177.404242,327.989132 171.342774,471.201179" id="Stroke-21" stroke-dasharray="5.987,2.994"></path>
                        <path d="M1473.54756,1309.30423 L1383.8699,359.134921 C1074.776,-70.8984797 485.361791,254.894343 409.793196,582.639417" id="Stroke-21" stroke-dasharray="5.987,2.994" transform="translate(941.670376, 731.139881) scale(-1, 1) rotate(21.000000) translate(-941.670376, -731.139881) "></path>
                        <path d="M760.502969,285.798514 C569.940024,196.380729 445.290974,416.988111 445.290974,416.988111 C410.702494,526.639118 500.110451,584.075359 567.329572,553.399185 C634.548694,522.72301 630.633017,430.041802 594.739311,397.407574" id="Stroke-25" stroke-dasharray="6,3"></path>
                        <path d="M442.680523,415.030057 L0.861638955,274.050192" id="Stroke-27" stroke-dasharray="6,3"></path>
                        <path d="M443.5,417.499999 L867.500007,314.5" id="Stroke-6" stroke-dasharray="5.953,2.976"></path>
                        <path d="M451.001735,380.85681 C451.001735,380.85681 822.350536,578.590932 1464.4745,284.98572" id="Path-655" stroke-dasharray="5.949999809265137,2.920000076293945" transform="translate(957.738120, 365.485720) rotate(-4.000000) translate(-957.738120, -365.485720) "></path>
                    </g>
                </g>
                <g id="dots" mask="url(#mask-2)" fill="#4A4A4A">
                    <g transform="translate(92.000000, 7.000000)">
                        <path d="M12.0877625,75.573651 C12.0877625,78.6386577 9.60261283,81.1240805 6.53794299,81.1240805 C3.47327316,81.1240805 0.988123515,78.6386577 0.988123515,75.573651 C0.988123515,72.5086443 3.47327316,70.0232215 6.53794299,70.0232215 C9.60261283,70.0232215 12.0877625,72.5086443 12.0877625,75.573651" id="Fill-35"></path>
                        <path d="M566.087762,5.57365101 C566.087762,8.63865772 563.602613,11.1240805 560.537943,11.1240805 C557.473273,11.1240805 554.988124,8.63865772 554.988124,5.57365101 C554.988124,2.5086443 557.473273,0.0232214765 560.537943,0.0232214765 C563.602613,0.0232214765 566.087762,2.5086443 566.087762,5.57365101" id="Fill-35"></path>
                        <path d="M1466.08776,50.573651 C1466.08776,53.6386577 1463.60261,56.1240805 1460.53794,56.1240805 C1457.47327,56.1240805 1454.98812,53.6386577 1454.98812,50.573651 C1454.98812,47.5086443 1457.47327,45.0232215 1460.53794,45.0232215 C1463.60261,45.0232215 1466.08776,47.5086443 1466.08776,50.573651" id="Fill-35"></path>
                        <path d="M1395.08776,207.573651 C1395.08776,210.638658 1392.60261,213.124081 1389.53794,213.124081 C1386.47327,213.124081 1383.98812,210.638658 1383.98812,207.573651 C1383.98812,204.508644 1386.47327,202.023221 1389.53794,202.023221 C1392.60261,202.023221 1395.08776,204.508644 1395.08776,207.573651" id="Fill-35"></path>
                        <path d="M457.193199,217.399259 C457.193199,222.508474 453.051718,226.65041 447.943065,226.65041 C442.835717,226.65041 438.694236,222.508474 438.694236,217.399259 C438.694236,212.290044 442.835717,208.148108 447.943065,208.148108 C453.051718,208.148108 457.193199,212.290044 457.193199,217.399259" id="Fill-31"></path>
                        <path d="M602.289131,198.407574 C602.289131,201.472581 599.803981,203.958004 596.739311,203.958004 C593.674641,203.958004 591.189492,201.472581 591.189492,198.407574 C591.189492,195.342567 593.674641,192.857145 596.739311,192.857145 C599.803981,192.857145 602.289131,195.342567 602.289131,198.407574" id="Fill-45"></path>
                        <path d="M768.052789,86.7985138 C768.052789,89.8635205 765.567639,92.3489433 762.502969,92.3489433 C759.438299,92.3489433 756.95315,89.8635205 756.95315,86.7985138 C756.95315,83.733507 759.438299,81.2480842 762.502969,81.2480842 C765.567639,81.2480842 768.052789,83.733507 768.052789,86.7985138" id="Fill-35"></path>
                    </g>
                </g>
                <g id="circles" mask="url(#mask-2)" stroke="#4A4A4A" stroke-width="0.5" opacity="0.3">
                    <g transform="translate(-824.000000, -1143.000000)">
                        <path d="M1745.98812,1368.52322 C1745.98812,1579.77046 1574.73434,1751.02322 1363.48584,1751.02322 C1152.23734,1751.02322 980.988124,1579.77046 980.988124,1368.52322 C980.988124,1157.27598 1152.23734,986.023221 1363.48584,986.023221 C1574.73434,986.023221 1745.98812,1157.27598 1745.98812,1368.52322 L1745.98812,1368.52322 Z" id="Stroke-57"></path>
                        <path d="M1690.98812,1368.02322 C1690.98812,1549.17118 1544.35906,1696.02322 1363.48617,1696.02322 C1182.61327,1696.02322 1035.98812,1549.17118 1035.98812,1368.02322 C1035.98812,1186.87526 1182.61327,1040.02322 1363.48617,1040.02322 C1544.35906,1040.02322 1690.98812,1186.87526 1690.98812,1368.02322 L1690.98812,1368.02322 Z" id="Stroke-57"></path>
                        <path d="M1636.38569,1367.98811 C1636.38569,1518.83004 1514.11737,1641.1131 1363.29071,1641.1131 C1212.46536,1641.1131 1090.19574,1518.83004 1090.19574,1367.98811 C1090.19574,1217.14488 1212.46536,1094.86312 1363.29071,1094.86312 C1514.11737,1094.86312 1636.38569,1217.14488 1636.38569,1367.98811 L1636.38569,1367.98811 Z" id="Stroke-59"></path>
                        <path d="M1581.76669,1367.98811 C1581.76669,1488.66165 1483.95178,1586.48732 1363.2915,1586.48732 C1242.62991,1586.48732 1144.81499,1488.66165 1144.81499,1367.98811 C1144.81499,1247.31457 1242.62991,1149.4889 1363.2915,1149.4889 C1483.95178,1149.4889 1581.76669,1247.31457 1581.76669,1367.98811 L1581.76669,1367.98811 Z" id="Stroke-61"></path>
                        <path d="M1800,1368 C1800,1609.34652 1604.34535,1805 1362.99739,1805 C1121.64943,1805 926,1609.34652 926,1368 C926,1126.65348 1121.64943,931 1362.99739,931 C1604.34535,931 1800,1126.65348 1800,1368 L1800,1368 Z" id="Stroke-57"></path>
                        <path d="M1964,1368 C1964,1699.9205 1694.91889,1969 1362.99641,1969 C1031.07393,1969 762,1699.9205 762,1368 C762,1036.0795 1031.07393,767 1362.99641,767 C1694.91889,767 1964,1036.0795 1964,1368 L1964,1368 Z" id="Stroke-57"></path>
                        <path d="M1909,1368.5 C1909,1670.32122 1664.54362,1915 1362.99674,1915 C1061.44986,1915 817,1670.32122 817,1368.5 C817,1066.67878 1061.44986,822 1362.99674,822 C1664.54362,822 1909,1066.67878 1909,1368.5 L1909,1368.5 Z" id="Stroke-57"></path>
                        <path d="M1855,1367.5 C1855,1638.9458 1634.94448,1859 1363.49706,1859 C1092.04965,1859 872,1638.9458 872,1367.5 C872,1096.0542 1092.04965,876 1363.49706,876 C1634.94448,876 1855,1096.0542 1855,1367.5 L1855,1367.5 Z" id="Stroke-57"></path>
                        <path d="M2019,1367.5 C2019,1729.51977 1725.51802,2023 1363.49608,2023 C1001.47415,2023 708,1729.51977 708,1367.5 C708,1005.48023 1001.47415,712 1363.49608,712 C1725.51802,712 2019,1005.48023 2019,1367.5 L2019,1367.5 Z" id="Stroke-57"></path>
                        <path d="M2073,1368 C2073,1760.11905 1755.11716,2078 1362.99576,2078 C970.874362,2078 653,1760.11905 653,1368 C653,975.880946 970.874362,658 1362.99576,658 C1755.11716,658 2073,975.880946 2073,1368 L2073,1368 Z" id="Stroke-57"></path>
                        <path d="M2128,1368 C2128,1790.49447 1785.71629,2133 1363.49543,2133 C941.274577,2133 599,1790.49447 599,1368 C599,945.505526 941.274577,603 1363.49543,603 C1785.71629,603 2128,945.505526 2128,1368 L2128,1368 Z" id="Stroke-57"></path>
                        <path d="M2183,1368.5 C2183,1821.09375 1816.09156,2188 1363.4951,2188 C910.898647,2188 544,1821.09375 544,1368.5 C544,915.906247 910.898647,549 1363.4951,549 C1816.09156,549 2183,915.906247 2183,1368.5 L2183,1368.5 Z" id="Stroke-57"></path>
                        <path d="M2237,1368 C2237,1850.69303 1845.6907,2242 1362.99478,2242 C880.298862,2242 489,1850.69303 489,1368 C489,885.306967 880.298862,494 1362.99478,494 C1845.6907,494 2237,885.306967 2237,1368 L2237,1368 Z" id="Stroke-57"></path>
                        <path d="M2292,1367.5 C2292,1880.29231 1876.28983,2296 1363.49445,2296 C850.699077,2296 435,1880.29231 435,1367.5 C435,854.707688 850.699077,439 1363.49445,439 C1876.28983,439 2292,854.707688 2292,1367.5 L2292,1367.5 Z" id="Stroke-57"></path>
                        <path d="M2398,1368.5 C2398,1943.14771 1934.38354,2409 1362.49381,2409 C790.604086,2409 327,1943.14771 327,1368.5 C327,793.852288 790.604086,328 1362.49381,328 C1934.38354,328 2398,793.852288 2398,1368.5 L2398,1368.5 Z" id="Stroke-57"></path>
                        <path d="M2344,1368.5 C2344,1912.77229 1904.78441,2354 1362.99414,2354 C821.203871,2354 382,1912.77229 382,1368.5 C382,824.227707 821.203871,383 1362.99414,383 C1904.78441,383 2344,824.227707 2344,1368.5 L2344,1368.5 Z" id="Stroke-57"></path>
                        <path d="M1363.2911,1531.86285 C1272.79589,1531.86285 1199.43438,1458.49327 1199.43438,1367.98811 C1199.43438,1277.48295 1272.79589,1204.11338 1363.2911,1204.11338 C1453.78631,1204.11338 1527.14783,1277.48295 1527.14783,1367.98811 C1527.14783,1458.49327 1453.78631,1531.86285 1363.2911,1531.86285 Z" id="Stroke-63"></path>
                        <path d="M1418,1367.5 C1418,1397.59928 1393.59913,1422 1363.49967,1422 C1333.40022,1422 1309,1397.59928 1309,1367.5 C1309,1337.40072 1333.40022,1313 1363.49967,1313 C1393.59913,1313 1418,1337.40072 1418,1367.5 L1418,1367.5 Z" id="Stroke-57"></path>
                        <path d="M1472,1368.5 C1472,1428.9747 1423.19827,1478 1362.99935,1478 C1302.80043,1478 1254,1428.9747 1254,1368.5 C1254,1308.0253 1302.80043,1259 1362.99935,1259 C1423.19827,1259 1472,1308.0253 1472,1368.5 L1472,1368.5 Z" id="Stroke-57"></path>
                        <path d="M2725,1369 C2725,2125.07181 2114.97834,2738 1362.49186,2738 C610.005377,2738 0,2125.07181 0,1369 C0,612.92819 610.005377,0 1362.49186,0 C2114.97834,0 2725,612.92819 2725,1369 L2725,1369 Z" id="Stroke-57"></path>
                        <path d="M2671,1368 C2671,2093.69639 2085.37921,2682 1362.99219,2682 C640.605162,2682 55,2093.69639 55,1368 C55,642.30361 640.605162,54 1362.99219,54 C2085.37921,54 2671,642.30361 2671,1368 L2671,1368 Z" id="Stroke-57"></path>
                        <path d="M2616,1368.5 C2616,2064.09711 2054.78008,2628 1362.49251,2628 C670.204947,2628 109,2064.09711 109,1368.5 C109,672.902889 670.204947,109 1362.49251,109 C2054.78008,109 2616,672.902889 2616,1368.5 L2616,1368.5 Z" id="Stroke-57"></path>
                        <path d="M2562,1368.5 C2562,2033.72169 2025.18094,2573 1362.99284,2573 C700.804732,2573 164,2033.72169 164,1368.5 C164,703.278309 700.804732,164 1362.99284,164 C2025.18094,164 2562,703.278309 2562,1368.5 L2562,1368.5 Z" id="Stroke-57"></path>
                        <path d="M2510,1368 C2510,2001.46557 1996.4625,2515 1362.99315,2515 C729.523792,2515 216,2001.46557 216,1368 C216,734.534429 729.523792,221 1362.99315,221 C1996.4625,221 2510,734.534429 2510,1368 L2510,1368 Z" id="Stroke-57"></path>
                        <path d="M2453,1368 C2453,1972.74699 1964.98267,2463 1362.99349,2463 C761.004301,2463 273,1972.74699 273,1368 C273,763.253008 761.004301,273 1362.99349,273 C1964.98267,273 2453,763.253008 2453,1368 L2453,1368 Z" id="Stroke-57"></path>
                    </g>
                </g>
                <g id="React" mask="url(#mask-2)">
                    <g transform="translate(908.000000, 75.000000)">
                        <g>
                            <path d="M103.900194,46.4520957 C103.900194,39.198316 95.2346452,32.9163105 81.7775484,29.1580543 C82.3587742,26.8987217 82.8267742,24.6974935 83.1597419,22.5804745 C84.8589677,11.7865405 82.9995484,4.22287101 77.9253548,1.28060191 C72.8503226,-1.65998301 65.3967097,0.505035267 56.9349677,7.37903146 C55.2743226,8.72806269 53.6086452,10.2370914 51.9505161,11.8732759 C50.2915484,10.2370914 48.625871,8.72806269 46.9652258,7.37903146 C38.5043226,0.505035267 31.0481935,-1.6616672 25.9748387,1.28060191 C20.9006452,4.22287101 19.0412258,11.7865405 20.7404516,22.5804745 C21.0734194,24.6974935 21.5414194,26.8987217 22.1234839,29.1580543 C8.66554839,32.9163105 0,39.198316 0,46.4520957 C0,53.7058753 8.66554839,59.9878809 22.1234839,63.7461371 C21.5414194,66.0054696 21.0734194,68.2066979 20.7404516,70.3237169 C19.0412258,81.1176509 20.9006452,88.6813204 25.9748387,91.6235895 C27.4534839,92.4799969 29.1334194,92.9035692 30.9819355,92.9035692 C35.4774194,92.9035692 40.9684516,90.3975037 46.9652258,85.5251599 C48.625871,84.1761287 50.2915484,82.6671 51.9505161,81.0309154 C53.6086452,82.6671 55.2743226,84.1761287 56.9349677,85.5251599 C62.9317419,90.3975037 68.4219355,92.9035692 72.9190968,92.9035692 C74.7667742,92.9035692 76.4475484,92.4799969 77.9253548,91.6235895 C82.9995484,88.6813204 84.8589677,81.1176509 83.1597419,70.3237169 C82.8267742,68.2066979 82.3587742,66.0054696 81.7775484,63.7461371 C95.2346452,59.9878809 103.900194,53.7058753 103.900194,46.4520957" id="Fill-1" fill="#C6DDE7"></path>
                            <path d="M103.900194,46.4520957 C103.900194,39.198316 95.2346452,32.9163105 81.7775484,29.1580543 C82.3587742,26.8987217 82.8267742,24.6974935 83.1597419,22.5804745 C84.8589677,11.7865405 82.9995484,4.22287101 77.9253548,1.28060191 C72.8503226,-1.65998301 65.3967097,0.505035267 56.9349677,7.37903146 C55.2743226,8.72806269 53.6086452,10.2370914 51.9505161,11.8732759 C50.2915484,10.2370914 48.625871,8.72806269 46.9652258,7.37903146 C38.5043226,0.505035267 31.0481935,-1.6616672 25.9748387,1.28060191 C20.9006452,4.22287101 19.0412258,11.7865405 20.7404516,22.5804745 C21.0734194,24.6974935 21.5414194,26.8987217 22.1234839,29.1580543 C8.66554839,32.9163105 0,39.198316 0,46.4520957 C0,53.7058753 8.66554839,59.9878809 22.1234839,63.7461371 C21.5414194,66.0054696 21.0734194,68.2066979 20.7404516,70.3237169 C19.0412258,81.1176509 20.9006452,88.6813204 25.9748387,91.6235895 C27.4534839,92.4799969 29.1334194,92.9035692 30.9819355,92.9035692 C35.4774194,92.9035692 40.9684516,90.3975037 46.9652258,85.5251599 C48.625871,84.1761287 50.2915484,82.6671 51.9505161,81.0309154 C53.6086452,82.6671 55.2743226,84.1761287 56.9349677,85.5251599 C62.9317419,90.3975037 68.4219355,92.9035692 72.9190968,92.9035692 C74.7667742,92.9035692 76.4475484,92.4799969 77.9253548,91.6235895 C82.9995484,88.6813204 84.8589677,81.1176509 83.1597419,70.3237169 C82.8267742,68.2066979 82.3587742,66.0054696 81.7775484,63.7461371 C95.2346452,59.9878809 103.900194,53.7058753 103.900194,46.4520957 L103.900194,46.4520957 Z" id="Stroke-3" stroke="#C6DDE7" stroke-width="4"></path>
                            <g id="Group" transform="translate(2.000000, 1.000000)">
                                <g id="Group-5">
                                    <mask id="mask-4" fill="white">
                                        <use xlink:href="#path-3"></use>
                                    </mask>
                                    <g id="Clip-4"></g>
                                    <path d="M99.903871,45.0305645 C99.903871,38.0837903 91.5716129,32.0676613 78.6320968,28.4684677 C79.1909677,26.3047581 79.6409677,24.1966935 79.961129,22.1692742 C81.595,11.8321774 79.8070968,4.58862903 74.9280645,1.7708871 C70.0482258,-1.04524194 62.8812903,1.02814516 54.745,7.61120968 C53.1482258,8.90314516 51.5466129,10.3483065 49.9522581,11.9152419 C48.3570968,10.3483065 46.7554839,8.90314516 45.1587097,7.61120968 C37.0232258,1.02814516 29.853871,-1.04685484 24.9756452,1.7708871 C20.0966129,4.58862903 18.3087097,11.8321774 19.9425806,22.1692742 C20.2627419,24.1966935 20.7127419,26.3047581 21.2716129,28.4684677 C8.33209677,32.0676613 -0.000161290322,38.0837903 -0.000161290322,45.0305645 C-0.000161290322,51.9773387 8.33209677,57.9934677 21.2716129,61.5926613 C20.7127419,63.756371 20.2627419,65.8644355 19.9425806,67.8918548 C18.3087097,78.2289516 20.0966129,85.4725 24.9756452,88.2902419 C26.3974194,89.1104032 28.0127419,89.5160484 29.7901613,89.5160484 C34.1127419,89.5160484 39.3925806,87.1160484 45.1587097,82.4499194 C46.7554839,81.1579839 48.3570968,79.7128226 49.9522581,78.1458871 C51.5466129,79.7128226 53.1482258,81.1579839 54.745,82.4499194 C60.511129,87.1160484 65.7901613,89.5160484 70.1143548,89.5160484 C71.8909677,89.5160484 73.5070968,89.1104032 74.9280645,88.2902419 C79.8070968,85.4725 81.595,78.2289516 79.961129,67.8918548 C79.6409677,65.8644355 79.1909677,63.756371 78.6320968,61.5926613 C91.5716129,57.9934677 99.903871,51.9773387 99.903871,45.0305645 M56.6167742,9.9241129 C61.8030645,5.72733871 66.5095161,3.52330645 70.0990323,3.52330645 C71.3595161,3.52330645 72.4829032,3.79508065 73.4401613,4.34830645 C77.1240323,6.4741129 78.4296774,12.8007258 77.0232258,21.7055645 C76.7167742,23.6410484 76.2877419,25.6547581 75.7530645,27.7233065 C71.3417742,26.6716935 66.47,25.8894355 61.2683871,25.4216935 C58.3079032,21.2192742 55.1966129,17.3845968 52.0337097,14.038629 C53.5595161,12.5394355 55.0909677,11.1579839 56.6167742,9.9241129 M64.7933871,53.5999194 C63.1458065,56.4531452 61.4143548,59.1950806 59.6240323,61.8007258 C56.5417742,62.038629 53.3151613,62.1684677 49.9522581,62.1684677 C46.5885484,62.1684677 43.3619355,62.038629 40.2796774,61.8007258 C38.4893548,59.1950806 36.7579032,56.4531452 35.1103226,53.5999194 C33.4643548,50.7491129 31.9570968,47.881371 30.5966129,45.0305645 C31.9570968,42.1797581 33.4643548,39.3120161 35.1103226,36.4612097 C36.7579032,33.6079839 38.4893548,30.8668548 40.2796774,28.2604032 C43.3619355,28.0233065 46.5885484,27.8926613 49.9522581,27.8926613 C53.3151613,27.8926613 56.5417742,28.0233065 59.6240323,28.2604032 C61.4143548,30.8668548 63.1458065,33.6079839 64.7933871,36.4612097 C66.4393548,39.3120161 67.9466129,42.1797581 69.3070968,45.0305645 C67.9466129,47.881371 66.4393548,50.7491129 64.7933871,53.5999194 M70.9054839,48.5305645 C72.5369355,52.2652419 73.8966129,55.9426613 74.9562903,59.4821774 C71.4619355,60.3112097 67.6095161,60.9765323 63.4522581,61.438629 C64.7998387,59.3902419 66.1095161,57.2692742 67.37,55.0870161 C68.6280645,52.9079839 69.8070968,50.7176613 70.9054839,48.5305645 M49.9522581,73.8966935 C47.4216129,71.2128226 44.9216129,68.2031452 42.5070968,64.9289516 C44.9320968,65.0692742 47.4159677,65.1434677 49.9522581,65.1434677 C52.4877419,65.1434677 54.9716129,65.0692742 57.3966129,64.9289516 C54.9820968,68.2031452 52.4829032,71.2128226 49.9522581,73.8966935 M36.4514516,61.438629 C32.2941935,60.9765323 28.4425806,60.3112097 24.9482258,59.4821774 C26.0070968,55.9426613 27.3667742,52.2652419 28.9982258,48.5305645 C30.0966129,50.7176613 31.2756452,52.9079839 32.5337097,55.0870161 C33.7941935,57.2692742 35.103871,59.3902419 36.4514516,61.438629 M28.9982258,41.5305645 C27.3667742,37.7958871 26.0070968,34.1184677 24.9482258,30.5789516 C28.4425806,29.7499194 32.2941935,29.0845968 36.4514516,28.6225 C35.103871,30.6708871 33.7941935,32.7918548 32.5337097,34.9741129 C31.2756452,37.1531452 30.0966129,39.3434677 28.9982258,41.5305645 M49.9522581,16.1644355 C52.4829032,18.8483065 54.9820968,21.8579839 57.3966129,25.1321774 C54.9716129,24.9918548 52.4877419,24.9176613 49.9522581,24.9176613 C47.4159677,24.9176613 44.9320968,24.9918548 42.5070968,25.1321774 C44.9216129,21.8579839 47.4216129,18.8483065 49.9522581,16.1644355 M67.37,34.9741129 C66.1095161,32.7918548 64.7998387,30.6708871 63.4522581,28.6225 C67.6095161,29.0845968 71.4619355,29.7499194 74.9562903,30.5789516 C73.8966129,34.1184677 72.5369355,37.7958871 70.9054839,41.5305645 C69.8070968,39.3434677 68.6280645,37.1531452 67.37,34.9741129 M22.8812903,21.7055645 C21.4740323,12.8007258 22.7796774,6.4741129 26.4635484,4.34830645 C27.4216129,3.79508065 28.5433871,3.52330645 29.8046774,3.52330645 C33.3933871,3.52330645 38.1006452,5.72814516 43.2869355,9.9241129 C44.8127419,11.1579839 46.3441935,12.5394355 47.8708065,14.038629 C44.7070968,17.3845968 41.5958065,21.2192742 38.6353226,25.4216935 C33.4345161,25.8894355 28.5619355,26.6716935 24.1506452,27.7233065 C23.6167742,25.6547581 23.1869355,23.6410484 22.8812903,21.7055645 M2.97564516,45.0305645 C2.97564516,39.9531452 10.0877419,34.6595968 22.0667742,31.3225 C23.3845161,35.7410484 25.1514516,40.3587903 27.3135484,45.0305645 C25.1514516,49.7023387 23.3845161,54.3200806 22.0667742,58.738629 C10.0877419,55.4015323 2.97564516,50.1079839 2.97564516,45.0305645 M43.2869355,80.1370161 C36.278871,85.8079839 30.1482258,87.8418548 26.4635484,85.7128226 C22.7796774,83.5870161 21.4740323,77.2604032 22.8812903,68.3555645 C23.1869355,66.4200806 23.6167742,64.406371 24.1506452,62.3378226 C28.5619355,63.3894355 33.4345161,64.1716935 38.6353226,64.6394355 C41.5958065,68.8418548 44.7070968,72.6765323 47.8708065,76.0225 C46.3441935,77.5216935 44.8127419,78.9031452 43.2869355,80.1370161 M77.0232258,68.3555645 C78.4296774,77.2604032 77.1240323,83.5870161 73.4401613,85.7128226 C69.7570968,87.8402419 63.6248387,85.8071774 56.6167742,80.1370161 C55.0909677,78.9031452 53.5595161,77.5216935 52.0337097,76.0225 C55.1966129,72.6765323 58.3079032,68.8418548 61.2683871,64.6394355 C66.47,64.1716935 71.3417742,63.3894355 75.7530645,62.3378226 C76.2877419,64.406371 76.7167742,66.4200806 77.0232258,68.3555645 M77.8369355,58.738629 C76.52,54.3200806 74.7522581,49.7023387 72.5909677,45.0305645 C74.7522581,40.3587903 76.52,35.7410484 77.8369355,31.3225 C89.8159677,34.6595968 96.928871,39.9531452 96.928871,45.0305645 C96.928871,50.1079839 89.8159677,55.4015323 77.8369355,58.738629" id="Fill-3" fill="#4A4A4A" mask="url(#mask-4)"></path>
                                </g>
                                <path d="M50.1516129,36 C45.0975806,36 41,40.0975806 41,45.1516129 C41,50.2056452 45.0975806,54.3032258 50.1516129,54.3032258 C55.2056452,54.3032258 59.3032258,50.2056452 59.3032258,45.1516129 C59.3032258,40.0975806 55.2056452,36 50.1516129,36" id="Fill-1" fill="#4A4A4A"></path>
                            </g>
                        </g>
                    </g>
                </g>
                <path d="M375.099639,66.5504295 C375.099639,69.6154362 372.614489,72.1008591 369.549819,72.1008591 C366.48515,72.1008591 364,69.6154362 364,66.5504295 C364,63.4854228 366.48515,61 369.549819,61 C372.614489,61 375.099639,63.4854228 375.099639,66.5504295" id="Fill-35" fill="#4A4A4A" mask="url(#mask-2)"></path>
            </g>
        </g>
    </g>
</svg>