<svg width="1920" height="260" viewBox="0 0 1920 260" xmlns="http://www.w3.org/2000/svg" xmlns:xlink="http://www.w3.org/1999/xlink"><title>Conference_header_clear_flipped</title><defs><path id="a" d="M0 89.516h99.904V.544H0z"/></defs><g fill="none" fill-rule="evenodd"><g stroke="#4A4A4A" stroke-width=".5" opacity=".3"><path d="M948.012 223.523c0 211.247 171.254 382.5 382.502 382.5 211.249 0 382.498-171.253 382.498-382.5s-171.25-382.5-382.498-382.5-382.502 171.253-382.502 382.5z"/><path d="M1003.012 223.023c0 181.148 146.629 328 327.502 328 180.873 0 327.498-146.852 327.498-328s-146.625-328-327.498-328-327.502 146.852-327.502 328z"/><path d="M1057.614 222.988c0 150.842 122.269 273.125 273.095 273.125 150.826 0 273.095-122.283 273.095-273.125 0-150.843-122.27-273.125-273.095-273.125-150.826 0-273.095 122.282-273.095 273.125z"/><path d="M1112.233 222.988c0 120.674 97.815 218.5 218.476 218.5s218.476-97.826 218.476-218.5c0-120.673-97.815-218.5-218.476-218.5-120.66 0-218.476 97.827-218.476 218.5z"/><path d="M894 223c0 241.347 195.655 437 437.003 437C1572.35 660 1768 464.347 1768 223s-195.65-437-436.997-437C1089.655-214 894-18.347 894 223z"/><path d="M730 223c0 331.92 269.081 601 601.004 601C1662.926 824 1932 554.92 1932 223s-269.074-601-600.996-601C999.08-378 730-108.92 730 223z"/><path d="M785 223.5c0 301.821 244.456 546.5 546.003 546.5S1877 525.321 1877 223.5 1632.55-323 1331.003-323C1029.456-323 785-78.321 785 223.5z"/><path d="M839 222.5c0 271.446 220.056 491.5 491.503 491.5S1822 493.946 1822 222.5 1601.95-269 1330.503-269 839-48.946 839 222.5z"/><path d="M675 222.5C675 584.52 968.482 878 1330.504 878S1986 584.52 1986 222.5 1692.526-433 1330.504-433 675-139.52 675 222.5z"/><path d="M621 223c0 392.12 317.883 710 710.004 710C1723.126 933 2041 615.12 2041 223s-317.874-710-709.996-710C938.883-487 621-169.12 621 223z"/><path d="M566 223c0 422.494 342.284 765 764.505 765C1752.725 988 2095 645.494 2095 223s-342.275-765-764.495-765C908.284-542 566-199.494 566 223z"/><path d="M511 223.5c0 452.594 366.908 819.5 819.505 819.5C1783.1 1043 2150 676.094 2150 223.5S1783.101-596 1330.505-596C877.908-596 511-229.094 511 223.5z"/><path d="M457 223c0 482.693 391.31 874 874.005 874C1813.701 1097 2205 705.693 2205 223s-391.299-874-873.995-874S457-259.693 457 223z"/><path d="M402 222.5c0 512.792 415.71 928.5 928.506 928.5C1843.3 1151 2259 735.292 2259 222.5c0-512.792-415.7-928.5-928.494-928.5C817.71-706 402-290.292 402 222.5z"/><path d="M296 223.5C296 798.148 759.616 1264 1331.506 1264 1903.396 1264 2367 798.148 2367 223.5S1903.396-817 1331.506-817C759.616-817 296-351.148 296 223.5z"/><path d="M350 223.5c0 544.272 439.216 985.5 981.006 985.5S2312 767.772 2312 223.5c0-544.272-439.204-985.5-980.994-985.5S350-320.772 350 223.5z"/><path d="M1330.709 386.863c90.495 0 163.857-73.37 163.857-163.875s-73.362-163.875-163.857-163.875-163.857 73.37-163.857 163.875 73.362 163.875 163.857 163.875z"/><path d="M1276 222.5c0 30.1 24.4 54.5 54.5 54.5s54.5-24.4 54.5-54.5-24.4-54.5-54.5-54.5-54.5 24.4-54.5 54.5z"/><path d="M1222 223.5c0 60.475 48.802 109.5 109 109.5 60.2 0 109-49.025 109-109.5S1391.2 114 1331 114c-60.198 0-109 49.025-109 109.5z"/><path d="M-31 224c0 756.072 610.022 1369 1362.508 1369C2083.995 1593 2694 980.072 2694 224s-610.005-1369-1362.492-1369C579.022-1145-31-532.072-31 224z"/><path d="M23 223c0 725.696 585.62 1314 1308.008 1314C2053.395 1537 2639 948.696 2639 223s-585.605-1314-1307.992-1314S23-502.696 23 223z"/><path d="M78 223.5C78 919.097 639.22 1483 1331.507 1483 2023.795 1483 2585 919.097 2585 223.5S2023.795-1036 1331.507-1036C639.22-1036 78-472.097 78 223.5z"/><path d="M132 223.5C132 888.722 668.82 1428 1331.007 1428 1993.195 1428 2530 888.722 2530 223.5S1993.195-981 1331.007-981 132-441.722 132 223.5z"/><path d="M184 223c0 633.466 513.537 1147 1147.007 1147S2478 856.466 2478 223 1964.476-924 1331.007-924C697.537-924 184-410.466 184 223z"/><path d="M241 223c0 604.747 488.017 1095 1090.007 1095C1932.996 1318 2421 827.747 2421 223c0-604.747-488.004-1095-1089.993-1095C729.017-872 241-381.747 241 223z"/></g><g stroke="#4A4A4A" stroke-width="3"><path d="M1331.244 227.982l-93.366-216.696" stroke-dasharray="5.934,2.967"/><path d="M1329.5 222.5l395-223" stroke-dasharray="6.053,3.026"/><path d="M1327.5 225.5l174-160" stroke-dasharray="5.98,2.99"/><path d="M1326.17 225.128s41.065-69.766 5.088-106.584c-35.976-36.818-70.344-77.708 5.852-157.754" stroke-dasharray="6,3"/><path d="M1330.044 223.115L1878.5 274.5" stroke-dasharray="5.934,2.967"/><path d="M1330.5 223.5l-144.277 71.463" stroke-dasharray="6.007000000000001,3.004"/><path d="M1233.64 426.394l96.113-201.667c114.9-66.686 282.919 1.175 242.025 138.558" stroke-dasharray="5.987,2.994"/><path d="M1125.684 1270.51l256.79-919.197C1248.018-160.927 581-68 392.996 210.895" stroke-dasharray="5.987,2.994"/><path d="M966.288 116.59c195.148-122.593 360.034 100.502 360.034 100.502 52.217 114.539-37.276 188.882-114.414 164.516-77.138-24.366-85.249-125.602-50.599-165.853m168.011 7.275L1588.5-174.5" stroke-dasharray="6,3"/><path d="M1326.692 222.168S942.454 393.516 322.375 55.834" stroke-dasharray="5.949999809265137,2.920000076293945"/></g><path d="M1234.912 15.574a5.55 5.55 0 1 0 11.102 0 5.55 5.55 0 0 0-11.102 0m-845 194a5.55 5.55 0 1 0 11.102 0 5.55 5.55 0 0 0-11.102 0m930.895 13.826a9.25 9.25 0 1 0 18.499 0 9.25 9.25 0 0 0-18.499 0m-162.097-9.992a5.55 5.55 0 1 0 11.102 0 5.55 5.55 0 0 0-11.101 0m336.236-146.609a5.55 5.55 0 1 0 11.102 0 5.55 5.55 0 0 0-11.102 0M317.9 55.55a5.55 5.55 0 1 0 11.102 0 5.55 5.55 0 0 0-11.102 0" fill="#4A4A4A"/><path d="M1011.9 121.452c0-7.254-8.665-13.536-22.122-17.294a70.87 70.87 0 0 0 1.382-6.578c1.699-10.793-.16-18.357-5.235-21.3-5.075-2.94-12.528-.775-20.99 6.099a69.86 69.86 0 0 0-4.984 4.494 70.05 70.05 0 0 0-4.986-4.494c-8.46-6.874-15.917-9.04-20.99-6.098-5.074 2.942-6.934 10.506-5.235 21.3a70.22 70.22 0 0 0 1.383 6.577C916.666 107.916 908 114.198 908 121.452c0 7.254 8.666 13.536 22.123 17.294a70.22 70.22 0 0 0-1.383 6.578c-1.699 10.794.16 18.357 5.235 21.3 1.478.856 3.158 1.28 5.007 1.28 4.495 0 9.986-2.506 15.983-7.379a70.05 70.05 0 0 0 4.986-4.494 69.86 69.86 0 0 0 4.984 4.494c5.997 4.873 11.487 7.379 15.984 7.379 1.848 0 3.529-.424 5.006-1.28 5.075-2.943 6.934-10.506 5.235-21.3a70.478 70.478 0 0 0-1.382-6.578c13.457-3.758 22.122-10.04 22.122-17.294" fill="#C6DDE7"/><path d="M1011.9 121.452c0-7.254-8.665-13.536-22.122-17.294a70.87 70.87 0 0 0 1.382-6.578c1.699-10.793-.16-18.357-5.235-21.3-5.075-2.94-12.528-.775-20.99 6.099a69.86 69.86 0 0 0-4.984 4.494 70.05 70.05 0 0 0-4.986-4.494c-8.46-6.874-15.917-9.04-20.99-6.098-5.074 2.942-6.934 10.506-5.235 21.3a70.22 70.22 0 0 0 1.383 6.577C916.666 107.916 908 114.198 908 121.452c0 7.254 8.666 13.536 22.123 17.294a70.22 70.22 0 0 0-1.383 6.578c-1.699 10.794.16 18.357 5.235 21.3 1.478.856 3.158 1.28 5.007 1.28 4.495 0 9.986-2.506 15.983-7.379a70.05 70.05 0 0 0 4.986-4.494 69.86 69.86 0 0 0 4.984 4.494c5.997 4.873 11.487 7.379 15.984 7.379 1.848 0 3.529-.424 5.006-1.28 5.075-2.943 6.934-10.506 5.235-21.3a70.478 70.478 0 0 0-1.382-6.578c13.457-3.758 22.122-10.04 22.122-17.294z" stroke="#C6DDE7" stroke-width="4"/><g transform="translate(910 76)"><mask id="b" fill="#fff"><use xlink:href="#a"/></mask><path d="M99.904 45.03c0-6.946-8.332-12.962-21.272-16.562a67.259 67.259 0 0 0 1.33-6.299c1.633-10.337-.155-17.58-5.034-20.398-4.88-2.816-12.047-.743-20.183 5.84a67.08 67.08 0 0 0-4.793 4.304 67.263 67.263 0 0 0-4.793-4.304c-8.136-6.583-15.305-8.658-20.183-5.84-4.88 2.818-6.667 10.061-5.033 20.398a67.16 67.16 0 0 0 1.329 6.3C8.332 32.067 0 38.083 0 45.03c0 6.946 8.332 12.962 21.272 16.562a67.259 67.259 0 0 0-1.33 6.299c-1.633 10.337.155 17.58 5.034 20.398 1.421.82 3.037 1.226 4.814 1.226 4.323 0 9.603-2.4 15.369-7.066a67.263 67.263 0 0 0 4.793-4.304 67.08 67.08 0 0 0 4.793 4.304c5.766 4.666 11.045 7.066 15.37 7.066 1.776 0 3.392-.406 4.813-1.226 4.88-2.818 6.667-10.061 5.033-20.398a67.259 67.259 0 0 0-1.329-6.3c12.94-3.599 21.272-9.615 21.272-16.561M56.617 9.924c5.186-4.197 9.893-6.4 13.482-6.4 1.26 0 2.384.271 3.341.824 3.684 2.126 4.99 8.453 3.583 17.358a64.395 64.395 0 0 1-1.27 6.017c-4.411-1.051-9.283-1.834-14.485-2.301-2.96-4.203-6.071-8.037-9.234-11.383a64.052 64.052 0 0 1 4.583-4.115M64.793 53.6a123.959 123.959 0 0 1-5.169 8.2c-3.082.239-6.309.368-9.672.368-3.363 0-6.59-.13-9.672-.367a123.959 123.959 0 0 1-5.17-8.201 123.83 123.83 0 0 1-4.513-8.57 123.83 123.83 0 0 1 4.513-8.569 124.17 124.17 0 0 1 5.17-8.2 125.65 125.65 0 0 1 9.672-.368c3.363 0 6.59.13 9.672.367a124.17 124.17 0 0 1 5.17 8.201 123.83 123.83 0 0 1 4.513 8.57 123.83 123.83 0 0 1-4.514 8.569m6.112-5.07c1.632 3.735 2.992 7.413 4.051 10.952-3.494.83-7.346 1.495-11.504 1.957a128.572 128.572 0 0 0 7.453-12.908M49.952 73.897c-2.53-2.684-5.03-5.694-7.445-8.968a128.904 128.904 0 0 0 14.89 0c-2.415 3.274-4.914 6.284-7.445 8.968m-13.5-12.458c-4.158-.462-8.01-1.128-11.504-1.957 1.06-3.54 2.419-7.217 4.05-10.951a128.13 128.13 0 0 0 7.453 12.908M28.998 41.53c-1.631-3.735-2.99-7.413-4.05-10.952 3.495-.83 7.346-1.494 11.503-1.957a128.572 128.572 0 0 0-7.453 12.909m20.954-25.367c2.53 2.684 5.03 5.694 7.445 8.968a128.897 128.897 0 0 0-14.89 0c2.415-3.274 4.915-6.284 7.445-8.968m17.418 18.81a128.572 128.572 0 0 0-3.918-6.351c4.158.462 8.01 1.127 11.504 1.956-1.06 3.54-2.42 7.217-4.05 10.952a128.13 128.13 0 0 0-3.536-6.557M22.881 21.706C21.474 12.8 22.78 6.474 26.464 4.348c.958-.553 2.08-.825 3.34-.825 3.59 0 8.297 2.205 13.483 6.401a64.235 64.235 0 0 1 4.584 4.115c-3.164 3.346-6.275 7.18-9.236 11.383-5.2.467-10.073 1.25-14.484 2.301a64.384 64.384 0 0 1-1.27-6.017M2.976 45.03c0-5.078 7.112-10.371 19.09-13.708 1.319 4.418 3.085 9.036 5.248 13.708-2.163 4.671-3.93 9.29-5.247 13.708-11.98-3.337-19.091-8.631-19.091-13.708m40.31 35.106c-7.007 5.671-13.138 7.705-16.822 5.576-3.684-2.126-4.99-8.453-3.583-17.357.306-1.936.736-3.95 1.27-6.018 4.41 1.051 9.284 1.834 14.484 2.301 2.96 4.203 6.072 8.038 9.236 11.383a64.235 64.235 0 0 1-4.584 4.115m33.736-11.781c1.407 8.904.101 15.231-3.583 17.357-3.683 2.127-9.815.094-16.823-5.576a64.052 64.052 0 0 1-4.583-4.115c3.163-3.345 6.274-7.18 9.234-11.383 5.202-.467 10.074-1.25 14.485-2.301a64.395 64.395 0 0 1 1.27 6.018m.814-9.617c-1.317-4.419-3.085-9.037-5.246-13.708 2.161-4.672 3.929-9.29 5.246-13.708 11.979 3.337 19.092 8.63 19.092 13.708 0 5.077-7.113 10.37-19.092 13.708" fill="#4A4A4A" mask="url(#b)"/></g><path d="M960.152 112a9.152 9.152 0 1 0 0 18.304 9.152 9.152 0 0 0 0-18.304" fill="#4A4A4A"/></g></svg>