<?xml version="1.0" encoding="UTF-8"?>
<svg width="1920px" height="260px" viewBox="0 0 1920 260" version="1.1" xmlns="http://www.w3.org/2000/svg" xmlns:xlink="http://www.w3.org/1999/xlink">
    <!-- Generator: Sketch 41.2 (35397) - http://www.bohemiancoding.com/sketch -->
    <title>Conference_Header</title>
    <desc>Created with Sketch.</desc>
    <defs></defs>
    <g id="Page-1" stroke="none" stroke-width="1" fill="none" fill-rule="evenodd">
        <g id="Conference_Header">
            <g transform="translate(-824.000000, -1143.000000)" id="Symbols">
                <g>
                    <g id="Conference_Header">
                        <g id="Conference_header_NoText">
                            <g id="Welcome">
                                <g id="Group_4_">
                                    <g id="dashed-Clipped" transform="translate(918.000000, 1019.000000)" stroke-width="3" stroke="#4A4A4A">
                                        <g id="dashed">
                                            <g id="Group">
                                                <g>
                                                    <path d="M445.5,346.5 L557.4,138.8" id="Stroke-12" stroke-dasharray="5.934,2.967"></path>
                                                    <path d="M445.5,346.5 L358.2,59.6" id="Stroke-15" stroke-dasharray="6.053,3.026"></path>
                                                    <path d="M447.5,349.5 L273.5,189.5" id="Stroke-18" stroke-dasharray="5.98,2.99"></path>
                                                    <path d="M445.3,349 C445.3,349 398.3,283.1 430.9,243.3 C463.5,203.5 494.2,159.8 411.3,86.7" id="Stroke-29" stroke-dasharray="6,3"></path>
                                                    <path d="M444,349.1 L1104.5,0.5" id="Stroke-12_1_" stroke-dasharray="5.934,2.967"></path>
                                                    <path d="M439.6,354.4 L170.2,609.9" id="Stroke-3" stroke-dasharray="5.958,2.979"></path>
                                                    <path d="M449.5,351.5 L588.8,417" id="Stroke-9" stroke-dasharray="6.007,3.004"></path>
                                                    <path d="M470.5,573 L445.3,351 C358.4,250.5 177.4,260 171.4,403.2" id="Stroke-21" stroke-dasharray="5.987,2.994"></path>
                                                    <path d="M237.9,314 L662.1,1168.9 C1104.8,1459.6 1538.3,944.2 1491.4,611.2" id="Stroke-21_1_" stroke-dasharray="5.987,2.994"></path>
                                                    <path d="M760.5,217.8 C569.9,128.4 445.3,349 445.3,349 C410.7,458.7 500.1,516.1 567.3,485.4 C634.5,454.7 630.6,362 594.7,329.4" id="Stroke-25" stroke-dasharray="6,3"></path>
                                                    <path d="M442.7,347 L0.9,206.1" id="Stroke-27" stroke-dasharray="6,3"></path>
                                                    <path d="M443.5,349.5 L867.5,246.5" id="Stroke-6" stroke-dasharray="5.953,2.976"></path>
                                                    <path d="M453.3,348.2 C453.3,348.2 837.5,519.5 1457.6,181.9" id="Path-655" stroke-dasharray="5.95,2.92"></path>
                                                </g>
                                            </g>
                                        </g>
                                    </g>
                                    <g id="dots" transform="translate(917.000000, 1150.000000)" fill="#4A4A4A">
                                        <g id="Group_1_">
                                            <g id="Group">
                                                <path d="M11.1,75.6 C11.1,78.7 8.6,81.2 5.6,81.2 C2.6,81.2 0,78.6 0,75.6 C0,72.5 2.5,70 5.5,70 C8.5,70 11.1,72.5 11.1,75.6" id="Fill-35"></path>
                                                <path d="M565.1,5.6 C565.1,8.7 562.6,11.2 559.6,11.2 C556.5,11.2 554.1,8.7 554.1,5.6 C554.1,2.5 556.6,0 559.6,0 C562.6,0 565.1,2.5 565.1,5.6" id="Fill-35_1_"></path>
                                                <path d="M1465.1,50.6 C1465.1,53.7 1462.6,56.2 1459.6,56.2 C1456.6,56.2 1454.1,53.7 1454.1,50.6 C1454.1,47.5 1456.6,45 1459.6,45 C1462.6,45 1465.1,47.5 1465.1,50.6" id="Fill-35_2_"></path>
                                                <path d="M245.1,184.6 C245.1,187.7 242.6,190.2 239.6,190.2 C236.6,190.2 234.1,187.7 234.1,184.6 C234.1,181.5 236.6,179 239.6,179 C242.6,179 245.1,181.5 245.1,184.6" id="Fill-35_3_"></path>
                                                <path d="M456.2,217.4 C456.2,222.5 452.1,226.7 446.9,226.7 C441.8,226.7 437.7,222.6 437.7,217.4 C437.7,212.3 441.8,208.1 446.9,208.1 C452.1,208.1 456.2,212.3 456.2,217.4" id="Fill-31"></path>
                                                <path d="M601.3,198.4 C601.3,201.5 598.8,204 595.8,204 C592.7,204 590.3,201.5 590.3,198.4 C590.3,195.3 592.8,192.8 595.8,192.8 C598.8,192.9 601.3,195.3 601.3,198.4" id="Fill-45"></path>
                                                <path d="M767.1,86.8 C767.1,89.9 764.6,92.4 761.6,92.4 C758.5,92.4 756.1,89.9 756.1,86.8 C756.1,83.7 758.6,81.2 761.6,81.2 C764.6,81.2 767.1,83.7 767.1,86.8" id="Fill-35_4_"></path>
                                            </g>
                                        </g>
                                    </g>
                                    <g id="circles-Clipped" stroke-width="0.5" stroke="#4A4A4A" opacity="0.3">
                                        <g id="circles">
                                            <g id="Group_2_">
                                                <g id="Group">
                                                    <path d="M1746,1368.5 C1746,1579.7 1574.7,1751 1363.5,1751 C1152.3,1751 981,1579.8 981,1368.5 C981,1157.2 1152.2,986 1363.5,986 C1574.8,986 1746,1157.3 1746,1368.5 L1746,1368.5 Z" id="Stroke-57"></path>
                                                    <path d="M1691,1368 C1691,1549.1 1544.4,1696 1363.5,1696 C1182.6,1696 1036,1549.2 1036,1368 C1036,1186.8 1182.6,1040 1363.5,1040 C1544.4,1040 1691,1186.9 1691,1368 L1691,1368 Z" id="Stroke-57_1_"></path>
                                                    <path d="M1636.4,1368 C1636.4,1518.8 1514.1,1641.1 1363.3,1641.1 C1212.5,1641.1 1090.2,1518.8 1090.2,1368 C1090.2,1217.2 1212.5,1094.9 1363.3,1094.9 C1514.1,1094.9 1636.4,1217.1 1636.4,1368 L1636.4,1368 Z" id="Stroke-59"></path>
                                                    <path d="M1581.8,1368 C1581.8,1488.7 1484,1586.5 1363.3,1586.5 C1242.6,1586.5 1144.8,1488.7 1144.8,1368 C1144.8,1247.3 1242.6,1149.5 1363.3,1149.5 C1484,1149.5 1581.8,1247.3 1581.8,1368 L1581.8,1368 Z" id="Stroke-61"></path>
                                                    <path d="M1800,1368 C1800,1609.3 1604.3,1805 1363,1805 C1121.7,1805 926,1609.3 926,1368 C926,1126.7 1121.6,931 1363,931 C1604.4,931 1800,1126.7 1800,1368 L1800,1368 Z" id="Stroke-57_2_"></path>
                                                    <path d="M1964,1368 C1964,1699.9 1694.9,1969 1363,1969 C1031.1,1969 762,1699.9 762,1368 C762,1036.1 1031.1,767 1363,767 C1694.9,767 1964,1036.1 1964,1368 L1964,1368 Z" id="Stroke-57_3_"></path>
                                                    <path d="M1909,1368.5 C1909,1670.3 1664.5,1915 1363,1915 C1061.5,1915 817,1670.3 817,1368.5 C817,1066.7 1061.4,822 1363,822 C1664.6,822 1909,1066.7 1909,1368.5 L1909,1368.5 Z" id="Stroke-57_4_"></path>
                                                    <path d="M1855,1367.5 C1855,1638.9 1634.9,1859 1363.5,1859 C1092.1,1859 872,1638.9 872,1367.5 C872,1096.1 1092,876 1363.5,876 C1635,876 1855,1096.1 1855,1367.5 L1855,1367.5 Z" id="Stroke-57_5_"></path>
                                                    <path d="M2019,1367.5 C2019,1729.5 1725.5,2023 1363.5,2023 C1001.5,2023 708,1729.5 708,1367.5 C708,1005.5 1001.5,712 1363.5,712 C1725.5,712 2019,1005.5 2019,1367.5 L2019,1367.5 Z" id="Stroke-57_6_"></path>
                                                    <path d="M2073,1368 C2073,1760.1 1755.1,2078 1363,2078 C970.9,2078 653,1760.1 653,1368 C653,975.9 970.9,658 1363,658 C1755.1,658 2073,975.9 2073,1368 L2073,1368 Z" id="Stroke-57_7_"></path>
                                                    <path d="M2128,1368 C2128,1790.5 1785.7,2133 1363.5,2133 C941.3,2133 599,1790.5 599,1368 C599,945.5 941.3,603 1363.5,603 C1785.7,603 2128,945.5 2128,1368 L2128,1368 Z" id="Stroke-57_8_"></path>
                                                    <path d="M2183,1368.5 C2183,1821.1 1816.1,2188 1363.5,2188 C910.9,2188 544,1821.1 544,1368.5 C544,915.9 910.9,549 1363.5,549 C1816.1,549 2183,915.9 2183,1368.5 L2183,1368.5 Z" id="Stroke-57_9_"></path>
                                                    <path d="M2237,1368 C2237,1850.7 1845.7,2242 1363,2242 C880.3,2242 489,1850.7 489,1368 C489,885.3 880.3,494 1363,494 C1845.7,494 2237,885.3 2237,1368 L2237,1368 Z" id="Stroke-57_10_"></path>
                                                    <path d="M2292,1367.5 C2292,1880.3 1876.3,2296 1363.5,2296 C850.7,2296 435,1880.3 435,1367.5 C435,854.7 850.7,439 1363.5,439 C1876.3,439 2292,854.7 2292,1367.5 L2292,1367.5 Z" id="Stroke-57_11_"></path>
                                                    <path d="M2398,1368.5 C2398,1943.1 1934.4,2409 1362.5,2409 C790.6,2409 327,1943.1 327,1368.5 C327,793.9 790.6,328 1362.5,328 C1934.4,328 2398,793.9 2398,1368.5 L2398,1368.5 Z" id="Stroke-57_12_"></path>
                                                    <path d="M2344,1368.5 C2344,1912.8 1904.8,2354 1363,2354 C821.2,2354 382,1912.8 382,1368.5 C382,824.2 821.2,383 1363,383 C1904.8,383 2344,824.2 2344,1368.5 L2344,1368.5 Z" id="Stroke-57_13_"></path>
                                                    <path d="M1363.3,1531.9 C1272.8,1531.9 1199.4,1458.5 1199.4,1368 C1199.4,1277.5 1272.8,1204.1 1363.3,1204.1 C1453.8,1204.1 1527.2,1277.5 1527.2,1368 C1527.1,1458.5 1453.8,1531.9 1363.3,1531.9 Z" id="Stroke-63"></path>
                                                    <path d="M1418,1367.5 C1418,1397.6 1393.6,1422 1363.5,1422 C1333.4,1422 1309,1397.6 1309,1367.5 C1309,1337.4 1333.4,1313 1363.5,1313 C1393.6,1313 1418,1337.4 1418,1367.5 L1418,1367.5 Z" id="Stroke-57_14_"></path>
                                                    <path d="M1472,1368.5 C1472,1429 1423.2,1478 1363,1478 C1302.8,1478 1254,1429 1254,1368.5 C1254,1308 1302.8,1259 1363,1259 C1423.2,1259 1472,1308 1472,1368.5 L1472,1368.5 Z" id="Stroke-57_15_"></path>
                                                    <path d="M2725,1369 C2725,2125.1 2115,2738 1362.5,2738 C610,2738 0,2125.1 0,1369 C0,612.9 610,0 1362.5,0 C2115,0 2725,612.9 2725,1369 L2725,1369 Z" id="Stroke-57_16_"></path>
                                                    <path d="M2671,1368 C2671,2093.7 2085.4,2682 1363,2682 C640.6,2682 55,2093.7 55,1368 C55,642.3 640.6,54 1363,54 C2085.4,54 2671,642.3 2671,1368 L2671,1368 Z" id="Stroke-57_17_"></path>
                                                    <path d="M2616,1368.5 C2616,2064.1 2054.8,2628 1362.5,2628 C670.2,2628 109,2064.1 109,1368.5 C109,672.9 670.2,109 1362.5,109 C2054.8,109 2616,672.9 2616,1368.5 L2616,1368.5 Z" id="Stroke-57_18_"></path>
                                                    <path d="M2562,1368.5 C2562,2033.7 2025.2,2573 1363,2573 C700.8,2573 164,2033.7 164,1368.5 C164,703.3 700.8,164 1363,164 C2025.2,164 2562,703.3 2562,1368.5 L2562,1368.5 Z" id="Stroke-57_19_"></path>
                                                    <path d="M2510,1368 C2510,2001.5 1996.5,2515 1363,2515 C729.5,2515 216,2001.5 216,1368 C216,734.5 729.5,221 1363,221 C1996.5,221 2510,734.5 2510,1368 L2510,1368 Z" id="Stroke-57_20_"></path>
                                                    <path d="M2453,1368 C2453,1972.7 1965,2463 1363,2463 C761,2463 273,1972.7 273,1368 C273,763.3 761,273 1363,273 C1965,273 2453,763.3 2453,1368 L2453,1368 Z" id="Stroke-57_21_"></path>
                                                </g>
                                            </g>
                                        </g>
                                    </g>
                                    <g id="React-Clipped" transform="translate(1732.000000, 1218.000000)">
                                        <g id="React">
                                            <g id="Group_3_">
                                                <g id="Group">
                                                    <g>
                                                        <path d="M103.9,46.5 C103.9,39.2 95.2,33 81.8,29.2 C82.4,26.9 82.8,24.7 83.2,22.6 C84.9,11.8 83,4.2 77.9,1.3 C72.8,-1.6 65.4,0.5 56.9,7.4 C55.2,8.7 53.6,10.3 51.9,11.9 C50.2,10.3 48.6,8.8 46.9,7.4 C38.4,0.5 31,-1.6 25.9,1.3 C20.8,4.2 19,11.8 20.7,22.6 C21,24.7 21.5,26.9 22.1,29.2 C8.7,32.9 0,39.2 0,46.5 C0,53.8 8.7,60 22.1,63.7 C21.5,66 21,68.2 20.7,70.3 C19,81.1 20.9,88.7 26,91.6 C27.5,92.5 29.2,92.9 31,92.9 C35.5,92.9 41,90.4 47,85.5 C48.7,84.2 50.3,82.6 52,81 C53.7,82.6 55.3,84.1 57,85.5 C63,90.4 68.5,92.9 73,92.9 C74.8,92.9 76.5,92.5 78,91.6 C83.1,88.7 84.9,81.1 83.2,70.3 C82.9,68.2 82.4,66 81.8,63.7 C95.2,60 103.9,53.7 103.9,46.5" id="Fill-1" fill="#C6DDE7"></path>
                                                        <path d="M103.9,46.5 C103.9,39.2 95.2,33 81.8,29.2 C82.4,26.9 82.8,24.7 83.2,22.6 C84.9,11.8 83,4.2 77.9,1.3 C72.8,-1.6 65.4,0.5 56.9,7.4 C55.2,8.7 53.6,10.3 51.9,11.9 C50.2,10.3 48.6,8.8 46.9,7.4 C38.4,0.5 31,-1.6 25.9,1.3 C20.8,4.2 19,11.8 20.7,22.6 C21,24.7 21.5,26.9 22.1,29.2 C8.7,32.9 0,39.2 0,46.5 C0,53.8 8.7,60 22.1,63.7 C21.5,66 21,68.2 20.7,70.3 C19,81.1 20.9,88.7 26,91.6 C27.5,92.5 29.2,92.9 31,92.9 C35.5,92.9 41,90.4 47,85.5 C48.7,84.2 50.3,82.6 52,81 C53.7,82.6 55.3,84.1 57,85.5 C63,90.4 68.5,92.9 73,92.9 C74.8,92.9 76.5,92.5 78,91.6 C83.1,88.7 84.9,81.1 83.2,70.3 C82.9,68.2 82.4,66 81.8,63.7 C95.2,60 103.9,53.7 103.9,46.5 L103.9,46.5 Z" id="Stroke-3_1_" stroke="#C6DDE7" stroke-width="4"></path>
                                                        <g transform="translate(2.000000, 1.000000)" fill="#4A4A4A">
                                                            <g id="Group-5">
                                                                <g id="Fill-3-Clipped">
                                                                    <path d="M99.9,45 C99.9,38.1 91.6,32 78.6,28.4 C79.2,26.2 79.6,24.1 79.9,22.1 C81.5,11.8 79.7,4.5 74.9,1.7 C70,-1 62.9,1 54.7,7.6 C53.1,8.9 51.5,10.3 49.9,11.9 C48.3,10.3 46.7,8.9 45.1,7.6 C37,1 29.9,-1 25,1.8 C20.1,4.6 18.3,11.9 20,22.2 C20.3,24.2 20.8,26.3 21.3,28.5 C8.3,32.1 0,38.1 0,45 C0,51.9 8.3,58 21.3,61.6 C20.7,63.8 20.3,65.9 20,67.9 C18.4,78.2 20.2,85.5 25,88.3 C26.4,89.1 28,89.5 29.8,89.5 C34.1,89.5 39.4,87.1 45.2,82.4 C46.8,81.1 48.4,79.7 50,78.1 C51.6,79.7 53.2,81.1 54.8,82.4 C60.6,87.1 65.8,89.5 70.2,89.5 C72,89.5 73.6,89.1 75,88.3 C79.9,85.5 81.7,78.2 80,67.9 C79.7,65.9 79.2,63.8 78.7,61.6 C91.6,58 99.9,52 99.9,45 M56.6,9.9 C61.8,5.7 66.5,3.5 70.1,3.5 C71.4,3.5 72.5,3.8 73.4,4.3 C77.1,6.4 78.4,12.8 77,21.7 C76.7,23.6 76.3,25.6 75.7,27.7 C71.3,26.6 66.4,25.9 61.2,25.4 C58.2,21.2 55.1,17.4 52,14 C53.6,12.5 55.1,11.2 56.6,9.9 M64.8,53.6 C63.2,56.5 61.4,59.2 59.6,61.8 C56.5,62 53.3,62.2 49.9,62.2 C46.5,62.2 43.3,62.1 40.2,61.8 C38.4,59.2 36.7,56.5 35,53.6 C33.4,50.7 31.8,47.9 30.5,45 C31.9,42.1 33.4,39.3 35,36.4 C36.6,33.5 38.4,30.8 40.2,28.2 C43.3,28 46.5,27.8 49.9,27.8 C53.3,27.8 56.5,27.9 59.6,28.2 C61.4,30.8 63.1,33.5 64.8,36.4 C66.4,39.3 68,42.1 69.3,45 C67.9,47.9 66.4,50.7 64.8,53.6 M70.9,48.5 C72.5,52.2 73.9,55.9 75,59.5 C71.5,60.3 67.7,61 63.5,61.5 C64.8,59.5 66.2,57.3 67.4,55.1 C68.6,52.9 69.8,50.7 70.9,48.5 M50,73.9 C47.5,71.2 45,68.2 42.6,64.9 C45,65 47.5,65.1 50,65.1 C52.5,65.1 55,65 57.4,64.9 C55,68.2 52.5,71.2 50,73.9 M36.5,61.4 C32.3,60.9 28.5,60.3 25,59.4 C26.1,55.9 27.4,52.2 29.1,48.4 C30.2,50.6 31.4,52.8 32.6,55 C33.8,57.3 35.1,59.4 36.5,61.4 M29,41.5 C27.4,37.8 26,34.1 24.9,30.5 C28.4,29.7 32.2,29 36.4,28.5 C35.1,30.5 33.7,32.7 32.5,34.9 C31.3,37.2 30.1,39.3 29,41.5 M50,16.2 C52.5,18.9 55,21.9 57.4,25.2 C55,25 52.5,24.9 50,24.9 C47.5,24.9 45,25 42.6,25.1 C44.9,21.9 47.4,18.8 50,16.2 M67.4,35 C66.1,32.8 64.8,30.7 63.5,28.6 C67.7,29.1 71.5,29.7 75,30.6 C73.9,34.1 72.6,37.8 70.9,41.6 C69.8,39.3 68.6,37.2 67.4,35 M22.9,21.7 C21.5,12.8 22.8,6.5 26.5,4.3 C27.5,3.7 28.6,3.5 29.8,3.5 C33.4,3.5 38.1,5.7 43.3,9.9 C44.8,11.1 46.4,12.5 47.9,14 C44.7,17.3 41.6,21.2 38.7,25.4 C33.5,25.9 28.6,26.6 24.2,27.7 C23.6,25.7 23.2,23.6 22.9,21.7 M3,45 C3,39.9 10.1,34.6 22.1,31.3 C23.4,35.7 25.2,40.3 27.3,45 C25.1,49.7 23.4,54.3 22.1,58.7 C10.1,55.4 3,50.1 3,45 M43.3,80.1 C36.3,85.8 30.2,87.8 26.5,85.7 C22.8,83.6 21.5,77.2 22.9,68.3 C23.2,66.4 23.6,64.4 24.2,62.3 C28.6,63.4 33.5,64.1 38.7,64.6 C41.7,68.8 44.8,72.6 47.9,76 C46.3,77.5 44.8,78.9 43.3,80.1 M77,68.4 C78.4,77.3 77.1,83.6 73.4,85.8 C69.7,87.9 63.6,85.9 56.6,80.2 C55.1,79 53.5,77.6 52,76.1 C55.2,72.8 58.3,68.9 61.2,64.7 C66.4,64.2 71.3,63.5 75.7,62.4 C76.3,64.4 76.7,66.4 77,68.4 M77.8,58.7 C76.5,54.3 74.7,49.7 72.6,45 C74.8,40.3 76.5,35.7 77.8,31.3 C89.8,34.6 96.9,39.9 96.9,45 C96.9,50.1 89.8,55.4 77.8,58.7" id="Fill-3"></path>
                                                                </g>
                                                            </g>
                                                            <path d="M50.2,36 C45.1,36 41,40.1 41,45.2 C41,50.3 45.1,54.4 50.2,54.4 C55.3,54.4 59.4,50.3 59.4,45.2 C59.4,40.1 55.2,36 50.2,36" id="Fill-1_1_"></path>
                                                        </g>
                                                    </g>
                                                </g>
                                            </g>
                                        </g>
                                    </g>
                                    <g id="Fill-35-Clipped" transform="translate(1188.000000, 1204.000000)" fill="#4A4A4A">
                                        <path d="M11.1,5.6 C11.1,8.7 8.6,11.2 5.6,11.2 C2.5,11.2 0.1,8.7 0.1,5.6 C0.1,2.5 2.6,0 5.6,0 C8.6,0 11.1,2.5 11.1,5.6" id="Fill-35_5_"></path>
                                    </g>
                                </g>
                            </g>
                        </g>
                    </g>
                </g>
            </g>
        </g>
    </g>
</svg>