<?xml version="1.0" encoding="UTF-8" standalone="no"?>
<svg width="767px" height="320px" viewBox="0 0 767 320" version="1.1" xmlns="http://www.w3.org/2000/svg" xmlns:xlink="http://www.w3.org/1999/xlink">
    <!-- Generator: sketchtool 39.1 (31720) - http://www.bohemiancoding.com/sketch -->
    <title>2053CC75-927F-4DF4-8CEF-769D5260FCBE</title>
    <desc>Created with sketchtool.</desc>
    <defs>
        <rect id="path-1" x="0" y="0" width="767" height="320"></rect>
        <polygon id="path-3" points="0 89.5160484 99.903871 89.5160484 99.903871 0.544484761 1.09294574e-20 0.544484761"></polygon>
    </defs>
    <g id="Page-1" stroke="none" stroke-width="1" fill="none" fill-rule="evenodd">
        <g id="Mobile-Footer">
            <g id="React-Ban-Mob">
                <mask id="mask-2" fill="white">
                    <use xlink:href="#path-1"></use>
                </mask>
                <g id="Mask"></g>
                <g id="Group-9" mask="url(#mask-2)">
                    <g transform="translate(-654.000000, -1019.000000)">
                        <path d="M954.395487,1158.73308 L953.953015,1154.84177" id="Stroke-20" stroke="#4A4A4A" stroke-width="3" fill="none"></path>
                        <g id="Group-7" stroke="none" stroke-width="1" fill="none" fill-rule="evenodd">
                            <g id="Group-6">
                                <g id="Group-4">
                                    <g id="Group-3">
                                        <rect id="Rectangle-8-Copy-4" fill="#C6DDE7" x="859" y="730" width="1024" height="332"></rect>
                                        <polygon id="Fill-1" fill="#C6DDE7" points="431 1476 1529.85643 1476 1529.85643 496 431 496"></polygon>
                                        <path d="M1310.98812,929.523221 C1310.98812,1140.77046 1139.73434,1312.02322 928.485838,1312.02322 C717.237339,1312.02322 545.988124,1140.77046 545.988124,929.523221 C545.988124,718.275985 717.237339,547.023221 928.485838,547.023221 C1139.73434,547.023221 1310.98812,718.275985 1310.98812,929.523221 L1310.98812,929.523221 Z" id="Stroke-57" stroke="#4A4A4A" stroke-width="0.5" opacity="0.3"></path>
                                        <path d="M1255.98812,929.023221 C1255.98812,1110.17118 1109.35906,1257.02322 928.486167,1257.02322 C747.613269,1257.02322 600.988124,1110.17118 600.988124,929.023221 C600.988124,747.875264 747.613269,601.023221 928.486167,601.023221 C1109.35906,601.023221 1255.98812,747.875264 1255.98812,929.023221 L1255.98812,929.023221 Z" id="Stroke-57" stroke="#4A4A4A" stroke-width="0.5" opacity="0.3"></path>
                                        <path d="M1201.38569,928.988111 C1201.38569,1079.83004 1079.11737,1202.1131 928.290713,1202.1131 C777.465362,1202.1131 655.195739,1079.83004 655.195739,928.988111 C655.195739,778.144876 777.465362,655.863118 928.290713,655.863118 C1079.11737,655.863118 1201.38569,778.144876 1201.38569,928.988111 L1201.38569,928.988111 Z" id="Stroke-59" stroke="#4A4A4A" stroke-width="0.5" opacity="0.3"></path>
                                        <path d="M1146.76669,928.988111 C1146.76669,1049.66165 1048.95178,1147.48732 928.291496,1147.48732 C807.62991,1147.48732 709.814995,1049.66165 709.814995,928.988111 C709.814995,808.314567 807.62991,710.4889 928.291496,710.4889 C1048.95178,710.4889 1146.76669,808.314567 1146.76669,928.988111 L1146.76669,928.988111 Z" id="Stroke-61" stroke="#4A4A4A" stroke-width="0.5" opacity="0.3"></path>
                                        <path d="M1365,929 C1365,1170.34652 1169.34535,1366 927.997389,1366 C686.649431,1366 491,1170.34652 491,929 C491,687.653484 686.649431,492 927.997389,492 C1169.34535,492 1365,687.653484 1365,929 L1365,929 Z" id="Stroke-57" stroke="#4A4A4A" stroke-width="0.5" opacity="0.3"></path>
                                        <path d="M1529,929 C1529,1260.9205 1259.91889,1530 927.996409,1530 C596.073931,1530 327,1260.9205 327,929 C327,597.079505 596.073931,328 927.996409,328 C1259.91889,328 1529,597.079505 1529,929 L1529,929 Z" id="Stroke-57" stroke="#4A4A4A" stroke-width="0.5" opacity="0.3"></path>
                                        <path d="M1474,929.5 C1474,1231.32122 1229.54362,1476 927.996738,1476 C626.449861,1476 382,1231.32122 382,929.5 C382,627.678784 626.449861,383 927.996738,383 C1229.54362,383 1474,627.678784 1474,929.5 L1474,929.5 Z" id="Stroke-57" stroke="#4A4A4A" stroke-width="0.5" opacity="0.3"></path>
                                        <path d="M928.497064,1420 C657.049646,1420 437,1199.9458 437,928.5 C437,657.054204 657.049646,437 928.497064,437 C1199.94448,437 1420,657.054204 1420,928.5 C1420,1199.9458 1199.94448,1420 928.497064,1420 Z" id="Stroke-57" stroke="#4A4A4A" stroke-width="0.5" opacity="0.3"></path>
                                        <path d="M1584,928.5 C1584,1290.51977 1290.51802,1584 928.496084,1584 C566.474146,1584 273,1290.51977 273,928.5 C273,566.480225 566.474146,273 928.496084,273 C1290.51802,273 1584,566.480225 1584,928.5 L1584,928.5 Z" id="Stroke-57" stroke="#4A4A4A" stroke-width="0.5" opacity="0.3"></path>
                                        <path d="M1638,929 C1638,1321.11905 1320.11716,1639 927.995758,1639 C535.874362,1639 218,1321.11905 218,929 C218,536.880946 535.874362,219 927.995758,219 C1320.11716,219 1638,536.880946 1638,929 L1638,929 Z" id="Stroke-57" stroke="#4A4A4A" stroke-width="0.5" opacity="0.3"></path>
                                        <path d="M1693,929 C1693,1351.49447 1350.71629,1694 928.495433,1694 C506.274577,1694 164,1351.49447 164,929 C164,506.505526 506.274577,164 928.495433,164 C1350.71629,164 1693,506.505526 1693,929 L1693,929 Z" id="Stroke-57" stroke="#4A4A4A" stroke-width="0.5" opacity="0.3"></path>
                                        <path d="M1748,929.5 C1748,1382.09375 1381.09156,1749 928.495104,1749 C475.898647,1749 109,1382.09375 109,929.5 C109,476.906247 475.898647,110 928.495104,110 C1381.09156,110 1748,476.906247 1748,929.5 L1748,929.5 Z" id="Stroke-57" stroke="#4A4A4A" stroke-width="0.5" opacity="0.3"></path>
                                        <path d="M1802,929 C1802,1411.69303 1410.6907,1803 927.994779,1803 C445.298862,1803 54,1411.69303 54,929 C54,446.306967 445.298862,55 927.994779,55 C1410.6907,55 1802,446.306967 1802,929 L1802,929 Z" id="Stroke-57" stroke="#4A4A4A" stroke-width="0.5" opacity="0.3"></path>
                                        <path d="M1857,928.5 C1857,1441.29231 1441.28983,1857 928.494453,1857 C415.699077,1857 0,1441.29231 0,928.5 C0,415.707688 415.699077,0 928.494453,0 C1441.28983,0 1857,415.707688 1857,928.5 L1857,928.5 Z" id="Stroke-57" stroke="#4A4A4A" stroke-width="0.5" opacity="0.3"></path>
                                    </g>
                                </g>
                                <path d="M929.5,929.5 L1043.5,1139.50001" id="Stroke-9" stroke="#4A4A4A" stroke-width="3" stroke-dasharray="6.007000000000001,3.004"></path>
                                <path d="M953.512241,1150.95921 L928.291365,928.987719 C841.362032,828.526511 660.404242,837.989132 654.342774,981.201179" id="Stroke-21" stroke="#4A4A4A" stroke-width="3" stroke-dasharray="5.987,2.994"></path>
                                <path d="M1243.50297,797.798514 C1052.94002,708.380729 928.290974,928.988111 928.290974,928.988111 C893.702494,1038.63912 983.110451,1096.07536 1050.32957,1065.39918 C1117.54869,1034.72301 1113.63302,942.041802 1077.73931,909.407574" id="Stroke-25" stroke="#4A4A4A" stroke-width="3" stroke-dasharray="6,3"></path>
                                <path d="M1037.52883,928.988111 C1037.52883,989.324883 988.620722,1038.23837 928.290582,1038.23837 C867.960442,1038.23837 819.053637,989.324883 819.053637,928.988111 C819.053637,868.651339 867.960442,819.737853 928.290582,819.737853 C988.620722,819.737853 1037.52883,868.651339 1037.52883,928.988111 L1037.52883,928.988111 Z" id="Stroke-57" stroke="#4A4A4A" stroke-width="0.5" opacity="0.3"></path>
                                <path d="M1092.14783,928.988111 C1092.14783,1019.49327 1018.78631,1092.86285 928.291104,1092.86285 C837.795894,1092.86285 764.434381,1019.49327 764.434381,928.988111 C764.434381,838.482953 837.795894,765.113376 928.291104,765.113376 C1018.78631,765.113376 1092.14783,838.482953 1092.14783,928.988111 L1092.14783,928.988111 Z" id="Stroke-63" stroke="#4A4A4A" stroke-width="0.5" opacity="0.3"></path>
                            </g>
                        </g>
                        <path d="M959.945306,1158.73308 C959.945306,1161.79808 957.460157,1164.28351 954.395487,1164.28351 C951.330817,1164.28351 948.845667,1161.79808 948.845667,1158.73308 C948.845667,1155.66807 951.330817,1153.18265 954.395487,1153.18265 C957.460157,1153.18265 959.945306,1155.66807 959.945306,1158.73308" id="Fill-49" stroke="none" fill="#4A4A4A" fill-rule="evenodd"></path>
                    </g>
                </g>
                <g id="Group-2" mask="url(#mask-2)">
                    <g transform="translate(332.000000, 67.000000)">
                        <path d="M103.900194,46.4520957 C103.900194,39.198316 95.2346452,32.9163105 81.7775484,29.1580543 C82.3587742,26.8987217 82.8267742,24.6974935 83.1597419,22.5804745 C84.8589677,11.7865405 82.9995484,4.22287101 77.9253548,1.28060191 C72.8503226,-1.65998301 65.3967097,0.505035267 56.9349677,7.37903146 C55.2743226,8.72806269 53.6086452,10.2370914 51.9505161,11.8732759 C50.2915484,10.2370914 48.625871,8.72806269 46.9652258,7.37903146 C38.5043226,0.505035267 31.0481935,-1.6616672 25.9748387,1.28060191 C20.9006452,4.22287101 19.0412258,11.7865405 20.7404516,22.5804745 C21.0734194,24.6974935 21.5414194,26.8987217 22.1234839,29.1580543 C8.66554839,32.9163105 0,39.198316 0,46.4520957 C0,53.7058753 8.66554839,59.9878809 22.1234839,63.7461371 C21.5414194,66.0054696 21.0734194,68.2066979 20.7404516,70.3237169 C19.0412258,81.1176509 20.9006452,88.6813204 25.9748387,91.6235895 C27.4534839,92.4799969 29.1334194,92.9035692 30.9819355,92.9035692 C35.4774194,92.9035692 40.9684516,90.3975037 46.9652258,85.5251599 C48.625871,84.1761287 50.2915484,82.6671 51.9505161,81.0309154 C53.6086452,82.6671 55.2743226,84.1761287 56.9349677,85.5251599 C62.9317419,90.3975037 68.4219355,92.9035692 72.9190968,92.9035692 C74.7667742,92.9035692 76.4475484,92.4799969 77.9253548,91.6235895 C82.9995484,88.6813204 84.8589677,81.1176509 83.1597419,70.3237169 C82.8267742,68.2066979 82.3587742,66.0054696 81.7775484,63.7461371 C95.2346452,59.9878809 103.900194,53.7058753 103.900194,46.4520957" id="Fill-1" stroke="none" fill="#C6DDE7" fill-rule="evenodd"></path>
                        <path d="M103.900194,46.4520957 C103.900194,39.198316 95.2346452,32.9163105 81.7775484,29.1580543 C82.3587742,26.8987217 82.8267742,24.6974935 83.1597419,22.5804745 C84.8589677,11.7865405 82.9995484,4.22287101 77.9253548,1.28060191 C72.8503226,-1.65998301 65.3967097,0.505035267 56.9349677,7.37903146 C55.2743226,8.72806269 53.6086452,10.2370914 51.9505161,11.8732759 C50.2915484,10.2370914 48.625871,8.72806269 46.9652258,7.37903146 C38.5043226,0.505035267 31.0481935,-1.6616672 25.9748387,1.28060191 C20.9006452,4.22287101 19.0412258,11.7865405 20.7404516,22.5804745 C21.0734194,24.6974935 21.5414194,26.8987217 22.1234839,29.1580543 C8.66554839,32.9163105 0,39.198316 0,46.4520957 C0,53.7058753 8.66554839,59.9878809 22.1234839,63.7461371 C21.5414194,66.0054696 21.0734194,68.2066979 20.7404516,70.3237169 C19.0412258,81.1176509 20.9006452,88.6813204 25.9748387,91.6235895 C27.4534839,92.4799969 29.1334194,92.9035692 30.9819355,92.9035692 C35.4774194,92.9035692 40.9684516,90.3975037 46.9652258,85.5251599 C48.625871,84.1761287 50.2915484,82.6671 51.9505161,81.0309154 C53.6086452,82.6671 55.2743226,84.1761287 56.9349677,85.5251599 C62.9317419,90.3975037 68.4219355,92.9035692 72.9190968,92.9035692 C74.7667742,92.9035692 76.4475484,92.4799969 77.9253548,91.6235895 C82.9995484,88.6813204 84.8589677,81.1176509 83.1597419,70.3237169 C82.8267742,68.2066979 82.3587742,66.0054696 81.7775484,63.7461371 C95.2346452,59.9878809 103.900194,53.7058753 103.900194,46.4520957 L103.900194,46.4520957 Z" id="Stroke-3" stroke="#C6DDE7" stroke-width="4" fill="none"></path>
                    </g>
                </g>
                <g id="Group" mask="url(#mask-2)">
                    <g transform="translate(334.000000, 68.000000)">
                        <g id="Group-5" stroke-width="1" fill="none">
                            <mask id="mask-4" fill="white">
                                <use xlink:href="#path-3"></use>
                            </mask>
                            <g id="Clip-4"></g>
                            <path d="M99.903871,45.0305645 C99.903871,38.0837903 91.5716129,32.0676613 78.6320968,28.4684677 C79.1909677,26.3047581 79.6409677,24.1966935 79.961129,22.1692742 C81.595,11.8321774 79.8070968,4.58862903 74.9280645,1.7708871 C70.0482258,-1.04524194 62.8812903,1.02814516 54.745,7.61120968 C53.1482258,8.90314516 51.5466129,10.3483065 49.9522581,11.9152419 C48.3570968,10.3483065 46.7554839,8.90314516 45.1587097,7.61120968 C37.0232258,1.02814516 29.853871,-1.04685484 24.9756452,1.7708871 C20.0966129,4.58862903 18.3087097,11.8321774 19.9425806,22.1692742 C20.2627419,24.1966935 20.7127419,26.3047581 21.2716129,28.4684677 C8.33209677,32.0676613 -0.000161290322,38.0837903 -0.000161290322,45.0305645 C-0.000161290322,51.9773387 8.33209677,57.9934677 21.2716129,61.5926613 C20.7127419,63.756371 20.2627419,65.8644355 19.9425806,67.8918548 C18.3087097,78.2289516 20.0966129,85.4725 24.9756452,88.2902419 C26.3974194,89.1104032 28.0127419,89.5160484 29.7901613,89.5160484 C34.1127419,89.5160484 39.3925806,87.1160484 45.1587097,82.4499194 C46.7554839,81.1579839 48.3570968,79.7128226 49.9522581,78.1458871 C51.5466129,79.7128226 53.1482258,81.1579839 54.745,82.4499194 C60.511129,87.1160484 65.7901613,89.5160484 70.1143548,89.5160484 C71.8909677,89.5160484 73.5070968,89.1104032 74.9280645,88.2902419 C79.8070968,85.4725 81.595,78.2289516 79.961129,67.8918548 C79.6409677,65.8644355 79.1909677,63.756371 78.6320968,61.5926613 C91.5716129,57.9934677 99.903871,51.9773387 99.903871,45.0305645 M56.6167742,9.9241129 C61.8030645,5.72733871 66.5095161,3.52330645 70.0990323,3.52330645 C71.3595161,3.52330645 72.4829032,3.79508065 73.4401613,4.34830645 C77.1240323,6.4741129 78.4296774,12.8007258 77.0232258,21.7055645 C76.7167742,23.6410484 76.2877419,25.6547581 75.7530645,27.7233065 C71.3417742,26.6716935 66.47,25.8894355 61.2683871,25.4216935 C58.3079032,21.2192742 55.1966129,17.3845968 52.0337097,14.038629 C53.5595161,12.5394355 55.0909677,11.1579839 56.6167742,9.9241129 M64.7933871,53.5999194 C63.1458065,56.4531452 61.4143548,59.1950806 59.6240323,61.8007258 C56.5417742,62.038629 53.3151613,62.1684677 49.9522581,62.1684677 C46.5885484,62.1684677 43.3619355,62.038629 40.2796774,61.8007258 C38.4893548,59.1950806 36.7579032,56.4531452 35.1103226,53.5999194 C33.4643548,50.7491129 31.9570968,47.881371 30.5966129,45.0305645 C31.9570968,42.1797581 33.4643548,39.3120161 35.1103226,36.4612097 C36.7579032,33.6079839 38.4893548,30.8668548 40.2796774,28.2604032 C43.3619355,28.0233065 46.5885484,27.8926613 49.9522581,27.8926613 C53.3151613,27.8926613 56.5417742,28.0233065 59.6240323,28.2604032 C61.4143548,30.8668548 63.1458065,33.6079839 64.7933871,36.4612097 C66.4393548,39.3120161 67.9466129,42.1797581 69.3070968,45.0305645 C67.9466129,47.881371 66.4393548,50.7491129 64.7933871,53.5999194 M70.9054839,48.5305645 C72.5369355,52.2652419 73.8966129,55.9426613 74.9562903,59.4821774 C71.4619355,60.3112097 67.6095161,60.9765323 63.4522581,61.438629 C64.7998387,59.3902419 66.1095161,57.2692742 67.37,55.0870161 C68.6280645,52.9079839 69.8070968,50.7176613 70.9054839,48.5305645 M49.9522581,73.8966935 C47.4216129,71.2128226 44.9216129,68.2031452 42.5070968,64.9289516 C44.9320968,65.0692742 47.4159677,65.1434677 49.9522581,65.1434677 C52.4877419,65.1434677 54.9716129,65.0692742 57.3966129,64.9289516 C54.9820968,68.2031452 52.4829032,71.2128226 49.9522581,73.8966935 M36.4514516,61.438629 C32.2941935,60.9765323 28.4425806,60.3112097 24.9482258,59.4821774 C26.0070968,55.9426613 27.3667742,52.2652419 28.9982258,48.5305645 C30.0966129,50.7176613 31.2756452,52.9079839 32.5337097,55.0870161 C33.7941935,57.2692742 35.103871,59.3902419 36.4514516,61.438629 M28.9982258,41.5305645 C27.3667742,37.7958871 26.0070968,34.1184677 24.9482258,30.5789516 C28.4425806,29.7499194 32.2941935,29.0845968 36.4514516,28.6225 C35.103871,30.6708871 33.7941935,32.7918548 32.5337097,34.9741129 C31.2756452,37.1531452 30.0966129,39.3434677 28.9982258,41.5305645 M49.9522581,16.1644355 C52.4829032,18.8483065 54.9820968,21.8579839 57.3966129,25.1321774 C54.9716129,24.9918548 52.4877419,24.9176613 49.9522581,24.9176613 C47.4159677,24.9176613 44.9320968,24.9918548 42.5070968,25.1321774 C44.9216129,21.8579839 47.4216129,18.8483065 49.9522581,16.1644355 M67.37,34.9741129 C66.1095161,32.7918548 64.7998387,30.6708871 63.4522581,28.6225 C67.6095161,29.0845968 71.4619355,29.7499194 74.9562903,30.5789516 C73.8966129,34.1184677 72.5369355,37.7958871 70.9054839,41.5305645 C69.8070968,39.3434677 68.6280645,37.1531452 67.37,34.9741129 M22.8812903,21.7055645 C21.4740323,12.8007258 22.7796774,6.4741129 26.4635484,4.34830645 C27.4216129,3.79508065 28.5433871,3.52330645 29.8046774,3.52330645 C33.3933871,3.52330645 38.1006452,5.72814516 43.2869355,9.9241129 C44.8127419,11.1579839 46.3441935,12.5394355 47.8708065,14.038629 C44.7070968,17.3845968 41.5958065,21.2192742 38.6353226,25.4216935 C33.4345161,25.8894355 28.5619355,26.6716935 24.1506452,27.7233065 C23.6167742,25.6547581 23.1869355,23.6410484 22.8812903,21.7055645 M2.97564516,45.0305645 C2.97564516,39.9531452 10.0877419,34.6595968 22.0667742,31.3225 C23.3845161,35.7410484 25.1514516,40.3587903 27.3135484,45.0305645 C25.1514516,49.7023387 23.3845161,54.3200806 22.0667742,58.738629 C10.0877419,55.4015323 2.97564516,50.1079839 2.97564516,45.0305645 M43.2869355,80.1370161 C36.278871,85.8079839 30.1482258,87.8418548 26.4635484,85.7128226 C22.7796774,83.5870161 21.4740323,77.2604032 22.8812903,68.3555645 C23.1869355,66.4200806 23.6167742,64.406371 24.1506452,62.3378226 C28.5619355,63.3894355 33.4345161,64.1716935 38.6353226,64.6394355 C41.5958065,68.8418548 44.7070968,72.6765323 47.8708065,76.0225 C46.3441935,77.5216935 44.8127419,78.9031452 43.2869355,80.1370161 M77.0232258,68.3555645 C78.4296774,77.2604032 77.1240323,83.5870161 73.4401613,85.7128226 C69.7570968,87.8402419 63.6248387,85.8071774 56.6167742,80.1370161 C55.0909677,78.9031452 53.5595161,77.5216935 52.0337097,76.0225 C55.1966129,72.6765323 58.3079032,68.8418548 61.2683871,64.6394355 C66.47,64.1716935 71.3417742,63.3894355 75.7530645,62.3378226 C76.2877419,64.406371 76.7167742,66.4200806 77.0232258,68.3555645 M77.8369355,58.738629 C76.52,54.3200806 74.7522581,49.7023387 72.5909677,45.0305645 C74.7522581,40.3587903 76.52,35.7410484 77.8369355,31.3225 C89.8159677,34.6595968 96.928871,39.9531452 96.928871,45.0305645 C96.928871,50.1079839 89.8159677,55.4015323 77.8369355,58.738629" id="Fill-3" fill="#4A4A4A" mask="url(#mask-4)"></path>
                        </g>
                        <path d="M50.1516129,36 C45.0975806,36 41,40.0975806 41,45.1516129 C41,50.2056452 45.0975806,54.3032258 50.1516129,54.3032258 C55.2056452,54.3032258 59.3032258,50.2056452 59.3032258,45.1516129 C59.3032258,40.0975806 55.2056452,36 50.1516129,36" id="Fill-1" fill="#4A4A4A"></path>
                    </g>
                </g>
            </g>
        </g>
    </g>
</svg>