<svg width="1440" height="200" viewBox="0 0 1440 200" xmlns="http://www.w3.org/2000/svg" xmlns:xlink="http://www.w3.org/1999/xlink"><title>E5BC0A9F-06EF-456D-8B88-5FE8A07C9C30</title><defs><path id="a" d="M0 0h1440v200H0z"/><path id="c" d="M0 89.516h99.904V.544H0z"/></defs><g fill="none" fill-rule="evenodd"><mask id="b" fill="#fff"><use xlink:href="#a"/></mask><g mask="url(#b)"><path fill="#C6DDE7" d="M231-21h1239v332H231z"/><path fill="#C6DDE7" d="M-197 521.06H901.856V-256H-197z"/><path d="M303.956 171.115l108.44-203.349" stroke="#4A4A4A" stroke-width="3" stroke-dasharray="5.934,2.967"/><path d="M298.025 170.455l-84.792-281.838" stroke="#4A4A4A" stroke-width="3" stroke-dasharray="6.053,3.026"/><path d="M306.051 172.701l386.706-354.944" stroke="#4A4A4A" stroke-width="3" stroke-dasharray="5.98,2.99"/><path d="M300.291 177.988s-46.988-65.921-14.358-105.735C318.564 32.44 349.237-11.29 266.355-84.39" stroke="#4A4A4A" stroke-width="3" stroke-dasharray="6,3"/><path d="M682.988 178.523c0 211.247-171.254 382.5-382.502 382.5-211.249 0-382.498-171.253-382.498-382.5s171.25-382.5 382.498-382.5 382.502 171.253 382.502 382.5z" stroke="#4A4A4A" stroke-width=".5" opacity=".3"/><path d="M627.988 178.023c0 181.148-146.629 328-327.502 328-180.873 0-327.498-146.852-327.498-328s146.625-328 327.498-328 327.502 146.852 327.502 328z" stroke="#4A4A4A" stroke-width=".5" opacity=".3"/><path d="M573.386 177.988c0 150.842-122.269 273.125-273.095 273.125-150.826 0-273.095-122.283-273.095-273.125 0-150.843 122.27-273.125 273.095-273.125 150.826 0 273.095 122.282 273.095 273.125z" stroke="#4A4A4A" stroke-width=".5" opacity=".3"/><path d="M518.767 177.988c0 120.674-97.815 218.5-218.476 218.5s-218.476-97.826-218.476-218.5c0-120.673 97.815-218.5 218.476-218.5 120.66 0 218.476 97.827 218.476 218.5z" stroke="#4A4A4A" stroke-width=".5" opacity=".3"/><path d="M737 178c0 241.347-195.655 437-437.003 437C58.65 615-137 419.347-137 178S58.65-259 299.997-259C541.345-259 737-63.347 737 178z" stroke="#4A4A4A" stroke-width=".5" opacity=".3"/><path d="M901 178c0 331.92-269.081 601-601.004 601C-31.926 779-301 509.92-301 178s269.074-601 600.996-601C631.92-423 901-153.92 901 178z" stroke="#4A4A4A" stroke-width=".5" opacity=".3"/><path d="M846 178.5C846 480.321 601.544 725 299.997 725S-246 480.321-246 178.5-1.55-368 299.997-368C601.544-368 846-123.321 846 178.5z" stroke="#4A4A4A" stroke-width=".5" opacity=".3"/><path d="M792 177.5C792 448.946 571.944 669 300.497 669S-191 448.946-191 177.5 29.05-314 300.497-314 792-93.946 792 177.5z" stroke="#4A4A4A" stroke-width=".5" opacity=".3"/><path d="M956 177.5C956 539.52 662.518 833 300.496 833S-355 539.52-355 177.5-61.526-478 300.496-478 956-184.52 956 177.5z" stroke="#4A4A4A" stroke-width=".5" opacity=".3"/><path d="M1010 178c0 392.12-317.883 710-710.004 710C-92.126 888-410 570.12-410 178s317.874-710 709.996-710C692.117-532 1010-214.12 1010 178z" stroke="#4A4A4A" stroke-width=".5" opacity=".3"/><path d="M1065 178c0 422.494-342.284 765-764.505 765C-121.725 943-464 600.494-464 178s342.275-765 764.495-765C722.716-587 1065-244.494 1065 178z" stroke="#4A4A4A" stroke-width=".5" opacity=".3"/><path d="M1120 178.5C1120 631.094 753.092 998 300.495 998-152.1 998-519 631.094-519 178.5S-152.101-641 300.495-641C753.092-641 1120-274.094 1120 178.5z" stroke="#4A4A4A" stroke-width=".5" opacity=".3"/><path d="M1174 178c0 482.693-391.31 874-874.005 874C-182.701 1052-574 660.693-574 178s391.299-874 873.995-874S1174-304.693 1174 178z" stroke="#4A4A4A" stroke-width=".5" opacity=".3"/><path d="M1229 177.5c0 512.792-415.71 928.5-928.506 928.5C-212.3 1106-628 690.292-628 177.5-628-335.292-212.3-751 300.494-751 813.29-751 1229-335.292 1229 177.5z" stroke="#4A4A4A" stroke-width=".5" opacity=".3"/><path d="M298.956 178.115L1131.5 238.5" stroke="#4A4A4A" stroke-width="3" stroke-dasharray="5.934,2.967"/><path d="M300.291 177.988l-2.842 2.696" stroke="#4A4A4A" stroke-width="3"/><path d="M294.63 183.36L25.223 438.943" stroke="#4A4A4A" stroke-width="3" stroke-dasharray="5.958,2.979"/><path d="M300.291 177.988l3.8-.945m-3.8.945l3.538 1.676" stroke="#4A4A4A" stroke-width="3"/><path d="M307.373 181.343l136.404 64.62" stroke="#4A4A4A" stroke-width="3" stroke-dasharray="6.007000000000001,3.004"/><path d="M300.291 177.988l1.843-3.455m-1.843 3.455l-1.128-3.75m1.128 3.75l2.885-2.648" stroke="#4A4A4A" stroke-width="3"/><path d="M325.512 399.96l-25.22-221.972C213.361 77.527 32.403 86.989 26.341 230.2" stroke="#4A4A4A" stroke-width="3" stroke-dasharray="5.987,2.994"/><path d="M615.503 46.799C424.94-42.62 300.291 177.989 300.291 177.989c-34.589 109.65 54.82 167.086 122.039 136.41 67.219-30.676 63.303-123.357 27.41-155.991M297.68 176.03L-144.137 35.05" stroke="#4A4A4A" stroke-width="3" stroke-dasharray="6,3"/><path d="M310.193 177.4a9.25 9.25 0 1 1-18.499 0 9.25 9.25 0 0 1 18.499 0m145.097-18.992a5.55 5.55 0 1 1-11.102 0 5.55 5.55 0 0 1 11.101 0" fill="#4A4A4A"/><path d="M1335 178.5C1335 753.148 871.384 1219 299.494 1219-272.396 1219-736 753.148-736 178.5S-272.396-862 299.494-862C871.384-862 1335-396.148 1335 178.5z" stroke="#4A4A4A" stroke-width=".5" opacity=".3"/><path d="M1281 178.5c0 544.272-439.216 985.5-981.006 985.5S-681 722.772-681 178.5C-681-365.772-241.796-807 299.994-807S1281-365.772 1281 178.5z" stroke="#4A4A4A" stroke-width=".5" opacity=".3"/><path d="M464.148 177.988c0 90.505-73.362 163.875-163.857 163.875s-163.857-73.37-163.857-163.875S209.796 14.113 300.291 14.113s163.857 73.37 163.857 163.875z" stroke="#4A4A4A" stroke-width=".5" opacity=".3"/><path d="M355 177.5c0 30.1-24.4 54.5-54.5 54.5S246 207.6 246 177.5s24.4-54.5 54.5-54.5 54.5 24.4 54.5 54.5z" stroke="#4A4A4A" stroke-width=".5" opacity=".3"/><path d="M307.861 176.107L735.771 69.75" stroke="#4A4A4A" stroke-width="3" stroke-dasharray="5.953,2.976"/><path d="M621.053 46.799a5.55 5.55 0 1 1-11.102 0 5.55 5.55 0 0 1 11.102 0" fill="#4A4A4A"/><path d="M409.529 177.988c0 60.337-48.908 109.25-109.238 109.25s-109.237-48.913-109.237-109.25S239.96 68.738 300.29 68.738c60.33 0 109.238 48.913 109.238 109.25z" stroke="#4A4A4A" stroke-width=".5" opacity=".3"/><path d="M1447 178c0 633.466-513.537 1147-1147.007 1147S-847 811.466-847 178-333.476-969 299.993-969C933.463-969 1447-455.466 1447 178z" stroke="#4A4A4A" stroke-width=".5" opacity=".3"/><path d="M1390 178c0 604.747-488.017 1095-1090.007 1095C-301.996 1273-790 782.747-790 178c0-604.747 488.004-1095 1089.993-1095C901.983-917 1390-426.747 1390 178z" stroke="#4A4A4A" stroke-width=".5" opacity=".3"/></g><g mask="url(#b)"><path d="M771.9 66.452c0-7.254-8.665-13.536-22.122-17.294a70.87 70.87 0 0 0 1.382-6.578c1.699-10.793-.16-18.357-5.235-21.3-5.075-2.94-12.528-.775-20.99 6.099a69.86 69.86 0 0 0-4.984 4.494 70.05 70.05 0 0 0-4.986-4.494c-8.46-6.874-15.917-9.04-20.99-6.098-5.074 2.942-6.934 10.506-5.235 21.3a70.22 70.22 0 0 0 1.383 6.577C676.666 52.916 668 59.198 668 66.452c0 7.254 8.666 13.536 22.123 17.294a70.22 70.22 0 0 0-1.383 6.578c-1.699 10.794.16 18.357 5.235 21.3 1.478.856 3.158 1.28 5.007 1.28 4.495 0 9.986-2.506 15.983-7.379a70.05 70.05 0 0 0 4.986-4.494 69.86 69.86 0 0 0 4.984 4.494c5.997 4.873 11.487 7.379 15.984 7.379 1.848 0 3.529-.424 5.006-1.28 5.075-2.943 6.934-10.506 5.235-21.3a70.478 70.478 0 0 0-1.382-6.578c13.457-3.758 22.122-10.04 22.122-17.294" fill="#C6DDE7"/><path d="M771.9 65.452c0-7.254-8.665-13.536-22.122-17.294a70.87 70.87 0 0 0 1.382-6.578c1.699-10.793-.16-18.357-5.235-21.3-5.075-2.94-12.528-.775-20.99 6.099a69.86 69.86 0 0 0-4.984 4.494 70.05 70.05 0 0 0-4.986-4.494c-8.46-6.874-15.917-9.04-20.99-6.098-5.074 2.942-6.934 10.506-5.235 21.3a70.22 70.22 0 0 0 1.383 6.577C676.666 51.916 668 58.198 668 65.452c0 7.254 8.666 13.536 22.123 17.294a70.22 70.22 0 0 0-1.383 6.578c-1.699 10.794.16 18.357 5.235 21.3 1.478.856 3.158 1.28 5.007 1.28 4.495 0 9.986-2.506 15.983-7.379a70.05 70.05 0 0 0 4.986-4.494 69.86 69.86 0 0 0 4.984 4.494c5.997 4.873 11.487 7.379 15.984 7.379 1.848 0 3.529-.424 5.006-1.28 5.075-2.943 6.934-10.506 5.235-21.3a70.478 70.478 0 0 0-1.382-6.578c13.457-3.758 22.122-10.04 22.122-17.294z" stroke="#C6DDE7" stroke-width="4"/></g><g mask="url(#b)"><g transform="translate(670 20)"><mask id="d" fill="#fff"><use xlink:href="#c"/></mask><path d="M99.904 45.03c0-6.946-8.332-12.962-21.272-16.562a67.259 67.259 0 0 0 1.33-6.299c1.633-10.337-.155-17.58-5.034-20.398-4.88-2.816-12.047-.743-20.183 5.84a67.08 67.08 0 0 0-4.793 4.304 67.263 67.263 0 0 0-4.793-4.304c-8.136-6.583-15.305-8.658-20.183-5.84-4.88 2.818-6.667 10.061-5.033 20.398a67.16 67.16 0 0 0 1.329 6.3C8.332 32.067 0 38.083 0 45.03c0 6.946 8.332 12.962 21.272 16.562a67.259 67.259 0 0 0-1.33 6.299c-1.633 10.337.155 17.58 5.034 20.398 1.421.82 3.037 1.226 4.814 1.226 4.323 0 9.603-2.4 15.369-7.066a67.263 67.263 0 0 0 4.793-4.304 67.08 67.08 0 0 0 4.793 4.304c5.766 4.666 11.045 7.066 15.37 7.066 1.776 0 3.392-.406 4.813-1.226 4.88-2.818 6.667-10.061 5.033-20.398a67.259 67.259 0 0 0-1.329-6.3c12.94-3.599 21.272-9.615 21.272-16.561M56.617 9.924c5.186-4.197 9.893-6.4 13.482-6.4 1.26 0 2.384.271 3.341.824 3.684 2.126 4.99 8.453 3.583 17.358a64.395 64.395 0 0 1-1.27 6.017c-4.411-1.051-9.283-1.834-14.485-2.301-2.96-4.203-6.071-8.037-9.234-11.383a64.052 64.052 0 0 1 4.583-4.115M64.793 53.6a123.959 123.959 0 0 1-5.169 8.2c-3.082.239-6.309.368-9.672.368-3.363 0-6.59-.13-9.672-.367a123.959 123.959 0 0 1-5.17-8.201 123.83 123.83 0 0 1-4.513-8.57 123.83 123.83 0 0 1 4.513-8.569 124.17 124.17 0 0 1 5.17-8.2 125.65 125.65 0 0 1 9.672-.368c3.363 0 6.59.13 9.672.367a124.17 124.17 0 0 1 5.17 8.201 123.83 123.83 0 0 1 4.513 8.57 123.83 123.83 0 0 1-4.514 8.569m6.112-5.07c1.632 3.735 2.992 7.413 4.051 10.952-3.494.83-7.346 1.495-11.504 1.957a128.572 128.572 0 0 0 7.453-12.908M49.952 73.897c-2.53-2.684-5.03-5.694-7.445-8.968a128.904 128.904 0 0 0 14.89 0c-2.415 3.274-4.914 6.284-7.445 8.968m-13.5-12.458c-4.158-.462-8.01-1.128-11.504-1.957 1.06-3.54 2.419-7.217 4.05-10.951a128.13 128.13 0 0 0 7.453 12.908M28.998 41.53c-1.631-3.735-2.99-7.413-4.05-10.952 3.495-.83 7.346-1.494 11.503-1.957a128.572 128.572 0 0 0-7.453 12.909m20.954-25.367c2.53 2.684 5.03 5.694 7.445 8.968a128.897 128.897 0 0 0-14.89 0c2.415-3.274 4.915-6.284 7.445-8.968m17.418 18.81a128.572 128.572 0 0 0-3.918-6.351c4.158.462 8.01 1.127 11.504 1.956-1.06 3.54-2.42 7.217-4.05 10.952a128.13 128.13 0 0 0-3.536-6.557M22.881 21.706C21.474 12.8 22.78 6.474 26.464 4.348c.958-.553 2.08-.825 3.34-.825 3.59 0 8.297 2.205 13.483 6.401a64.235 64.235 0 0 1 4.584 4.115c-3.164 3.346-6.275 7.18-9.236 11.383-5.2.467-10.073 1.25-14.484 2.301a64.384 64.384 0 0 1-1.27-6.017M2.976 45.03c0-5.078 7.112-10.371 19.09-13.708 1.319 4.418 3.085 9.036 5.248 13.708-2.163 4.671-3.93 9.29-5.247 13.708-11.98-3.337-19.091-8.631-19.091-13.708m40.31 35.106c-7.007 5.671-13.138 7.705-16.822 5.576-3.684-2.126-4.99-8.453-3.583-17.357.306-1.936.736-3.95 1.27-6.018 4.41 1.051 9.284 1.834 14.484 2.301 2.96 4.203 6.072 8.038 9.236 11.383a64.235 64.235 0 0 1-4.584 4.115m33.736-11.781c1.407 8.904.101 15.231-3.583 17.357-3.683 2.127-9.815.094-16.823-5.576a64.052 64.052 0 0 1-4.583-4.115c3.163-3.345 6.274-7.18 9.234-11.383 5.202-.467 10.074-1.25 14.485-2.301a64.395 64.395 0 0 1 1.27 6.018m.814-9.617c-1.317-4.419-3.085-9.037-5.246-13.708 2.161-4.672 3.929-9.29 5.246-13.708 11.979 3.337 19.092 8.63 19.092 13.708 0 5.077-7.113 10.37-19.092 13.708" fill="#4A4A4A" mask="url(#d)"/></g><path d="M720.152 56a9.152 9.152 0 1 0 0 18.304 9.152 9.152 0 0 0 0-18.304" fill="#4A4A4A"/></g></g></svg>