<svg width="767" height="320" viewBox="0 0 767 320" xmlns="http://www.w3.org/2000/svg" xmlns:xlink="http://www.w3.org/1999/xlink"><title>2053CC75-927F-4DF4-8CEF-769D5260FCBE</title><defs><path id="a" d="M0 0h767v320H0z"/><path id="c" d="M0 89.516h99.904V.544H0z"/></defs><g fill="none" fill-rule="evenodd"><mask id="b" fill="#fff"><use xlink:href="#a"/></mask><g mask="url(#b)"><path d="M300.395 139.733l-.442-3.891" stroke="#4A4A4A" stroke-width="3"/><path fill="#C6DDE7" d="M205-289h1024V43H205z"/><path fill="#C6DDE7" d="M-223 457H875.856v-980H-223z"/><path d="M656.988-89.477c0 211.247-171.254 382.5-382.502 382.5-211.249 0-382.498-171.253-382.498-382.5s171.25-382.5 382.498-382.5 382.502 171.253 382.502 382.5z" stroke="#4A4A4A" stroke-width=".5" opacity=".3"/><path d="M601.988-89.977c0 181.148-146.629 328-327.502 328-180.873 0-327.498-146.852-327.498-328s146.625-328 327.498-328 327.502 146.852 327.502 328z" stroke="#4A4A4A" stroke-width=".5" opacity=".3"/><path d="M547.386-90.012c0 150.842-122.269 273.125-273.095 273.125C123.465 183.113 1.196 60.83 1.196-90.012c0-150.843 122.27-273.125 273.095-273.125 150.826 0 273.095 122.282 273.095 273.125z" stroke="#4A4A4A" stroke-width=".5" opacity=".3"/><path d="M492.767-90.012c0 120.674-97.815 218.5-218.476 218.5S55.815 30.661 55.815-90.013c0-120.673 97.815-218.5 218.476-218.5 120.66 0 218.476 97.827 218.476 218.5z" stroke="#4A4A4A" stroke-width=".5" opacity=".3"/><path d="M711-90c0 241.347-195.655 437-437.003 437C32.65 347-163 151.347-163-90S32.65-527 273.997-527C515.345-527 711-331.347 711-90z" stroke="#4A4A4A" stroke-width=".5" opacity=".3"/><path d="M875-90c0 331.92-269.081 601-601.004 601C-57.926 511-327 241.92-327-90s269.074-601 600.996-601C605.92-691 875-421.92 875-90z" stroke="#4A4A4A" stroke-width=".5" opacity=".3"/><path d="M820-89.5C820 212.321 575.544 457 273.997 457S-272 212.321-272-89.5-27.55-636 273.997-636C575.544-636 820-391.321 820-89.5z" stroke="#4A4A4A" stroke-width=".5" opacity=".3"/><path d="M274.497 401C3.05 401-217 180.946-217-90.5S3.05-582 274.497-582 766-361.946 766-90.5 545.944 401 274.497 401z" stroke="#4A4A4A" stroke-width=".5" opacity=".3"/><path d="M930-90.5C930 271.52 636.518 565 274.496 565S-381 271.52-381-90.5-87.526-746 274.496-746 930-452.52 930-90.5z" stroke="#4A4A4A" stroke-width=".5" opacity=".3"/><path d="M984-90c0 392.12-317.883 710-710.004 710C-118.126 620-436 302.12-436-90s317.874-710 709.996-710C666.117-800 984-482.12 984-90z" stroke="#4A4A4A" stroke-width=".5" opacity=".3"/><path d="M1039-90c0 422.494-342.284 765-764.505 765C-147.725 675-490 332.494-490-90s342.275-765 764.495-765C696.716-855 1039-512.494 1039-90z" stroke="#4A4A4A" stroke-width=".5" opacity=".3"/><path d="M1094-89.5C1094 363.094 727.092 730 274.495 730-178.1 730-545 363.094-545-89.5S-178.101-909 274.495-909C727.092-909 1094-542.094 1094-89.5z" stroke="#4A4A4A" stroke-width=".5" opacity=".3"/><path d="M1148-90c0 482.693-391.31 874-874.005 874C-208.701 784-600 392.693-600-90s391.299-874 873.995-874S1148-572.693 1148-90z" stroke="#4A4A4A" stroke-width=".5" opacity=".3"/><path d="M1203-90.5C1203 422.292 787.29 838 274.494 838-238.3 838-654 422.292-654-90.5c0-512.792 415.7-928.5 928.494-928.5C787.29-1019 1203-603.292 1203-90.5z" stroke="#4A4A4A" stroke-width=".5" opacity=".3"/><path d="M275.5-89.5l114 210" stroke="#4A4A4A" stroke-width="3" stroke-dasharray="6.007000000000001,3.004"/><path d="M299.512 131.96l-25.22-221.972C187.361-190.473 6.403-181.011.341-37.8" stroke="#4A4A4A" stroke-width="3" stroke-dasharray="5.987,2.994"/><path d="M589.503-221.201C398.94-310.62 274.291-90.011 274.291-90.011c-34.589 109.65 54.82 167.086 122.039 136.41 67.219-30.676 63.303-123.357 27.41-155.991" stroke="#4A4A4A" stroke-width="3" stroke-dasharray="6,3"/><path d="M383.529-90.012c0 60.337-48.908 109.25-109.238 109.25S165.054-29.675 165.054-90.012s48.906-109.25 109.237-109.25c60.33 0 109.238 48.913 109.238 109.25z" stroke="#4A4A4A" stroke-width=".5" opacity=".3"/><path d="M438.148-90.012c0 90.505-73.362 163.875-163.857 163.875S110.434.493 110.434-90.012s73.362-163.875 163.857-163.875 163.857 73.37 163.857 163.875z" stroke="#4A4A4A" stroke-width=".5" opacity=".3"/><path d="M305.945 139.733a5.55 5.55 0 1 1-11.101 0 5.55 5.55 0 0 1 11.101 0" fill="#4A4A4A"/></g><g mask="url(#b)"><path d="M435.9 113.452c0-7.254-8.665-13.536-22.122-17.294a70.87 70.87 0 0 0 1.382-6.578c1.699-10.793-.16-18.357-5.235-21.3-5.075-2.94-12.528-.775-20.99 6.099a69.86 69.86 0 0 0-4.984 4.494 70.05 70.05 0 0 0-4.986-4.494c-8.46-6.874-15.917-9.04-20.99-6.098-5.074 2.942-6.934 10.506-5.235 21.3a70.22 70.22 0 0 0 1.383 6.577C340.666 99.916 332 106.198 332 113.452c0 7.254 8.666 13.536 22.123 17.294a70.22 70.22 0 0 0-1.383 6.578c-1.699 10.794.16 18.357 5.235 21.3 1.478.856 3.158 1.28 5.007 1.28 4.495 0 9.986-2.506 15.983-7.379a70.05 70.05 0 0 0 4.986-4.494 69.86 69.86 0 0 0 4.984 4.494c5.997 4.873 11.487 7.379 15.984 7.379 1.848 0 3.529-.424 5.006-1.28 5.075-2.943 6.934-10.506 5.235-21.3a70.478 70.478 0 0 0-1.382-6.578c13.457-3.758 22.122-10.04 22.122-17.294" fill="#C6DDE7"/><path d="M435.9 113.452c0-7.254-8.665-13.536-22.122-17.294a70.87 70.87 0 0 0 1.382-6.578c1.699-10.793-.16-18.357-5.235-21.3-5.075-2.94-12.528-.775-20.99 6.099a69.86 69.86 0 0 0-4.984 4.494 70.05 70.05 0 0 0-4.986-4.494c-8.46-6.874-15.917-9.04-20.99-6.098-5.074 2.942-6.934 10.506-5.235 21.3a70.22 70.22 0 0 0 1.383 6.577C340.666 99.916 332 106.198 332 113.452c0 7.254 8.666 13.536 22.123 17.294a70.22 70.22 0 0 0-1.383 6.578c-1.699 10.794.16 18.357 5.235 21.3 1.478.856 3.158 1.28 5.007 1.28 4.495 0 9.986-2.506 15.983-7.379a70.05 70.05 0 0 0 4.986-4.494 69.86 69.86 0 0 0 4.984 4.494c5.997 4.873 11.487 7.379 15.984 7.379 1.848 0 3.529-.424 5.006-1.28 5.075-2.943 6.934-10.506 5.235-21.3a70.478 70.478 0 0 0-1.382-6.578c13.457-3.758 22.122-10.04 22.122-17.294z" stroke="#C6DDE7" stroke-width="4"/></g><g mask="url(#b)"><g transform="translate(334 68)"><mask id="d" fill="#fff"><use xlink:href="#c"/></mask><path d="M99.904 45.03c0-6.946-8.332-12.962-21.272-16.562a67.259 67.259 0 0 0 1.33-6.299c1.633-10.337-.155-17.58-5.034-20.398-4.88-2.816-12.047-.743-20.183 5.84a67.08 67.08 0 0 0-4.793 4.304 67.263 67.263 0 0 0-4.793-4.304c-8.136-6.583-15.305-8.658-20.183-5.84-4.88 2.818-6.667 10.061-5.033 20.398a67.16 67.16 0 0 0 1.329 6.3C8.332 32.067 0 38.083 0 45.03c0 6.946 8.332 12.962 21.272 16.562a67.259 67.259 0 0 0-1.33 6.299c-1.633 10.337.155 17.58 5.034 20.398 1.421.82 3.037 1.226 4.814 1.226 4.323 0 9.603-2.4 15.369-7.066a67.263 67.263 0 0 0 4.793-4.304 67.08 67.08 0 0 0 4.793 4.304c5.766 4.666 11.045 7.066 15.37 7.066 1.776 0 3.392-.406 4.813-1.226 4.88-2.818 6.667-10.061 5.033-20.398a67.259 67.259 0 0 0-1.329-6.3c12.94-3.599 21.272-9.615 21.272-16.561M56.617 9.924c5.186-4.197 9.893-6.4 13.482-6.4 1.26 0 2.384.271 3.341.824 3.684 2.126 4.99 8.453 3.583 17.358a64.395 64.395 0 0 1-1.27 6.017c-4.411-1.051-9.283-1.834-14.485-2.301-2.96-4.203-6.071-8.037-9.234-11.383a64.052 64.052 0 0 1 4.583-4.115M64.793 53.6a123.959 123.959 0 0 1-5.169 8.2c-3.082.239-6.309.368-9.672.368-3.363 0-6.59-.13-9.672-.367a123.959 123.959 0 0 1-5.17-8.201 123.83 123.83 0 0 1-4.513-8.57 123.83 123.83 0 0 1 4.513-8.569 124.17 124.17 0 0 1 5.17-8.2 125.65 125.65 0 0 1 9.672-.368c3.363 0 6.59.13 9.672.367a124.17 124.17 0 0 1 5.17 8.201 123.83 123.83 0 0 1 4.513 8.57 123.83 123.83 0 0 1-4.514 8.569m6.112-5.07c1.632 3.735 2.992 7.413 4.051 10.952-3.494.83-7.346 1.495-11.504 1.957a128.572 128.572 0 0 0 7.453-12.908M49.952 73.897c-2.53-2.684-5.03-5.694-7.445-8.968a128.904 128.904 0 0 0 14.89 0c-2.415 3.274-4.914 6.284-7.445 8.968m-13.5-12.458c-4.158-.462-8.01-1.128-11.504-1.957 1.06-3.54 2.419-7.217 4.05-10.951a128.13 128.13 0 0 0 7.453 12.908M28.998 41.53c-1.631-3.735-2.99-7.413-4.05-10.952 3.495-.83 7.346-1.494 11.503-1.957a128.572 128.572 0 0 0-7.453 12.909m20.954-25.367c2.53 2.684 5.03 5.694 7.445 8.968a128.897 128.897 0 0 0-14.89 0c2.415-3.274 4.915-6.284 7.445-8.968m17.418 18.81a128.572 128.572 0 0 0-3.918-6.351c4.158.462 8.01 1.127 11.504 1.956-1.06 3.54-2.42 7.217-4.05 10.952a128.13 128.13 0 0 0-3.536-6.557M22.881 21.706C21.474 12.8 22.78 6.474 26.464 4.348c.958-.553 2.08-.825 3.34-.825 3.59 0 8.297 2.205 13.483 6.401a64.235 64.235 0 0 1 4.584 4.115c-3.164 3.346-6.275 7.18-9.236 11.383-5.2.467-10.073 1.25-14.484 2.301a64.384 64.384 0 0 1-1.27-6.017M2.976 45.03c0-5.078 7.112-10.371 19.09-13.708 1.319 4.418 3.085 9.036 5.248 13.708-2.163 4.671-3.93 9.29-5.247 13.708-11.98-3.337-19.091-8.631-19.091-13.708m40.31 35.106c-7.007 5.671-13.138 7.705-16.822 5.576-3.684-2.126-4.99-8.453-3.583-17.357.306-1.936.736-3.95 1.27-6.018 4.41 1.051 9.284 1.834 14.484 2.301 2.96 4.203 6.072 8.038 9.236 11.383a64.235 64.235 0 0 1-4.584 4.115m33.736-11.781c1.407 8.904.101 15.231-3.583 17.357-3.683 2.127-9.815.094-16.823-5.576a64.052 64.052 0 0 1-4.583-4.115c3.163-3.345 6.274-7.18 9.234-11.383 5.202-.467 10.074-1.25 14.485-2.301a64.395 64.395 0 0 1 1.27 6.018m.814-9.617c-1.317-4.419-3.085-9.037-5.246-13.708 2.161-4.672 3.929-9.29 5.246-13.708 11.979 3.337 19.092 8.63 19.092 13.708 0 5.077-7.113 10.37-19.092 13.708" fill="#4A4A4A" mask="url(#d)"/></g><path d="M384.152 104a9.152 9.152 0 1 0 0 18.304 9.152 9.152 0 0 0 0-18.304" fill="#4A4A4A"/></g></g></svg>