<?xml version="1.0" encoding="UTF-8"?>
<svg width="20px" height="20px" viewBox="0 0 20 20" version="1.1" xmlns="http://www.w3.org/2000/svg" xmlns:xlink="http://www.w3.org/1999/xlink">
    <!-- Generator: Sketch 42 (36781) - http://www.bohemiancoding.com/sketch -->
    <title>Flickr</title>
    <desc>Created with Sketch.</desc>
    <defs></defs>
    <g id="Page-1" stroke="none" stroke-width="1" fill="none" fill-rule="evenodd">
        <g id="Flickr">
            <path d="M16.2500009,0 C17.2829909,0 18.1662275,0.366750409 18.89974,1.10025998 C19.6332496,1.83377246 20,2.71700911 20,3.74999909 L20,16.2500009 C20,17.2829915 19.6332496,18.166229 18.89974,18.8997397 C18.1662275,19.6332502 17.2829909,20 16.2500009,20 L3.74999909,20 C2.71700853,20 1.833771,19.6332502 1.10026027,18.8997397 C0.366749826,18.166229 0,17.2829915 0,16.2500009 L0,3.74999909 C0,2.71700911 0.366749826,1.83377246 1.10026027,1.10025998 C1.833771,0.366750409 2.71700853,0 3.74999909,0 L16.2500009,0 Z M9.08854023,10.0000015 C9.08854023,9.23610606 8.81944565,8.58507107 8.28125066,8.04687608 C7.74305276,7.50867818 7.09201777,7.2395836 6.32812528,7.2395836 C5.5642328,7.2395836 4.91319781,7.50867818 4.37499991,8.04687608 C3.836802,8.58507107 3.56770743,9.23610606 3.56770743,10.0000015 C3.56770743,10.7638939 3.836802,11.4149289 4.37499991,11.9531239 C4.91319781,12.4913218 5.5642328,12.7604164 6.32812528,12.7604164 C7.09201777,12.7604164 7.74305276,12.4913218 8.28125066,11.9531239 C8.81944565,11.4149289 9.08854023,10.7638939 9.08854023,10.0000015 Z M16.4322926,10.0000015 C16.4322926,9.23610606 16.163198,8.58507107 15.6250001,8.04687608 C15.0868022,7.50867818 14.4357672,7.2395836 13.6718747,7.2395836 C12.9079822,7.2395836 12.2569472,7.50867818 11.7187493,8.04687608 C11.1805514,8.58507107 10.9114569,9.23610606 10.9114569,10.0000015 C10.9114569,10.7638939 11.1805514,11.4149289 11.7187493,11.9531239 C12.2569472,12.4913218 12.9079822,12.7604164 13.6718747,12.7604164 C14.4357672,12.7604164 15.0868022,12.4913218 15.6250001,11.9531239 C16.163198,11.4149289 16.4322926,10.7638939 16.4322926,10.0000015 Z" id="Page-1" fill="#4A4A4A"></path>
            <path d="M9.08854023,10.0000015 C9.08854023,9.23610606 8.81944565,8.58507107 8.28125066,8.04687608 C7.74305276,7.50867818 7.09201777,7.2395836 6.32812528,7.2395836 C5.5642328,7.2395836 4.91319781,7.50867818 4.37499991,8.04687608 C3.836802,8.58507107 3.56770743,9.23610606 3.56770743,10.0000015 C3.56770743,10.7638939 3.836802,11.4149289 4.37499991,11.9531239 C4.91319781,12.4913218 5.5642328,12.7604164 6.32812528,12.7604164 C7.09201777,12.7604164 7.74305276,12.4913218 8.28125066,11.9531239 C8.81944565,11.4149289 9.08854023,10.7638939 9.08854023,10.0000015 Z" id="Path" fill="#A2A1A1"></path>
        </g>
    </g>
</svg>