<svg xmlns="http://www.w3.org/2000/svg" viewBox="0 0 49 50"><path fill="#E9F2F6" d="M34.3 13.4c-.8-.5-1.5-1-2.4-1.5-1.8-1-3.8-1.6-5.9-1.7-4.4-.2-8.2 1.2-11.3 4.3-2.4 2.3-3.8 5.2-4.2 8.4-.6 4.8.8 9 4.2 12.5 2.3 2.4 5.2 3.8 8.5 4.2 3.4.4 6.6 0 9.6-1.7 3.1-1.7 5-4.3 5.7-7.7V30h-13c-.4 0-.4 0-.4-.4v-9.3h23.3c.1.5.2 1.1.3 1.6.7 5.3-.1 10.4-2.5 15.2-2.7 5.5-7.1 9.3-12.9 11.3-2.3.8-4.6 1.3-7 1.3-6.9.3-13-1.9-18.2-6.6-3.9-3.6-6.4-8-7.5-13.3-.4-1.9-.6-3.9-.5-5.9.2-6.1 2.3-11.4 6.4-16 3.7-4.2 8.4-6.8 13.9-7.8 2.4-.5 4.9-.6 7.4-.3 5.2.6 9.8 2.6 13.8 6-2.5 2.8-4.9 5.2-7.3 7.6z"/></svg>