<?xml version="1.0" encoding="utf-8"?>
<!-- Generator: Adobe Illustrator 19.2.1, SVG Export Plug-In . SVG Version: 6.00 Build 0)  -->
<!DOCTYPE svg PUBLIC "-//W3C//DTD SVG 1.1//EN" "http://www.w3.org/Graphics/SVG/1.1/DTD/svg11.dtd">
<svg version="1.1" id="Layer_1" xmlns="http://www.w3.org/2000/svg" xmlns:xlink="http://www.w3.org/1999/xlink" x="0px" y="0px"
	 viewBox="0 0 49 50" enable-background="new 0 0 49 50" xml:space="preserve">
<g>
	<path fill="#FFFFFF" d="M34.3,13.4c-0.8-0.5-1.5-1-2.4-1.5c-1.8-1-3.8-1.6-5.9-1.7c-4.4-0.2-8.2,1.2-11.3,4.3
		c-2.4,2.3-3.8,5.2-4.2,8.4c-0.6,4.8,0.8,9,4.2,12.5c2.3,2.4,5.2,3.8,8.5,4.2c3.4,0.4,6.6,0,9.6-1.7c3.1-1.7,5-4.3,5.7-7.7
		c0,0,0-0.1,0-0.2c-0.1,0-0.2,0-0.3,0c-4.2,0-8.4,0-12.7,0c-0.4,0-0.4,0-0.4-0.4c0-3,0-6,0-9c0-0.1,0-0.2,0-0.3c7.8,0,15.5,0,23.3,0
		c0.1,0.5,0.2,1.1,0.3,1.6c0.7,5.3-0.1,10.4-2.5,15.2c-2.7,5.5-7.1,9.3-12.9,11.3c-2.3,0.8-4.6,1.3-7,1.3c-6.9,0.3-13-1.9-18.2-6.6
		c-3.9-3.6-6.4-8-7.5-13.3c-0.4-1.9-0.6-3.9-0.5-5.9c0.2-6.1,2.3-11.4,6.4-16c3.7-4.2,8.4-6.8,13.9-7.8c2.4-0.5,4.9-0.6,7.4-0.3
		c5.2,0.6,9.8,2.6,13.8,6c0,0,0,0,0,0C39.1,8.6,36.7,11,34.3,13.4z"/>
</g>
</svg>
