<svg width="25" height="25" viewBox="0 0 25 25" xmlns="http://www.w3.org/2000/svg"><title>Github_hover</title><path d="M0 12.447c0 5.498 3.582 10.163 8.549 11.81.625.113.853-.27.853-.601 0-.295-.01-1.078-.017-2.116-3.477.751-4.21-1.67-4.21-1.67-.569-1.436-1.388-1.82-1.388-1.82-1.135-.772.086-.756.086-.756 1.254.088 1.914 1.283 1.914 1.283 1.115 1.901 2.926 1.352 3.638 1.034.114-.804.436-1.353.794-1.664-2.776-.314-5.694-1.382-5.694-6.151 0-1.359.487-2.47 1.287-3.34-.13-.315-.558-1.58.122-3.294 0 0 1.05-.335 3.438 1.276a11.988 11.988 0 0 1 3.129-.419c1.061.005 2.13.142 3.13.419 2.386-1.61 3.433-1.276 3.433-1.276.682 1.714.253 2.979.124 3.294.802.87 1.286 1.981 1.286 3.34 0 4.781-2.923 5.833-5.708 6.141.449.384.849 1.144.849 2.305 0 1.664-.016 3.006-.016 3.414 0 .333.225.72.86.599C21.422 22.605 25 17.944 25 12.447 25 5.572 19.403 0 12.5 0S0 5.572 0 12.447z" fill="#9B9B9B" fill-rule="evenodd"/></svg>