<?xml version="1.0" encoding="UTF-8"?>
<svg width="20px" height="20px" viewBox="0 0 20 20" version="1.1" xmlns="http://www.w3.org/2000/svg" xmlns:xlink="http://www.w3.org/1999/xlink">
    <!-- Generator: Sketch 42 (36781) - http://www.bohemiancoding.com/sketch -->
    <title>LinkedIn Copy 2</title>
    <desc>Created with Sketch.</desc>
    <defs></defs>
    <g id="Welcome" stroke="none" stroke-width="1" fill="none" fill-rule="evenodd">
        <g id="PostConf_Phase2_L" transform="translate(-253.000000, -1032.000000)" fill="#4A4A4A">
            <g id="SlideShareComp" transform="translate(249.000000, 1030.000000)">
                <g id="Subheading" transform="translate(4.000000, 0.000000)">
                    <g id="LinkedIn-Copy-2" transform="translate(0.000000, 2.000000)">
                        <path d="M17.0427778,17.0422222 L14.0772222,17.0422222 L14.0772222,12.4005556 C14.0772222,11.2938889 14.0577778,9.87 12.5355556,9.87 C10.9922222,9.87 10.7566667,11.0761111 10.7566667,12.3216667 L10.7566667,17.0422222 L7.79388889,17.0422222 L7.79388889,7.49777778 L10.6372222,7.49777778 L10.6372222,8.80277778 L10.6777778,8.80277778 C11.0733333,8.05222222 12.0416667,7.26111111 13.485,7.26111111 C16.4877778,7.26111111 17.0427778,9.23722222 17.0427778,11.8077778 L17.0427778,17.0422222 L17.0427778,17.0422222 Z M4.44888889,6.19388889 C3.49611111,6.19388889 2.72833333,5.42333333 2.72833333,4.47333333 C2.72833333,3.52388889 3.49611111,2.75333333 4.44888889,2.75333333 C5.39777778,2.75333333 6.16833333,3.52388889 6.16833333,4.47333333 C6.16833333,5.42333333 5.39777778,6.19388889 4.44888889,6.19388889 L4.44888889,6.19388889 Z M2.96388889,17.0422222 L5.93277778,17.0422222 L5.93277778,7.49777778 L2.96388889,7.49777778 L2.96388889,17.0422222 Z M18.52,0 L1.47555556,0 C0.661666667,0 0,0.645555556 0,1.44222222 L0,18.5566667 C0,19.3533333 0.661666667,20 1.47555556,20 L18.52,20 C19.3361111,20 19.9994444,19.3533333 19.9994444,18.5566667 L19.9994444,1.44222222 C19.9994444,0.645555556 19.3361111,0 18.52,0 L18.52,0 Z" id="Fill-10"></path>
                    </g>
                </g>
            </g>
        </g>
    </g>
</svg>