<?xml version="1.0" encoding="UTF-8" standalone="no"?>
<svg width="1416px" height="90px" viewBox="0 0 1416 90" version="1.1" xmlns="http://www.w3.org/2000/svg" xmlns:xlink="http://www.w3.org/1999/xlink">
    <!-- Generator: sketchtool 39.1 (31720) - http://www.bohemiancoding.com/sketch -->
    <title>B82AB96E-67CE-4558-AFF0-EE46519B45E7</title>
    <desc>Created with sketchtool.</desc>
    <defs></defs>
    <g id="500" stroke="none" stroke-width="1" fill="none" fill-rule="evenodd" opacity="0.3">
        <g id="500-Desktop" transform="translate(-24.000000, 0.000000)" stroke="#4A4A4A" stroke-width="0.5">
            <g id="Header" transform="translate(0.000000, -170.000000)">
                <g id="Group-12" transform="translate(351.500000, 234.000000) scale(-1, 1) translate(-351.500000, -234.000000) translate(-1011.000000, -1135.000000)">
                    <g id="circles" transform="translate(1362.500000, 1369.000000) scale(-1, 1) translate(-1362.500000, -1369.000000) ">
                        <path d="M1745.98812,1368.52322 C1745.98812,1579.77046 1574.73434,1751.02322 1363.48584,1751.02322 C1152.23734,1751.02322 980.988124,1579.77046 980.988124,1368.52322 C980.988124,1157.27598 1152.23734,986.023221 1363.48584,986.023221 C1574.73434,986.023221 1745.98812,1157.27598 1745.98812,1368.52322 L1745.98812,1368.52322 Z" id="Stroke-57"></path>
                        <path d="M1690.98812,1368.02322 C1690.98812,1549.17118 1544.35906,1696.02322 1363.48617,1696.02322 C1182.61327,1696.02322 1035.98812,1549.17118 1035.98812,1368.02322 C1035.98812,1186.87526 1182.61327,1040.02322 1363.48617,1040.02322 C1544.35906,1040.02322 1690.98812,1186.87526 1690.98812,1368.02322 L1690.98812,1368.02322 Z" id="Stroke-57"></path>
                        <path d="M1636.38569,1367.98811 C1636.38569,1518.83004 1514.11737,1641.1131 1363.29071,1641.1131 C1212.46536,1641.1131 1090.19574,1518.83004 1090.19574,1367.98811 C1090.19574,1217.14488 1212.46536,1094.86312 1363.29071,1094.86312 C1514.11737,1094.86312 1636.38569,1217.14488 1636.38569,1367.98811 L1636.38569,1367.98811 Z" id="Stroke-59"></path>
                        <path d="M1581.76669,1367.98811 C1581.76669,1488.66165 1483.95178,1586.48732 1363.2915,1586.48732 C1242.62991,1586.48732 1144.81499,1488.66165 1144.81499,1367.98811 C1144.81499,1247.31457 1242.62991,1149.4889 1363.2915,1149.4889 C1483.95178,1149.4889 1581.76669,1247.31457 1581.76669,1367.98811 L1581.76669,1367.98811 Z" id="Stroke-61"></path>
                        <path d="M1800,1368 C1800,1609.34652 1604.34535,1805 1362.99739,1805 C1121.64943,1805 926,1609.34652 926,1368 C926,1126.65348 1121.64943,931 1362.99739,931 C1604.34535,931 1800,1126.65348 1800,1368 L1800,1368 Z" id="Stroke-57"></path>
                        <path d="M1964,1368 C1964,1699.9205 1694.91889,1969 1362.99641,1969 C1031.07393,1969 762,1699.9205 762,1368 C762,1036.0795 1031.07393,767 1362.99641,767 C1694.91889,767 1964,1036.0795 1964,1368 L1964,1368 Z" id="Stroke-57"></path>
                        <path d="M1909,1368.5 C1909,1670.32122 1664.54362,1915 1362.99674,1915 C1061.44986,1915 817,1670.32122 817,1368.5 C817,1066.67878 1061.44986,822 1362.99674,822 C1664.54362,822 1909,1066.67878 1909,1368.5 L1909,1368.5 Z" id="Stroke-57"></path>
                        <path d="M1855,1367.5 C1855,1638.9458 1634.94448,1859 1363.49706,1859 C1092.04965,1859 872,1638.9458 872,1367.5 C872,1096.0542 1092.04965,876 1363.49706,876 C1634.94448,876 1855,1096.0542 1855,1367.5 L1855,1367.5 Z" id="Stroke-57"></path>
                        <path d="M2019,1367.5 C2019,1729.51977 1725.51802,2023 1363.49608,2023 C1001.47415,2023 708,1729.51977 708,1367.5 C708,1005.48023 1001.47415,712 1363.49608,712 C1725.51802,712 2019,1005.48023 2019,1367.5 L2019,1367.5 Z" id="Stroke-57"></path>
                        <path d="M2073,1368 C2073,1760.11905 1755.11716,2078 1362.99576,2078 C970.874362,2078 653,1760.11905 653,1368 C653,975.880946 970.874362,658 1362.99576,658 C1755.11716,658 2073,975.880946 2073,1368 L2073,1368 Z" id="Stroke-57"></path>
                        <path d="M2128,1368 C2128,1790.49447 1785.71629,2133 1363.49543,2133 C941.274577,2133 599,1790.49447 599,1368 C599,945.505526 941.274577,603 1363.49543,603 C1785.71629,603 2128,945.505526 2128,1368 L2128,1368 Z" id="Stroke-57"></path>
                        <path d="M2183,1368.5 C2183,1821.09375 1816.09156,2188 1363.4951,2188 C910.898647,2188 544,1821.09375 544,1368.5 C544,915.906247 910.898647,549 1363.4951,549 C1816.09156,549 2183,915.906247 2183,1368.5 L2183,1368.5 Z" id="Stroke-57"></path>
                        <path d="M2237,1368 C2237,1850.69303 1845.6907,2242 1362.99478,2242 C880.298862,2242 489,1850.69303 489,1368 C489,885.306967 880.298862,494 1362.99478,494 C1845.6907,494 2237,885.306967 2237,1368 L2237,1368 Z" id="Stroke-57"></path>
                        <path d="M2292,1367.5 C2292,1880.29231 1876.28983,2296 1363.49445,2296 C850.699077,2296 435,1880.29231 435,1367.5 C435,854.707688 850.699077,439 1363.49445,439 C1876.28983,439 2292,854.707688 2292,1367.5 L2292,1367.5 Z" id="Stroke-57"></path>
                        <path d="M2398,1368.5 C2398,1943.14771 1934.38354,2409 1362.49381,2409 C790.604086,2409 327,1943.14771 327,1368.5 C327,793.852288 790.604086,328 1362.49381,328 C1934.38354,328 2398,793.852288 2398,1368.5 L2398,1368.5 Z" id="Stroke-57"></path>
                        <path d="M2344,1368.5 C2344,1912.77229 1904.78441,2354 1362.99414,2354 C821.203871,2354 382,1912.77229 382,1368.5 C382,824.227707 821.203871,383 1362.99414,383 C1904.78441,383 2344,824.227707 2344,1368.5 L2344,1368.5 Z" id="Stroke-57"></path>
                        <path d="M1363.2911,1531.86285 C1272.79589,1531.86285 1199.43438,1458.49327 1199.43438,1367.98811 C1199.43438,1277.48295 1272.79589,1204.11338 1363.2911,1204.11338 C1453.78631,1204.11338 1527.14783,1277.48295 1527.14783,1367.98811 C1527.14783,1458.49327 1453.78631,1531.86285 1363.2911,1531.86285 Z" id="Stroke-63"></path>
                        <path d="M1418,1367.5 C1418,1397.59928 1393.59913,1422 1363.49967,1422 C1333.40022,1422 1309,1397.59928 1309,1367.5 C1309,1337.40072 1333.40022,1313 1363.49967,1313 C1393.59913,1313 1418,1337.40072 1418,1367.5 L1418,1367.5 Z" id="Stroke-57"></path>
                        <path d="M1472,1368.5 C1472,1428.9747 1423.19827,1478 1362.99935,1478 C1302.80043,1478 1254,1428.9747 1254,1368.5 C1254,1308.0253 1302.80043,1259 1362.99935,1259 C1423.19827,1259 1472,1308.0253 1472,1368.5 L1472,1368.5 Z" id="Stroke-57"></path>
                        <path d="M2725,1369 C2725,2125.07181 2114.97834,2738 1362.49186,2738 C610.005377,2738 0,2125.07181 0,1369 C0,612.92819 610.005377,0 1362.49186,0 C2114.97834,0 2725,612.92819 2725,1369 L2725,1369 Z" id="Stroke-57"></path>
                        <path d="M2671,1368 C2671,2093.69639 2085.37921,2682 1362.99219,2682 C640.605162,2682 55,2093.69639 55,1368 C55,642.30361 640.605162,54 1362.99219,54 C2085.37921,54 2671,642.30361 2671,1368 L2671,1368 Z" id="Stroke-57"></path>
                        <path d="M2616,1368.5 C2616,2064.09711 2054.78008,2628 1362.49251,2628 C670.204947,2628 109,2064.09711 109,1368.5 C109,672.902889 670.204947,109 1362.49251,109 C2054.78008,109 2616,672.902889 2616,1368.5 L2616,1368.5 Z" id="Stroke-57"></path>
                        <path d="M2562,1368.5 C2562,2033.72169 2025.18094,2573 1362.99284,2573 C700.804732,2573 164,2033.72169 164,1368.5 C164,703.278309 700.804732,164 1362.99284,164 C2025.18094,164 2562,703.278309 2562,1368.5 L2562,1368.5 Z" id="Stroke-57"></path>
                        <path d="M2510,1368 C2510,2001.46557 1996.4625,2515 1362.99315,2515 C729.523792,2515 216,2001.46557 216,1368 C216,734.534429 729.523792,221 1362.99315,221 C1996.4625,221 2510,734.534429 2510,1368 L2510,1368 Z" id="Stroke-57"></path>
                        <path d="M2453,1368 C2453,1972.74699 1964.98267,2463 1362.99349,2463 C761.004301,2463 273,1972.74699 273,1368 C273,763.253008 761.004301,273 1362.99349,273 C1964.98267,273 2453,763.253008 2453,1368 L2453,1368 Z" id="Stroke-57"></path>
                    </g>
                </g>
            </g>
        </g>
    </g>
</svg>