<?xml version="1.0" encoding="UTF-8" standalone="no"?>
<svg width="272px" height="272px" viewBox="0 0 272 272" version="1.1" xmlns="http://www.w3.org/2000/svg" xmlns:xlink="http://www.w3.org/1999/xlink">
    <!-- Generator: Sketch 39.1 (31720) - http://www.bohemiancoding.com/sketch -->
    <title>match react</title>
    <desc>Created with Sketch.</desc>
    <defs>
        <path d="M136.001365,0.273309387 C61.1654767,0.273309387 0.5,60.9346182 0.5,135.77604 C0.5,210.607221 61.1654767,271.273309 136.001365,271.273309 C210.833841,271.273309 271.5,210.607221 271.5,135.77604 C271.5,60.9346182 210.833841,0.273309387 136.001365,0.273309387" id="path-1"></path>
        <polygon id="path-3" points="0 217.538474 249.759677 217.538474 249.759677 0.32926856 2.73236435e-20 0.32926856"></polygon>
    </defs>
    <g id="500" stroke="none" stroke-width="1" fill="none" fill-rule="evenodd">
        <g id="500-Desktop" transform="translate(-582.000000, -268.000000)">
            <g id="match-react" transform="translate(582.000000, 268.000000)">
                <g id="match">
                    <mask id="mask-2" fill="white">
                        <use xlink:href="#path-1"></use>
                    </mask>
                    <use id="Fill-1" fill="#979797" xlink:href="#path-1"></use>
                    <path d="M124.61335,179.218602 L124.61335,272.232418 C128.525693,272.402388 132.478904,272.493856 136.475756,272.493856 C140.467065,272.493856 144.414736,272.402388 148.318766,272.23382 L148.318766,179.218602 L124.61335,179.218602 Z" id="Fill-3" fill="#E0AF4C" mask="url(#mask-2)"></path>
                    <path d="M124.61335,179.218602 L124.61335,272.232418 C128.277015,272.391174 131.981549,272.478787 135.720718,272.4886 L135.720718,179.218602 L124.61335,179.218602 Z" id="Fill-5" fill="#EDC988" mask="url(#mask-2)"></path>
                </g>
                <g id="React" transform="translate(6.000000, 24.000000)">
                    <g id="Group" transform="translate(5.000000, 3.441333)">
                        <g id="Group-5">
                            <mask id="mask-4" fill="white">
                                <use xlink:href="#path-3"></use>
                            </mask>
                            <g id="Clip-4"></g>
                            <path d="M249.759677,108.934599 C249.759677,91.9752102 228.929032,77.2878365 196.580242,68.5010069 C197.977419,63.2186712 199.102419,58.072184 199.902823,53.1225784 C203.9875,27.886284 199.517742,10.202371 187.320161,3.32332493 C175.120565,-3.55178352 157.203226,1.51004461 136.8625,17.5814966 C132.870565,20.7355412 128.866532,24.263661 124.880645,28.0890721 C120.892742,24.263661 116.88871,20.7355412 112.896774,17.5814966 C92.5580645,1.51004461 74.6346774,-3.55572116 62.4391129,3.32332493 C50.2415323,10.202371 45.7717742,27.886284 49.8564516,53.1225784 C50.6568548,58.072184 51.7818548,63.2186712 53.1790323,68.5010069 C20.8302419,77.2878365 -0.000403225804,91.9752102 -0.000403225804,108.934599 C-0.000403225804,125.893987 20.8302419,140.581361 53.1790323,149.36819 C51.7818548,154.650526 50.6568548,159.797013 49.8564516,164.746619 C45.7717742,189.982913 50.2415323,207.666826 62.4391129,214.545872 C65.9935484,216.548159 70.0318548,217.538474 74.4754032,217.538474 C85.2818548,217.538474 98.4814516,211.679275 112.896774,200.287701 C116.88871,197.133656 120.892742,193.605536 124.880645,189.780125 C128.866532,193.605536 132.870565,197.133656 136.8625,200.287701 C151.277823,211.679275 164.475403,217.538474 175.285887,217.538474 C179.727419,217.538474 183.767742,216.548159 187.320161,214.545872 C199.517742,207.666826 203.9875,189.982913 199.902823,164.746619 C199.102419,159.797013 197.977419,154.650526 196.580242,149.36819 C228.929032,140.581361 249.759677,125.893987 249.759677,108.934599 M141.541935,23.2280633 C154.507661,12.9823404 166.27379,7.60156395 175.247581,7.60156395 C178.39879,7.60156395 181.207258,8.26505523 183.600403,9.61566359 C192.810081,14.8054648 196.074194,30.250833 192.558065,51.9905087 C191.791935,56.7156692 190.719355,61.6318049 189.382661,66.6818201 C178.354435,64.1144829 166.175,62.2047306 153.170968,61.0628168 C145.769758,50.8033122 137.991532,41.441588 130.084274,33.2729669 C133.89879,29.6129364 137.727419,26.2403531 141.541935,23.2280633 M161.983468,129.855246 C157.864516,136.82092 153.535887,143.514898 149.060081,149.876145 C141.354435,150.456946 133.287903,150.773926 124.880645,150.773926 C116.471371,150.773926 108.404839,150.456946 100.699194,149.876145 C96.2233871,143.514898 91.8947581,136.82092 87.7758065,129.855246 C83.6608871,122.895479 79.8927419,115.894366 76.4915323,108.934599 C79.8927419,101.974831 83.6608871,94.9737183 87.7758065,88.0139507 C91.8947581,81.0482767 96.2233871,74.3562682 100.699194,67.9930521 C108.404839,67.4142199 116.471371,67.0952716 124.880645,67.0952716 C133.287903,67.0952716 141.354435,67.4142199 149.060081,67.9930521 C153.535887,74.3562682 157.864516,81.0482767 161.983468,88.0139507 C166.098387,94.9737183 169.866532,101.974831 173.267742,108.934599 C169.866532,115.894366 166.098387,122.895479 161.983468,129.855246 M177.26371,117.479264 C181.342339,126.596855 184.741532,135.574659 187.390726,144.215797 C178.654839,146.23974 169.02379,147.864014 158.630645,148.992146 C161.999597,143.991351 165.27379,138.813363 168.425,133.485745 C171.570161,128.166002 174.517742,122.818695 177.26371,117.479264 M124.880645,179.406429 C118.554032,172.854207 112.304032,165.506582 106.267742,157.513186 C112.330242,157.85576 118.539919,158.036891 124.880645,158.036891 C131.219355,158.036891 137.429032,157.85576 143.491532,157.513186 C137.455242,165.506582 131.207258,172.854207 124.880645,179.406429 M91.128629,148.992146 C80.7354839,147.864014 71.1064516,146.23974 62.3705645,144.215797 C65.0177419,135.574659 68.4169355,126.596855 72.4955645,117.479264 C75.2415323,122.818695 78.1891129,128.166002 81.3342742,133.485745 C84.4854839,138.813363 87.7596774,143.991351 91.128629,148.992146 M72.4955645,100.389933 C68.4169355,91.2723426 65.0177419,82.2945377 62.3705645,73.6534006 C71.1064516,71.6294568 80.7354839,70.0051829 91.128629,68.8770509 C87.7596774,73.8778457 84.4854839,79.055834 81.3342742,84.3834524 C78.1891129,89.7031955 75.2415323,95.0505021 72.4955645,100.389933 M124.880645,38.4627681 C131.207258,45.0149906 137.455242,52.3626151 143.491532,60.3560115 C137.429032,60.0134374 131.219355,59.8323062 124.880645,59.8323062 C118.539919,59.8323062 112.330242,60.0134374 106.267742,60.3560115 C112.304032,52.3626151 118.554032,45.0149906 124.880645,38.4627681 M168.425,84.3834524 C165.27379,79.055834 161.999597,73.8778457 158.630645,68.8770509 C169.02379,70.0051829 178.654839,71.6294568 187.390726,73.6534006 C184.741532,82.2945377 181.342339,91.2723426 177.26371,100.389933 C174.517742,95.0505021 171.570161,89.7031955 168.425,84.3834524 M57.2032258,51.9905087 C53.6850806,30.250833 56.9491935,14.8054648 66.158871,9.61566359 C68.5540323,8.26505523 71.3584677,7.60156395 74.5116935,7.60156395 C83.4834677,7.60156395 95.2516129,12.9843092 108.217339,23.2280633 C112.031855,26.2403531 115.860484,29.6129364 119.677016,33.2729669 C111.767742,41.441588 103.989516,50.8033122 96.5883065,61.0628168 C83.5862903,62.2047306 71.4048387,64.1144829 60.3766129,66.6818201 C59.0419355,61.6318049 57.9673387,56.7156692 57.2032258,51.9905087 M7.4391129,108.934599 C7.4391129,96.5389277 25.2193548,83.6156138 55.1669355,75.4686497 C58.4612903,86.2557972 62.878629,97.5292425 68.283871,108.934599 C62.878629,120.339955 58.4612903,131.6134 55.1669355,142.400547 C25.2193548,134.253583 7.4391129,121.330269 7.4391129,108.934599 M108.217339,194.641134 C90.6971774,208.485854 75.3705645,213.45121 66.158871,208.253534 C56.9491935,203.063732 53.6850806,187.618364 57.2032258,165.878688 C57.9673387,161.153528 59.0419355,156.237392 60.3766129,151.187377 C71.4048387,153.754714 83.5862903,155.664467 96.5883065,156.80638 C103.989516,167.065885 111.767742,176.427609 119.677016,184.59623 C115.860484,188.256261 112.031855,191.628844 108.217339,194.641134 M192.558065,165.878688 C196.074194,187.618364 192.810081,203.063732 183.600403,208.253534 C174.392742,213.447272 159.062097,208.483885 141.541935,194.641134 C137.727419,191.628844 133.89879,188.256261 130.084274,184.59623 C137.991532,176.427609 145.769758,167.065885 153.170968,156.80638 C166.175,155.664467 178.354435,153.754714 189.382661,151.187377 C190.719355,156.237392 191.791935,161.153528 192.558065,165.878688 M194.592339,142.400547 C191.3,131.6134 186.880645,120.339955 181.477419,108.934599 C186.880645,97.5292425 191.3,86.2557972 194.592339,75.4686497 C224.539919,83.6156138 242.322177,96.5389277 242.322177,108.934599 C242.322177,121.330269 224.539919,134.253583 194.592339,142.400547" id="Fill-3" fill="#FFFFFF" mask="url(#mask-4)"></path>
                        </g>
                    </g>
                </g>
            </g>
        </g>
    </g>
</svg>