<?xml version="1.0" encoding="UTF-8" standalone="no"?>
<svg width="24px" height="31px" viewBox="0 0 24 31" version="1.1" xmlns="http://www.w3.org/2000/svg" xmlns:xlink="http://www.w3.org/1999/xlink">
    <!-- Generator: Sketch 3.8.3 (29802) - http://www.bohemiancoding.com/sketch -->
    <title>Location (blue)</title>
    <desc>Created with Sketch.</desc>
    <defs></defs>
    <g id="Welcome" stroke="none" stroke-width="1" fill="none" fill-rule="evenodd">
        <g id="Conference-Desktop-HD" transform="translate(-250.000000, -702.000000)" stroke="#4A4A4A" fill="#C6DDE7">
            <g id="Next-Event" transform="translate(250.000000, 595.000000)">
                <g id="React-London-2017">
                    <g id="Location-(blue)" transform="translate(2.000000, 109.000000)">
                        <g id="Place">
                            <g id="Location-White-Copy" stroke-width="3">
                                <g id="Group-3-Copy">
                                    <path d="M0.100940623,10.2341793 C0.100940623,12.6806601 1.00081651,14.9153519 2.48470275,16.6310243 L9.88640913,26.200159 L17.2881155,16.6310243 C18.7720017,14.9153519 19.6718776,12.6806601 19.6718776,10.2341793 C19.6718776,4.82992473 15.2906637,0.448710838 9.88640913,0.448710838 C4.48215452,0.448710838 0.100940623,4.82992473 0.100940623,10.2341793 Z" id="Stroke-31"></path>
                                    <path d="M10,14.375 C11.863961,14.375 13.375,12.863961 13.375,11 C13.375,9.13603897 11.863961,7.625 10,7.625 C8.13603897,7.625 6.625,9.13603897 6.625,11 C6.625,12.863961 8.13603897,14.375 10,14.375 Z" id="Oval-1"></path>
                                </g>
                            </g>
                        </g>
                    </g>
                </g>
            </g>
        </g>
    </g>
</svg>