<?xml version="1.0" encoding="utf-8"?>
<!-- Generator: Adobe Illustrator 19.2.1, SVG Export Plug-In . SVG Version: 6.00 Build 0)  -->
<!DOCTYPE svg PUBLIC "-//W3C//DTD SVG 1.1//EN" "http://www.w3.org/Graphics/SVG/1.1/DTD/svg11.dtd">
<svg version="1.1" id="Layer_1" xmlns="http://www.w3.org/2000/svg" xmlns:xlink="http://www.w3.org/1999/xlink" x="0px" y="0px"
	 viewBox="0 0 45 55" enable-background="new 0 0 45 55" xml:space="preserve">
<g>
	<path fill="#1D1D1C" d="M34.9,18.9c4.2-2.1,8.6-4.8,8.7-6.9c0.4-4.8-12-9.9-20.4-10c-5.8-0.1-13.3,2.9-16,7.6
		C6.8,9.5,6.3,9.4,5.9,9.4c-3-0.2-5.7,2.1-5.9,5.1c-0.2,2.2,1,4.1,2.7,5.1c-4.2,13.2-0.4,25.8,5.5,31.9c2.1,2.2,3.7,3.1,6.8,3.2
		c2.6,0,3.4-0.6,3.1-2c-0.1-0.9-0.3-2-0.3-3.2c0-0.3,0.1-0.7,0.6-0.7c0.8,0.1,1.6,0.1,2.5,0.1c0.6,0,0.8,0.1,0.7,0.7
		c-0.1,1.2-0.3,2.3-0.4,3.1c-0.2,1.3,0.3,2,3.1,2c3.5,0,5-0.8,6.8-2.7c1.4-1.5,2.5-3.4,3.5-5.5c0.3-0.7,1.1-1.9,1.5-2.4
		c2.2-2.7,3.3-5.3,3.7-7.7c0.2-1.2,0.7-1.4,1.5-1.3c1,0.1,2.1,0,3-0.6c1-0.6,1.1-1-0.1-1.5C38.2,30.2,37.3,23.7,34.9,18.9z"/>
	<circle fill="#1D1D1C" cx="18.6" cy="3.3" r="3"/>
	<path fill="#FFFFFF" d="M37.5,13.2c-0.5-0.9,0-2.2,1.1-2.9c0.5-0.4,0.5-0.6,0-1c-9.8-6.4-20.3-5.6-26-1.8c-0.7,0.4-0.5,0.9,0.2,0.7
		c6.9-1.9,19.6-0.4,21.3,3.1c1.1,2.2-17.6,1.2-27.6,8c-1.1,0.8-1.6,1.5-2,2.8c-1.1,4-1.7,8.2-1.2,11.6c0.2,1.2,0.8,1,1.2,0.2
		c1.5-3.4,5.1-7.4,8.8-9.5c4.5-2.6,7.7-3.9,12.7-4.9c3.1-0.6,7.9-2.6,11.7-5c0.4-0.3,0.4-0.5,0-0.9C37.6,13.4,37.6,13.3,37.5,13.2z"
		/>
</g>
<g>
	<g>
		<defs>
			<rect id="SVGID_1_" x="-93.7" y="-785" width="1440" height="1024"/>
		</defs>
		<clipPath id="SVGID_2_">
			<use xlink:href="#SVGID_1_"  overflow="visible"/>
		</clipPath>
	</g>
</g>
</svg>
