<?xml version="1.0" encoding="utf-8"?>
<!-- Generator: Adobe Illustrator 19.2.1, SVG Export Plug-In . SVG Version: 6.00 Build 0)  -->
<!DOCTYPE svg PUBLIC "-//W3C//DTD SVG 1.1//EN" "http://www.w3.org/Graphics/SVG/1.1/DTD/svg11.dtd">
<svg version="1.1" id="Layer_1" xmlns="http://www.w3.org/2000/svg" xmlns:xlink="http://www.w3.org/1999/xlink" x="0px" y="0px"
	 viewBox="0 0 60 65" enable-background="new 0 0 60 65" xml:space="preserve">
<g>
	<g>
		<defs>
			<rect id="SVGID_1_" x="-450" y="-780" width="1440" height="1024"/>
		</defs>
		<clipPath id="SVGID_2_">
			<use xlink:href="#SVGID_1_"  overflow="visible"/>
		</clipPath>
	</g>
</g>
<text transform="matrix(1 0 0 1 28.4517 43.6788)" fill="#FFFFFF" font-family="'ObjektivMk1Trial-Bold'" font-size="21px">6</text>
<g>
	<path fill="#4A4A4A" d="M57,8v54H3V8H57 M60,5H0v60h60V5L60,5z"/>
</g>
<g>
	<rect x="10.3" y="19.5" fill-rule="evenodd" clip-rule="evenodd" fill="#FFFFFF" width="38.9" height="34.9"/>
	<path fill="#4A4A4A" d="M47.7,21v31.9H11.8V21H47.7 M50.7,18h-42v38h42V18L50.7,18z"/>
</g>
<line fill="none" stroke="#4A4A4A" stroke-width="3.3271" stroke-miterlimit="10" x1="10.2" y1="0" x2="10.2" y2="12"/>
<line fill="none" stroke="#4A4A4A" stroke-width="3.3271" stroke-miterlimit="10" x1="30" y1="0" x2="30" y2="12"/>
<line fill="none" stroke="#4A4A4A" stroke-width="3.3271" stroke-miterlimit="10" x1="49.3" y1="0" x2="49.3" y2="12"/>
<g>
	<path fill="#4A4A4A" d="M21.9,31.6l-4.2,1.9l-0.5-2.7l5.4-2.4H25v16.4h-3.1V31.6z"/>
	<path fill="#4A4A4A" d="M34.5,45.1c-1.8,0-3.2-0.5-4.3-1.6c-1.1-1-1.6-2.4-1.6-4.2c0-1.8,0.6-3.7,1.7-5.7c1.1-2,2.6-3.8,4.4-5.3
		l3.8,0.1c-2.8,2.3-4.7,4.6-5.8,6.8c0.6-0.5,1.5-0.8,2.6-0.8c0.9,0,1.7,0.2,2.5,0.6c0.8,0.4,1.4,1,1.8,1.8c0.5,0.8,0.7,1.7,0.7,2.7
		c0,1-0.2,2-0.7,2.8c-0.5,0.8-1.2,1.5-2,2C36.7,44.9,35.6,45.1,34.5,45.1z M34.5,42.5c0.8,0,1.4-0.3,2-0.8s0.8-1.2,0.8-2
		c0-0.8-0.3-1.5-0.8-2c-0.5-0.5-1.2-0.8-2-0.8c-0.8,0-1.5,0.3-2,0.8c-0.5,0.5-0.8,1.2-0.8,2c0,0.8,0.3,1.5,0.8,2
		C33,42.3,33.7,42.5,34.5,42.5z"/>
</g>
</svg>
