<svg xmlns="http://www.w3.org/2000/svg" viewBox="0 0 320 498"><g fill="none" stroke="#4A4A4A" stroke-width="3" stroke-miterlimit="10"><path d="M45 30.8l-2.9 2.7"/><path stroke-dasharray="7.755,3.8775" d="M39.3 36.2L-229.3 291"/></g><g fill="none" stroke="#4A4A4A" stroke-width="3" stroke-miterlimit="10"><path d="M45 30.8l3.7-1"/><path stroke-dasharray="7.8462,3.9231" d="M52.5 28.8L482.8-85.7"/></g><g fill="none" stroke="#4A4A4A" stroke-width="3" stroke-miterlimit="10"><path d="M45 30.8l3.5 1.7"/><path stroke-dasharray="7.8189,3.9094" d="M52 34.2l136.1 64.4"/><path d="M189.8 99.4l3.5 1.7"/></g><g fill="none" stroke="#4A4A4A" stroke-width="3" stroke-miterlimit="10"><path d="M45 30.8l1.8-3.4"/><path stroke-dasharray="7.7242,3.8621" d="M48.6 24l108.2-202.8"/></g><g fill="none" stroke="#4A4A4A" stroke-width="3" stroke-miterlimit="10"><path d="M45 30.8l2.8-2.6"/><path stroke-dasharray="7.7798,3.8899" d="M50.7 25.6l419.9-385.3"/></g><g fill="none" stroke="#4A4A4A" stroke-width="3" stroke-miterlimit="10"><path d="M66.8 223.2l-.4-3.9"/><path stroke-dasharray="7.7671,3.8835" d="M65.9 215.5L45 30.8C-41.7-69.4-222.2-59.9-228.2 82.9"/></g><path fill="none" stroke="#4A4A4A" stroke-width="3" stroke-miterlimit="10" stroke-dasharray="7.8096,3.9048" d="M359.3-100C169.3-189.1 45 30.8 45 30.8c-34.5 109.3 54.7 166.6 121.7 136s63.1-123 27.3-155.5M45 30.8l-443.2-142.5M45 30.8S-1.9-34.9 30.7-74.6s63.1-83.3-19.5-156.2"/><circle fill="#4A4A4A" cx="45.6" cy="30.2" r="9.2"/><circle fill="#4A4A4A" cx="194" cy="11.3" r="5.5"/><circle fill="#4A4A4A" cx="193.3" cy="101.1" r="5.5"/><circle fill="#4A4A4A" cx="66.8" cy="223.2" r="5.5"/><circle opacity=".2" fill="none" stroke="#4A4A4A" stroke-width=".5" stroke-miterlimit="10" cx="45" cy="30.8" r="108.9"/><circle opacity=".2" fill="none" stroke="#4A4A4A" stroke-width=".5" stroke-miterlimit="10" cx="45" cy="30.8" r="1416.1"/><circle opacity=".2" fill="none" stroke="#4A4A4A" stroke-width=".5" stroke-miterlimit="10" cx="45" cy="30.8" r="1361.7"/><circle opacity=".2" fill="none" stroke="#4A4A4A" stroke-width=".5" stroke-miterlimit="10" cx="45" cy="30.8" r="1307.2"/><circle opacity=".2" fill="none" stroke="#4A4A4A" stroke-width=".5" stroke-miterlimit="10" cx="45" cy="30.8" r="1252.7"/><circle opacity=".2" fill="none" stroke="#4A4A4A" stroke-width=".5" stroke-miterlimit="10" cx="45" cy="30.8" r="1198.3"/><circle opacity=".2" fill="none" stroke="#4A4A4A" stroke-width=".5" stroke-miterlimit="10" cx="45" cy="30.8" r="1143.8"/><circle opacity=".2" fill="none" stroke="#4A4A4A" stroke-width=".5" stroke-miterlimit="10" cx="45" cy="30.8" r="1089.3"/><circle opacity=".2" fill="none" stroke="#4A4A4A" stroke-width=".5" stroke-miterlimit="10" cx="45" cy="30.8" r="1034.9"/><circle opacity=".2" fill="none" stroke="#4A4A4A" stroke-width=".5" stroke-miterlimit="10" cx="45" cy="30.8" r="980.4"/><circle opacity=".2" fill="none" stroke="#4A4A4A" stroke-width=".5" stroke-miterlimit="10" cx="45" cy="30.8" r="925.9"/><circle opacity=".2" fill="none" stroke="#4A4A4A" stroke-width=".5" stroke-miterlimit="10" cx="45" cy="30.8" r="871.5"/><circle opacity=".2" fill="none" stroke="#4A4A4A" stroke-width=".5" stroke-miterlimit="10" cx="45" cy="30.8" r="817"/><circle opacity=".2" fill="none" stroke="#4A4A4A" stroke-width=".5" stroke-miterlimit="10" cx="45" cy="30.8" r="54.5"/><circle opacity=".2" fill="none" stroke="#4A4A4A" stroke-width=".5" stroke-miterlimit="10" cx="45" cy="30.8" r="272.3"/><circle opacity=".2" fill="none" stroke="#4A4A4A" stroke-width=".5" stroke-miterlimit="10" cx="45" cy="30.8" r="217.9"/><circle opacity=".2" fill="none" stroke="#4A4A4A" stroke-width=".5" stroke-miterlimit="10" cx="45" cy="30.8" r="163.4"/><circle opacity=".2" fill="none" stroke="#4A4A4A" stroke-width=".5" stroke-miterlimit="10" cx="45" cy="30.8" r="762.5"/><circle opacity=".2" fill="none" stroke="#4A4A4A" stroke-width=".5" stroke-miterlimit="10" cx="45" cy="30.8" r="708.1"/><circle opacity=".2" fill="none" stroke="#4A4A4A" stroke-width=".5" stroke-miterlimit="10" cx="45" cy="30.8" r="653.6"/><circle opacity=".2" fill="none" stroke="#4A4A4A" stroke-width=".5" stroke-miterlimit="10" cx="45" cy="30.8" r="599.1"/><circle opacity=".2" fill="none" stroke="#4A4A4A" stroke-width=".5" stroke-miterlimit="10" cx="45" cy="30.8" r="544.7"/><circle opacity=".2" fill="none" stroke="#4A4A4A" stroke-width=".5" stroke-miterlimit="10" cx="45" cy="30.8" r="490.2"/><circle opacity=".2" fill="none" stroke="#4A4A4A" stroke-width=".5" stroke-miterlimit="10" cx="45" cy="30.8" r="435.7"/><circle opacity=".2" fill="none" stroke="#4A4A4A" stroke-width=".5" stroke-miterlimit="10" cx="45" cy="30.8" r="381.3"/><circle opacity=".2" fill="none" stroke="#4A4A4A" stroke-width=".5" stroke-miterlimit="10" cx="45" cy="30.8" r="326.8"/><g fill="none" stroke="#4A4A4A" stroke-width="3" stroke-miterlimit="10"><path d="M45 30.8l3.9.1"/><path stroke-dasharray="7.7869,3.8935" d="M52.8 31.1l920.3 28.5"/></g><g fill="none" stroke="#4A4A4A" stroke-width="3" stroke-miterlimit="10"><path d="M45 30.8l-1.2-3.7"/><path stroke-dasharray="7.8784,3.9392" d="M42.7 23.3l-84.6-281"/></g><g fill="none" stroke="#4A4A4A" stroke-width="3" stroke-miterlimit="10"><path d="M45 30.8l2.2 3.2"/><path stroke-dasharray="7.991,3.9955" d="M49.4 37.3l107.3 156.6"/><path d="M157.8 195.6l2.2 3.2"/></g><g fill="#C6DDE7"><path d="M180.2 245.3c-5.7 0-12.9-3.7-20.2-10.6-7.4 6.8-14.5 10.6-20.2 10.6-2.1 0-4.1-.5-5.8-1.5-6.4-3.7-8.2-13.5-5.1-27.1-13.3-4.1-20.9-10.6-20.9-18s7.6-13.9 20.9-18c-3.1-13.6-1.3-23.4 5.1-27.1 1.7-1 3.7-1.5 5.8-1.5 4.8 0 10.6 2.6 16.6 7.5 1.2.9 2.3 2 3.5 3.1 1.2-1.1 2.4-2.2 3.5-3.1 6.1-4.9 11.8-7.5 16.6-7.5 2.1 0 4.1.5 5.8 1.5 6.4 3.7 8.2 13.5 5.1 27.1 13.3 4.1 20.9 10.6 20.9 18s-7.6 13.9-20.9 18c3.1 13.6 1.3 23.4-5.1 27.1-1.5 1-3.4 1.5-5.6 1.5z"/><path d="M139.8 154.3c4.3 0 9.6 2.4 15.4 7.1 1.6 1.3 3.2 2.7 4.8 4.3 1.6-1.6 3.2-3 4.8-4.3 5.8-4.7 11.1-7.1 15.4-7.1 1.8 0 3.4.4 4.8 1.2 6 3.5 7.1 13.7 3.7 26.7 13 3.6 21.3 9.6 21.3 16.6 0 7-8.3 13-21.3 16.6 3.4 13 2.3 23.2-3.7 26.7-1.4.8-3 1.2-4.8 1.2-5.7 0-12.9-4.2-20.2-11.4-7.3 7.2-14.6 11.4-20.2 11.4-1.7 0-3.3-.4-4.8-1.2-6-3.5-7.1-13.7-3.7-26.7-13-3.6-21.3-9.6-21.3-16.6 0-7 8.3-13 21.3-16.6-3.4-13-2.3-23.2 3.7-26.7 1.4-.8 3-1.2 4.8-1.2m0-4c-2.5 0-4.8.6-6.8 1.8-6.9 4-9.2 13.9-6.4 27.5-13.1 4.4-20.6 11.3-20.6 19.3s7.4 14.9 20.6 19.3c-2.8 13.6-.5 23.5 6.4 27.5 2 1.2 4.3 1.7 6.8 1.7 7.2 0 14.6-4.9 20.2-9.9 5.6 5 13 9.9 20.2 9.9 2.5 0 4.8-.6 6.8-1.7 6.9-4 9.2-13.9 6.4-27.5 13.1-4.4 20.6-11.3 20.6-19.3s-7.4-14.9-20.6-19.3c2.8-13.6.5-23.5-6.4-27.5-2-1.2-4.3-1.8-6.8-1.8-5.3 0-11.4 2.7-17.9 8-.8.6-1.5 1.3-2.3 1.9-.8-.7-1.5-1.3-2.3-1.9-6.5-5.3-12.5-8-17.9-8z"/></g><g fill="#4A4A4A"><circle cx="160" cy="198.8" r="9.2"/><path d="M210 198.8c0-7-8.3-13-21.3-16.6 3.4-13 2.3-23.2-3.7-26.7-4.9-2.8-12.1-.7-20.2 5.8-1.6 1.3-3.2 2.7-4.8 4.3-1.6-1.6-3.2-3-4.8-4.3-8.1-6.6-15.3-8.7-20.2-5.8-6 3.5-7.1 13.7-3.7 26.7-13 3.6-21.3 9.6-21.3 16.6 0 7 8.3 13 21.3 16.6-3.4 13-2.3 23.2 3.7 26.7 1.4.8 3 1.2 4.8 1.2 5.7 0 12.9-4.2 20.2-11.4 7.3 7.2 14.6 11.4 20.2 11.4 1.7 0 3.4-.4 4.8-1.2 6-3.5 7.1-13.7 3.7-26.7 13-3.6 21.3-9.6 21.3-16.6zm-43.3-35.1c7-5.7 13.2-7.7 16.8-5.6 4.4 2.5 5.4 11.4 2.3 23.4-4.4-1.1-9.3-1.8-14.5-2.3-3-4.2-6.1-8-9.2-11.4 1.5-1.5 3-2.9 4.6-4.1zm8.2 43.7c-1.7 2.9-3.4 5.7-5.2 8.2-3.1.2-6.3.4-9.7.4-3.4 0-6.6-.1-9.7-.4-1.8-2.6-3.5-5.3-5.2-8.2-1.7-2.9-3.2-5.8-4.5-8.6 1.3-2.8 2.8-5.7 4.5-8.6 1.6-2.9 3.4-5.6 5.2-8.2 3.1-.2 6.3-.4 9.7-.4 3.4 0 6.6.1 9.7.4 1.8 2.6 3.5 5.4 5.2 8.2 1.7 2.9 3.2 5.8 4.5 8.6-1.4 2.8-2.9 5.7-4.5 8.6zm6.1-5.1c1.7 3.8 3 7.5 4.1 11-3.5.8-7.4 1.5-11.5 2 1.3-2 2.7-4.2 3.9-6.4 1.2-2.2 2.4-4.4 3.5-6.6zm-21 25.4c-2.5-2.6-5-5.6-7.5-9 2.4.1 4.9.2 7.5.2 2.5 0 5-.1 7.5-.2-2.5 3.4-5 6.4-7.5 9zm-13.5-12.5c-4.2-.5-8-1.1-11.5-2 1-3.4 2.4-7.1 4.1-11 1.1 2.2 2.3 4.4 3.5 6.6 1.2 2.3 2.5 4.4 3.9 6.4zm-7.5-19.9c-1.7-3.8-3-7.5-4.1-11 3.5-.8 7.4-1.5 11.5-2-1.3 2.1-2.7 4.2-3.9 6.4-1.2 2.2-2.4 4.4-3.5 6.6zm21-25.4c2.5 2.7 5 5.7 7.5 9-2.4-.1-4.9-.2-7.5-.2-2.5 0-5 .1-7.5.2 2.5-3.3 5-6.3 7.5-9zm17.4 18.8c-1.3-2.2-2.6-4.3-3.9-6.4 4.2.5 8 1.1 11.5 2-1 3.4-2.4 7.1-4.1 11-1-2.2-2.2-4.4-3.5-6.6zm-40.9-30.6c3.7-2.1 9.8-.1 16.8 5.6 1.5 1.2 3.1 2.6 4.6 4.1-3.2 3.3-6.3 7.2-9.2 11.4-5.2.5-10.1 1.3-14.5 2.3-3.1-12.1-2.1-20.9 2.3-23.4zM113 198.8c0-5.1 7.1-10.4 19.1-13.7 1.3 4.4 3.1 9 5.3 13.7-2.2 4.7-4 9.4-5.3 13.7-12-3.3-19.1-8.6-19.1-13.7zm23.5 40.7c-4.4-2.5-5.4-11.4-2.3-23.4 4.4 1.1 9.3 1.8 14.5 2.3 3 4.3 6.1 8.1 9.3 11.4-9 8.7-17.1 12.3-21.5 9.7zm47 0c-.9.5-2 .8-3.3.8-4.6 0-11.1-3.6-18.1-10.5 3.1-3.3 6.2-7.1 9.3-11.4 5.2-.5 10.1-1.3 14.5-2.3 3 12.1 2 20.9-2.4 23.4zm4.4-27c-1.3-4.4-3.1-9-5.3-13.7 2.2-4.7 4-9.4 5.3-13.7 12 3.3 19.1 8.6 19.1 13.7s-7.1 10.4-19.1 13.7z"/></g></svg>