<?xml version="1.0" encoding="utf-8"?>
<!-- Generator: Adobe Illustrator 19.2.1, SVG Export Plug-In . SVG Version: 6.00 Build 0)  -->
<!DOCTYPE svg PUBLIC "-//W3C//DTD SVG 1.1//EN" "http://www.w3.org/Graphics/SVG/1.1/DTD/svg11.dtd">
<svg version="1.1" id="Layer_1" xmlns="http://www.w3.org/2000/svg" xmlns:xlink="http://www.w3.org/1999/xlink" x="0px" y="0px"
	 viewBox="0 0 78 78" enable-background="new 0 0 78 78" xml:space="preserve">
<g>
	<circle fill="#FFFFFF" cx="39" cy="39" r="35.7"/>
	<g>
		<g>
			<path fill="#D2091E" d="M39,0C17.5,0,0,17.5,0,39c0,21.5,17.5,39,39,39c21.5,0,39-17.5,39-39C78,17.5,60.5,0,39,0z M39,63.7
				c-13.6,0-24.7-11.1-24.7-24.7c0-13.6,11.1-24.7,24.7-24.7c13.6,0,24.7,11.1,24.7,24.7C63.7,52.6,52.6,63.7,39,63.7z"/>
		</g>
		<g>
			<g>
				<path fill="#FFFFFF" d="M32,12.4l-2.5-2.6l-1.1,0.4l1,3.1l-1.5,0.5l-2.5-7.8l3.1-1c1.6-0.5,2.9,0.3,3.3,1.6
					c0.4,1.1-0.1,2-0.8,2.5l2.8,2.8L32,12.4z M28.7,6.3l-1.4,0.5l0.7,2.1l1.4-0.5c0.7-0.2,1-0.8,0.8-1.4C30,6.4,29.4,6.1,28.7,6.3z"
					/>
				<path fill="#FFFFFF" d="M36.1,11.5L36,3.3l5.4-0.1l0,1.4l-3.8,0.1l0,1.9l3.2-0.1l0,1.4l-3.2,0.1l0,2l3.8-0.1l0,1.4L36.1,11.5z"
					/>
				<path fill="#FFFFFF" d="M49.5,12.6C48.8,13,48,13,47.2,12.7l-2.8-0.9L46.8,4l2.8,0.9c0.8,0.2,1.5,0.7,1.8,1.4
					c0.6,1.2,0.2,2.2-0.2,3.4C50.9,10.8,50.6,12,49.5,12.6z M50,7c-0.2-0.4-0.5-0.7-1-0.8l-1.2-0.4L46.3,11l1.2,0.4
					c0.5,0.2,0.9,0.1,1.3-0.1c0.4-0.3,0.6-0.8,1-2C50.1,8,50.2,7.5,50,7z"/>
			</g>
		</g>
		<g>
			<g>
				<path fill="#FFFFFF" d="M16.4,66.9l-2.6-2.2l5.3-6.3l2.5,2.1c1.2,1,1.4,2.3,0.5,3.4c-0.6,0.7-1.4,0.8-1.9,0.7
					c0.2,0.5,0.4,1.3-0.3,2.1C18.9,67.9,17.5,67.8,16.4,66.9z M18.5,64.1l-1.3-1.1l-1.3,1.6l1.3,1.1c0.6,0.5,1.1,0.3,1.5-0.1
					C19,65.2,19,64.6,18.5,64.1z M20.5,61.5l-1.2-1L18.1,62l1.2,1c0.5,0.4,1.1,0.4,1.4,0C21.1,62.5,21.1,61.9,20.5,61.5z"/>
				<path fill="#FFFFFF" d="M25.6,72.3l0.2-1.5l-2.6-1.2L22,70.7L20.5,70l6.2-6.2l1.1,0.5L27.1,73L25.6,72.3z M26.3,66.2l-2.2,2.3
					l1.9,0.9L26.3,66.2z"/>
				<path fill="#FFFFFF" d="M35.3,73.9c-0.6,0.4-1.4,0.6-2.3,0.4l-2.9-0.5l1.4-8.1l2.9,0.5c0.8,0.1,1.6,0.5,2,1.1
					c0.8,1.1,0.5,2.2,0.3,3.4C36.5,72,36.3,73.2,35.3,73.9z M35.1,68.3c-0.2-0.4-0.6-0.6-1.1-0.7l-1.2-0.2l-0.9,5.3l1.2,0.2
					c0.5,0.1,0.9,0,1.3-0.3c0.4-0.3,0.5-0.9,0.7-2.1C35.3,69.2,35.3,68.7,35.1,68.3z"/>
				<path fill="#FFFFFF" d="M45.6,73.4c-0.6,0.7-1.3,1.1-2.2,1.2c-0.9,0.1-1.6-0.1-2.3-0.6c-0.4-0.3-0.7-0.7-0.8-1.1
					c-0.1-0.4-0.3-1.1-0.4-2c-0.1-0.9-0.1-1.6-0.1-2c0-0.5,0.2-0.9,0.5-1.3c0.5-0.7,1.2-1.1,2.1-1.2c1.9-0.2,3,0.8,3.4,2.2l-1.6,0.2
					c-0.3-0.8-0.8-1.1-1.6-1c-0.4,0.1-0.7,0.2-1,0.6c-0.3,0.4-0.3,0.7-0.1,2.3c0.2,1.6,0.3,1.9,0.7,2.3c0.3,0.3,0.6,0.4,1.1,0.3
					c0.5-0.1,0.8-0.3,1.1-0.6c0.2-0.3,0.3-0.7,0.2-1.1l0-0.3L43,71.3L42.9,70l3.1-0.4l0.1,1.2C46.3,72,46.1,72.7,45.6,73.4z"/>
				<path fill="#FFFFFF" d="M50.7,73l-3.2-7.6l5-2.1l0.6,1.3l-3.5,1.5l0.8,1.8l3-1.3l0.6,1.3l-3,1.3l0.8,1.8l3.5-1.5l0.6,1.3
					L50.7,73z"/>
				<path fill="#FFFFFF" d="M63.2,65.5L59.9,64L59,64.7l2.1,2.5l-1.2,1L54.6,62l2.5-2.1c1.3-1.1,2.8-0.8,3.7,0.2
					c0.7,0.9,0.7,1.9,0.2,2.6l3.7,1.5L63.2,65.5z M57.9,61.1l-1.2,1l1.4,1.7l1.2-1c0.5-0.5,0.6-1.1,0.2-1.6
					C59.1,60.7,58.4,60.6,57.9,61.1z"/>
			</g>
		</g>
		<g>
			<path fill="#1D1D1C" d="M48.7,33.1c2.9-1.4,5.9-3.3,6-4.7c0.3-3.3-8.3-6.8-14.1-6.9c-4-0.1-9.2,2-11,5.2
				c-0.3-0.1-0.6-0.2-0.9-0.2c-2.1-0.1-3.9,1.4-4,3.5c-0.1,1.5,0.7,2.8,1.9,3.5c-2.9,9.1-0.3,17.8,3.8,22c1.4,1.5,2.5,2.1,4.7,2.2
				c1.8,0,2.3-0.4,2.2-1.4c-0.1-0.6-0.2-1.4-0.2-2.2c0-0.2,0.1-0.5,0.4-0.5c0.6,0,1.1,0.1,1.7,0.1c0.4,0,0.5,0.1,0.5,0.5
				c-0.1,0.8-0.2,1.6-0.3,2.1c-0.2,0.9,0.2,1.4,2.1,1.4c2.4,0,3.5-0.5,4.7-1.8c1-1,1.8-2.3,2.4-3.8c0.2-0.5,0.7-1.3,1-1.6
				c1.5-1.8,2.3-3.6,2.5-5.3c0.1-0.8,0.5-0.9,1-0.9c0.7,0.1,1.4,0,2.1-0.4c0.7-0.4,0.7-0.7,0-1.1C51,40.9,50.4,36.5,48.7,33.1z"/>
			<circle fill="#1D1D1C" cx="37.5" cy="22.4" r="2.1"/>
			<path fill="#FFFFFF" d="M50.5,29.2c-0.3-0.6,0-1.5,0.7-2c0.3-0.2,0.4-0.4,0-0.7c-6.7-4.4-14-3.9-17.9-1.3
				c-0.5,0.3-0.4,0.6,0.1,0.5c4.7-1.3,13.5-0.3,14.7,2.2c0.8,1.5-12.1,0.9-19,5.5c-0.8,0.5-1.1,1-1.4,1.9c-0.7,2.8-1.1,5.7-0.8,8
				c0.1,0.8,0.6,0.7,0.8,0.2c1.1-2.3,3.5-5.1,6.1-6.6c3.1-1.8,5.3-2.7,8.7-3.4c2.2-0.4,5.5-1.8,8-3.4c0.3-0.2,0.3-0.3,0-0.6
				C50.6,29.3,50.6,29.3,50.5,29.2z"/>
		</g>
		<circle fill="#FFFFFF" cx="7.4" cy="39" r="2.3"/>
		<circle fill="#FFFFFF" cx="70.8" cy="39" r="2.3"/>
	</g>
</g>
<g>
	<g>
		<defs>
			<rect id="SVGID_1_" x="-261.9" y="-773.5" width="1440" height="1024"/>
		</defs>
		<clipPath id="SVGID_2_">
			<use xlink:href="#SVGID_1_"  overflow="visible"/>
		</clipPath>
	</g>
</g>
</svg>
