<?xml version="1.0" encoding="utf-8"?>
<!-- Generator: Adobe Illustrator 19.2.1, SVG Export Plug-In . SVG Version: 6.00 Build 0)  -->
<!DOCTYPE svg PUBLIC "-//W3C//DTD SVG 1.1//EN" "http://www.w3.org/Graphics/SVG/1.1/DTD/svg11.dtd">
<svg version="1.1" id="Layer_1" xmlns="http://www.w3.org/2000/svg" xmlns:xlink="http://www.w3.org/1999/xlink" x="0px" y="0px"
	 viewBox="0 0 320 498" enable-background="new 0 0 320 498" xml:space="preserve">
<g>
	<g>
		<g>
			<line fill="none" stroke="#4A4A4A" stroke-width="3" stroke-miterlimit="10" x1="45" y1="30.8" x2="42.1" y2="33.5"/>
			
				<line fill="none" stroke="#4A4A4A" stroke-width="3" stroke-miterlimit="10" stroke-dasharray="7.755,3.8775" x1="39.3" y1="36.2" x2="-229.3" y2="291"/>
		</g>
	</g>
	<g>
		<g>
			<line fill="none" stroke="#4A4A4A" stroke-width="3" stroke-miterlimit="10" x1="45" y1="30.8" x2="48.7" y2="29.8"/>
			
				<line fill="none" stroke="#4A4A4A" stroke-width="3" stroke-miterlimit="10" stroke-dasharray="7.8462,3.9231" x1="52.5" y1="28.8" x2="482.8" y2="-85.7"/>
		</g>
	</g>
	<g>
		<g>
			<line fill="none" stroke="#4A4A4A" stroke-width="3" stroke-miterlimit="10" x1="45" y1="30.8" x2="48.5" y2="32.5"/>
			
				<line fill="none" stroke="#4A4A4A" stroke-width="3" stroke-miterlimit="10" stroke-dasharray="7.8189,3.9094" x1="52" y1="34.2" x2="188.1" y2="98.6"/>
			<line fill="none" stroke="#4A4A4A" stroke-width="3" stroke-miterlimit="10" x1="189.8" y1="99.4" x2="193.3" y2="101.1"/>
		</g>
	</g>
	<g>
		<g>
			<line fill="none" stroke="#4A4A4A" stroke-width="3" stroke-miterlimit="10" x1="45" y1="30.8" x2="46.8" y2="27.4"/>
			
				<line fill="none" stroke="#4A4A4A" stroke-width="3" stroke-miterlimit="10" stroke-dasharray="7.7242,3.8621" x1="48.6" y1="24" x2="156.8" y2="-178.8"/>
		</g>
	</g>
	<g>
		<g>
			<line fill="none" stroke="#4A4A4A" stroke-width="3" stroke-miterlimit="10" x1="45" y1="30.8" x2="47.8" y2="28.2"/>
			
				<line fill="none" stroke="#4A4A4A" stroke-width="3" stroke-miterlimit="10" stroke-dasharray="7.7798,3.8899" x1="50.7" y1="25.6" x2="470.6" y2="-359.7"/>
		</g>
	</g>
	<g>
		<g>
			<line fill="none" stroke="#4A4A4A" stroke-width="3" stroke-miterlimit="10" x1="66.8" y1="223.2" x2="66.4" y2="219.3"/>
			<path fill="none" stroke="#4A4A4A" stroke-width="3" stroke-miterlimit="10" stroke-dasharray="7.7671,3.8835" d="M65.9,215.5
				L45,30.8C-41.7-69.4-222.2-59.9-228.2,82.9"/>
		</g>
	</g>
	<path fill="none" stroke="#4A4A4A" stroke-width="3" stroke-miterlimit="10" stroke-dasharray="7.8096,3.9048" d="M359.3-100
		C169.3-189.1,45,30.8,45,30.8c-34.5,109.3,54.7,166.6,121.7,136s63.1-123,27.3-155.5"/>
	
		<line fill="none" stroke="#4A4A4A" stroke-width="3" stroke-miterlimit="10" stroke-dasharray="7.8096,3.9048" x1="45" y1="30.8" x2="-398.2" y2="-111.7"/>
	<path fill="none" stroke="#4A4A4A" stroke-width="3" stroke-miterlimit="10" stroke-dasharray="7.8096,3.9048" d="M45,30.8
		c0,0-46.9-65.7-14.3-105.4s63.1-83.3-19.5-156.2"/>
	<circle fill="#4A4A4A" cx="45.6" cy="30.2" r="9.2"/>
	<circle fill="#4A4A4A" cx="194" cy="11.3" r="5.5"/>
	<circle fill="#4A4A4A" cx="193.3" cy="101.1" r="5.5"/>
	<circle fill="#4A4A4A" cx="66.8" cy="223.2" r="5.5"/>
	<circle opacity="0.2" fill="none" stroke="#4A4A4A" stroke-width="0.5" stroke-miterlimit="10" cx="45" cy="30.8" r="108.9"/>
	<circle opacity="0.2" fill="none" stroke="#4A4A4A" stroke-width="0.5" stroke-miterlimit="10" cx="45" cy="30.8" r="1416.1"/>
	<circle opacity="0.2" fill="none" stroke="#4A4A4A" stroke-width="0.5" stroke-miterlimit="10" cx="45" cy="30.8" r="1361.7"/>
	<circle opacity="0.2" fill="none" stroke="#4A4A4A" stroke-width="0.5" stroke-miterlimit="10" cx="45" cy="30.8" r="1307.2"/>
	<circle opacity="0.2" fill="none" stroke="#4A4A4A" stroke-width="0.5" stroke-miterlimit="10" cx="45" cy="30.8" r="1252.7"/>
	<circle opacity="0.2" fill="none" stroke="#4A4A4A" stroke-width="0.5" stroke-miterlimit="10" cx="45" cy="30.8" r="1198.3"/>
	<circle opacity="0.2" fill="none" stroke="#4A4A4A" stroke-width="0.5" stroke-miterlimit="10" cx="45" cy="30.8" r="1143.8"/>
	<circle opacity="0.2" fill="none" stroke="#4A4A4A" stroke-width="0.5" stroke-miterlimit="10" cx="45" cy="30.8" r="1089.3"/>
	<circle opacity="0.2" fill="none" stroke="#4A4A4A" stroke-width="0.5" stroke-miterlimit="10" cx="45" cy="30.8" r="1034.9"/>
	<circle opacity="0.2" fill="none" stroke="#4A4A4A" stroke-width="0.5" stroke-miterlimit="10" cx="45" cy="30.8" r="980.4"/>
	<circle opacity="0.2" fill="none" stroke="#4A4A4A" stroke-width="0.5" stroke-miterlimit="10" cx="45" cy="30.8" r="925.9"/>
	<circle opacity="0.2" fill="none" stroke="#4A4A4A" stroke-width="0.5" stroke-miterlimit="10" cx="45" cy="30.8" r="871.5"/>
	<circle opacity="0.2" fill="none" stroke="#4A4A4A" stroke-width="0.5" stroke-miterlimit="10" cx="45" cy="30.8" r="817"/>
	<circle opacity="0.2" fill="none" stroke="#4A4A4A" stroke-width="0.5" stroke-miterlimit="10" cx="45" cy="30.8" r="54.5"/>
	<circle opacity="0.2" fill="none" stroke="#4A4A4A" stroke-width="0.5" stroke-miterlimit="10" cx="45" cy="30.8" r="272.3"/>
	<circle opacity="0.2" fill="none" stroke="#4A4A4A" stroke-width="0.5" stroke-miterlimit="10" cx="45" cy="30.8" r="217.9"/>
	<circle opacity="0.2" fill="none" stroke="#4A4A4A" stroke-width="0.5" stroke-miterlimit="10" cx="45" cy="30.8" r="163.4"/>
	<circle opacity="0.2" fill="none" stroke="#4A4A4A" stroke-width="0.5" stroke-miterlimit="10" cx="45" cy="30.8" r="762.5"/>
	<circle opacity="0.2" fill="none" stroke="#4A4A4A" stroke-width="0.5" stroke-miterlimit="10" cx="45" cy="30.8" r="708.1"/>
	<circle opacity="0.2" fill="none" stroke="#4A4A4A" stroke-width="0.5" stroke-miterlimit="10" cx="45" cy="30.8" r="653.6"/>
	<circle opacity="0.2" fill="none" stroke="#4A4A4A" stroke-width="0.5" stroke-miterlimit="10" cx="45" cy="30.8" r="599.1"/>
	<circle opacity="0.2" fill="none" stroke="#4A4A4A" stroke-width="0.5" stroke-miterlimit="10" cx="45" cy="30.8" r="544.7"/>
	<circle opacity="0.2" fill="none" stroke="#4A4A4A" stroke-width="0.5" stroke-miterlimit="10" cx="45" cy="30.8" r="490.2"/>
	<circle opacity="0.2" fill="none" stroke="#4A4A4A" stroke-width="0.5" stroke-miterlimit="10" cx="45" cy="30.8" r="435.7"/>
	<circle opacity="0.2" fill="none" stroke="#4A4A4A" stroke-width="0.5" stroke-miterlimit="10" cx="45" cy="30.8" r="381.3"/>
	<circle opacity="0.2" fill="none" stroke="#4A4A4A" stroke-width="0.5" stroke-miterlimit="10" cx="45" cy="30.8" r="326.8"/>
	<g>
		<g>
			<line fill="none" stroke="#4A4A4A" stroke-width="3" stroke-miterlimit="10" x1="45" y1="30.8" x2="48.9" y2="30.9"/>
			
				<line fill="none" stroke="#4A4A4A" stroke-width="3" stroke-miterlimit="10" stroke-dasharray="7.7869,3.8935" x1="52.8" y1="31.1" x2="973.1" y2="59.6"/>
		</g>
	</g>
	<g>
		<g>
			<line fill="none" stroke="#4A4A4A" stroke-width="3" stroke-miterlimit="10" x1="45" y1="30.8" x2="43.8" y2="27.1"/>
			
				<line fill="none" stroke="#4A4A4A" stroke-width="3" stroke-miterlimit="10" stroke-dasharray="7.8784,3.9392" x1="42.7" y1="23.3" x2="-41.9" y2="-257.7"/>
		</g>
	</g>
	<g>
		<g>
			<line fill="none" stroke="#4A4A4A" stroke-width="3" stroke-miterlimit="10" x1="45" y1="30.8" x2="47.2" y2="34"/>
			
				<line fill="none" stroke="#4A4A4A" stroke-width="3" stroke-miterlimit="10" stroke-dasharray="7.991,3.9955" x1="49.4" y1="37.3" x2="156.7" y2="193.9"/>
			<line fill="none" stroke="#4A4A4A" stroke-width="3" stroke-miterlimit="10" x1="157.8" y1="195.6" x2="160" y2="198.8"/>
		</g>
	</g>
</g>
<g>
	<g>
		<g>
			<path fill="#C6DDE7" d="M180.2,245.3c-5.7,0-12.9-3.7-20.2-10.6c-7.4,6.8-14.5,10.6-20.2,10.6c-2.1,0-4.1-0.5-5.8-1.5
				c-6.4-3.7-8.2-13.5-5.1-27.1c-13.3-4.1-20.9-10.6-20.9-18s7.6-13.9,20.9-18c-3.1-13.6-1.3-23.4,5.1-27.1c1.7-1,3.7-1.5,5.8-1.5
				c4.8,0,10.6,2.6,16.6,7.5c1.2,0.9,2.3,2,3.5,3.1c1.2-1.1,2.4-2.2,3.5-3.1c6.1-4.9,11.8-7.5,16.6-7.5c2.1,0,4.1,0.5,5.8,1.5
				c6.4,3.7,8.2,13.5,5.1,27.1c13.3,4.1,20.9,10.6,20.9,18c0,7.4-7.6,13.9-20.9,18c3.1,13.6,1.3,23.4-5.1,27.1
				C184.3,244.8,182.4,245.3,180.2,245.3L180.2,245.3z"/>
			<path fill="#C6DDE7" d="M139.8,154.3c4.3,0,9.6,2.4,15.4,7.1c1.6,1.3,3.2,2.7,4.8,4.3c1.6-1.6,3.2-3,4.8-4.3
				c5.8-4.7,11.1-7.1,15.4-7.1c1.8,0,3.4,0.4,4.8,1.2c6,3.5,7.1,13.7,3.7,26.7c13,3.6,21.3,9.6,21.3,16.6c0,7-8.3,13-21.3,16.6
				c3.4,13,2.3,23.2-3.7,26.7c-1.4,0.8-3,1.2-4.8,1.2c0,0,0,0,0,0c-5.7,0-12.9-4.2-20.2-11.4c-7.3,7.2-14.6,11.4-20.2,11.4
				c-1.7,0-3.3-0.4-4.8-1.2c-6-3.5-7.1-13.7-3.7-26.7c-13-3.6-21.3-9.6-21.3-16.6c0-7,8.3-13,21.3-16.6c-3.4-13-2.3-23.2,3.7-26.7
				C136.4,154.7,138,154.3,139.8,154.3 M139.8,150.3L139.8,150.3c-2.5,0-4.8,0.6-6.8,1.8c-6.9,4-9.2,13.9-6.4,27.5
				c-13.1,4.4-20.6,11.3-20.6,19.3c0,8,7.4,14.9,20.6,19.3c-2.8,13.6-0.5,23.5,6.4,27.5c2,1.2,4.3,1.7,6.8,1.7
				c7.2,0,14.6-4.9,20.2-9.9c5.6,5,13,9.9,20.2,9.9c2.5,0,4.8-0.6,6.8-1.7c6.9-4,9.2-13.9,6.4-27.5c13.1-4.4,20.6-11.3,20.6-19.3
				c0-8-7.4-14.9-20.6-19.3c2.8-13.6,0.5-23.5-6.4-27.5c-2-1.2-4.3-1.8-6.8-1.8c-5.3,0-11.4,2.7-17.9,8c-0.8,0.6-1.5,1.3-2.3,1.9
				c-0.8-0.7-1.5-1.3-2.3-1.9C151.2,153,145.2,150.3,139.8,150.3L139.8,150.3z"/>
		</g>
	</g>
	<g>
		<circle fill="#4A4A4A" cx="160" cy="198.8" r="9.2"/>
		<path fill="#4A4A4A" d="M210,198.8c0-7-8.3-13-21.3-16.6c3.4-13,2.3-23.2-3.7-26.7c-4.9-2.8-12.1-0.7-20.2,5.8
			c-1.6,1.3-3.2,2.7-4.8,4.3c-1.6-1.6-3.2-3-4.8-4.3c-8.1-6.6-15.3-8.7-20.2-5.8c-6,3.5-7.1,13.7-3.7,26.7
			c-13,3.6-21.3,9.6-21.3,16.6c0,7,8.3,13,21.3,16.6c-3.4,13-2.3,23.2,3.7,26.7c1.4,0.8,3,1.2,4.8,1.2c5.7,0,12.9-4.2,20.2-11.4
			c7.3,7.2,14.6,11.4,20.2,11.4c1.7,0,3.4-0.4,4.8-1.2c6-3.5,7.1-13.7,3.7-26.7C201.7,211.8,210,205.8,210,198.8z M166.7,163.7
			c7-5.7,13.2-7.7,16.8-5.6c4.4,2.5,5.4,11.4,2.3,23.4c-4.4-1.1-9.3-1.8-14.5-2.3c-3-4.2-6.1-8-9.2-11.4
			C163.6,166.3,165.1,164.9,166.7,163.7z M174.9,207.4c-1.7,2.9-3.4,5.7-5.2,8.2c-3.1,0.2-6.3,0.4-9.7,0.4c-3.4,0-6.6-0.1-9.7-0.4
			c-1.8-2.6-3.5-5.3-5.2-8.2c-1.7-2.9-3.2-5.8-4.5-8.6c1.3-2.8,2.8-5.7,4.5-8.6c1.6-2.9,3.4-5.6,5.2-8.2c3.1-0.2,6.3-0.4,9.7-0.4
			c3.4,0,6.6,0.1,9.7,0.4c1.8,2.6,3.5,5.4,5.2,8.2c1.7,2.9,3.2,5.8,4.5,8.6C178,201.6,176.5,204.5,174.9,207.4z M181,202.3
			c1.7,3.8,3,7.5,4.1,11c-3.5,0.8-7.4,1.5-11.5,2c1.3-2,2.7-4.2,3.9-6.4C178.7,206.7,179.9,204.5,181,202.3z M160,227.7
			c-2.5-2.6-5-5.6-7.5-9c2.4,0.1,4.9,0.2,7.5,0.2c2.5,0,5-0.1,7.5-0.2C165,222.1,162.5,225.1,160,227.7z M146.5,215.2
			c-4.2-0.5-8-1.1-11.5-2c1-3.4,2.4-7.1,4.1-11c1.1,2.2,2.3,4.4,3.5,6.6C143.8,211.1,145.1,213.2,146.5,215.2z M139,195.3
			c-1.7-3.8-3-7.5-4.1-11c3.5-0.8,7.4-1.5,11.5-2c-1.3,2.1-2.7,4.2-3.9,6.4C141.3,190.9,140.1,193.1,139,195.3z M160,169.9
			c2.5,2.7,5,5.7,7.5,9c-2.4-0.1-4.9-0.2-7.5-0.2c-2.5,0-5,0.1-7.5,0.2C155,175.6,157.5,172.6,160,169.9z M177.4,188.7
			c-1.3-2.2-2.6-4.3-3.9-6.4c4.2,0.5,8,1.1,11.5,2c-1,3.4-2.4,7.1-4.1,11C179.9,193.1,178.7,190.9,177.4,188.7z M136.5,158.1
			c3.7-2.1,9.8-0.1,16.8,5.6c1.5,1.2,3.1,2.6,4.6,4.1c-3.2,3.3-6.3,7.2-9.2,11.4c-5.2,0.5-10.1,1.3-14.5,2.3
			C131.1,169.4,132.1,160.6,136.5,158.1z M113,198.8c0-5.1,7.1-10.4,19.1-13.7c1.3,4.4,3.1,9,5.3,13.7c-2.2,4.7-4,9.4-5.3,13.7
			C120.1,209.2,113,203.9,113,198.8z M136.5,239.5c-4.4-2.5-5.4-11.4-2.3-23.4c4.4,1.1,9.3,1.8,14.5,2.3c3,4.3,6.1,8.1,9.3,11.4
			C149,238.5,140.9,242.1,136.5,239.5z M183.5,239.5c-0.9,0.5-2,0.8-3.3,0.8c-4.6,0-11.1-3.6-18.1-10.5c3.1-3.3,6.2-7.1,9.3-11.4
			c5.2-0.5,10.1-1.3,14.5-2.3C188.9,228.2,187.9,237,183.5,239.5z M187.9,212.5c-1.3-4.4-3.1-9-5.3-13.7c2.2-4.7,4-9.4,5.3-13.7
			c12,3.3,19.1,8.6,19.1,13.7C207,203.9,199.9,209.2,187.9,212.5z"/>
	</g>
</g>
</svg>
