<?xml version="1.0" encoding="utf-8"?>
<!-- Generator: Adobe Illustrator 19.2.1, SVG Export Plug-In . SVG Version: 6.00 Build 0)  -->
<!DOCTYPE svg PUBLIC "-//W3C//DTD SVG 1.1//EN" "http://www.w3.org/Graphics/SVG/1.1/DTD/svg11.dtd">
<svg version="1.1" id="Layer_1" xmlns="http://www.w3.org/2000/svg" xmlns:xlink="http://www.w3.org/1999/xlink" x="0px" y="0px"
	 viewBox="0 0 1920 330" enable-background="new 0 0 1920 330" xml:space="preserve">
<g>
	<g>
		<g>
			<line fill="none" stroke="#4A4A4A" stroke-width="3" stroke-miterlimit="10" x1="515.1" y1="206.3" x2="512.3" y2="209"/>
			
				<line fill="none" stroke="#4A4A4A" stroke-width="3" stroke-miterlimit="10" stroke-dasharray="7.755,3.8775" x1="509.5" y1="211.7" x2="240.8" y2="466.5"/>
		</g>
	</g>
	<g>
		<g>
			<line fill="none" stroke="#4A4A4A" stroke-width="3" stroke-miterlimit="10" x1="515.1" y1="206.3" x2="518.9" y2="205.3"/>
			
				<line fill="none" stroke="#4A4A4A" stroke-width="3" stroke-miterlimit="10" stroke-dasharray="7.8462,3.9231" x1="522.7" y1="204.3" x2="953" y2="89.8"/>
			<line fill="none" stroke="#4A4A4A" stroke-width="3" stroke-miterlimit="10" x1="954.9" y1="89.3" x2="958.6" y2="88.3"/>
		</g>
	</g>
	<g>
		<g>
			<line fill="none" stroke="#4A4A4A" stroke-width="3" stroke-miterlimit="10" x1="515.1" y1="206.3" x2="518.6" y2="208"/>
			
				<line fill="none" stroke="#4A4A4A" stroke-width="3" stroke-miterlimit="10" stroke-dasharray="7.8189,3.9094" x1="522.2" y1="209.7" x2="658.2" y2="274.1"/>
			<line fill="none" stroke="#4A4A4A" stroke-width="3" stroke-miterlimit="10" x1="660" y1="275" x2="663.5" y2="276.6"/>
		</g>
	</g>
	<g>
		<g>
			<line fill="none" stroke="#4A4A4A" stroke-width="3" stroke-miterlimit="10" x1="515.1" y1="206.3" x2="517" y2="202.9"/>
			
				<line fill="none" stroke="#4A4A4A" stroke-width="3" stroke-miterlimit="10" stroke-dasharray="7.7242,3.8621" x1="518.8" y1="199.5" x2="626.9" y2="-3.3"/>
		</g>
	</g>
	<g>
		<g>
			<line fill="none" stroke="#4A4A4A" stroke-width="3" stroke-miterlimit="10" x1="515.1" y1="206.3" x2="514" y2="202.6"/>
			
				<line fill="none" stroke="#4A4A4A" stroke-width="3" stroke-miterlimit="10" stroke-dasharray="7.8784,3.9392" x1="512.9" y1="198.8" x2="428.3" y2="-82.2"/>
		</g>
	</g>
	<g>
		<g>
			<line fill="none" stroke="#4A4A4A" stroke-width="3" stroke-miterlimit="10" x1="515.1" y1="206.3" x2="518" y2="203.7"/>
			
				<line fill="none" stroke="#4A4A4A" stroke-width="3" stroke-miterlimit="10" stroke-dasharray="7.7832,3.8916" x1="520.9" y1="201.1" x2="906.5" y2="-152.9"/>
		</g>
	</g>
	<g>
		<g>
			<path fill="none" stroke="#4A4A4A" stroke-width="3" stroke-miterlimit="10" stroke-dasharray="7.7932,3.8966" d="M540.3,427.7
				l-25.2-221.3c-86.7-100.2-267.1-90.7-273.2,52.1"/>
			<path fill="none" stroke="#4A4A4A" stroke-width="3" stroke-miterlimit="10" d="M241.9,260.4c0,1.3-0.1,2.6-0.1,3.9"/>
		</g>
	</g>
	<path fill="none" stroke="#4A4A4A" stroke-width="3" stroke-miterlimit="10" stroke-dasharray="7.8096,3.9048" d="M829.5,75.5
		c-190-89.2-314.3,130.8-314.3,130.8c-34.5,109.3,54.7,166.6,121.7,136s63.1-123,27.3-155.5"/>
	
		<line fill="none" stroke="#4A4A4A" stroke-width="3" stroke-miterlimit="10" stroke-dasharray="7.8096,3.9048" x1="515.1" y1="206.3" x2="71.9" y2="63.8"/>
	<path fill="none" stroke="#4A4A4A" stroke-width="3" stroke-miterlimit="10" stroke-dasharray="7.8096,3.9048" d="M515.1,206.3
		c0,0-46.9-65.7-14.3-105.4s63.1-83.3-19.5-156.2"/>
	<circle fill="#4A4A4A" cx="515.8" cy="205.7" r="9.2"/>
	<circle fill="#4A4A4A" cx="829.5" cy="75.5" r="5.5"/>
	<circle fill="#4A4A4A" cx="664.1" cy="186.8" r="5.5"/>
	<circle fill="#4A4A4A" cx="663.5" cy="276.6" r="5.5"/>
	<circle fill="#4A4A4A" cx="241.8" cy="264.3" r="5.5"/>
	<circle fill="#4A4A4A" cx="71.9" cy="63.8" r="5.5"/>
	<circle opacity="0.2" fill="none" stroke="#4A4A4A" stroke-width="0.5" stroke-miterlimit="10" cx="515.1" cy="206.3" r="108.9"/>
	<circle opacity="0.2" fill="none" stroke="#4A4A4A" stroke-width="0.5" stroke-miterlimit="10" cx="515.1" cy="206.3" r="1416.1"/>
	<circle opacity="0.2" fill="none" stroke="#4A4A4A" stroke-width="0.5" stroke-miterlimit="10" cx="515.1" cy="206.3" r="1361.7"/>
	<circle opacity="0.2" fill="none" stroke="#4A4A4A" stroke-width="0.5" stroke-miterlimit="10" cx="515.1" cy="206.3" r="1307.2"/>
	<circle opacity="0.2" fill="none" stroke="#4A4A4A" stroke-width="0.5" stroke-miterlimit="10" cx="515.1" cy="206.3" r="1252.7"/>
	<circle opacity="0.2" fill="none" stroke="#4A4A4A" stroke-width="0.5" stroke-miterlimit="10" cx="515.1" cy="206.3" r="1198.3"/>
	<circle opacity="0.2" fill="none" stroke="#4A4A4A" stroke-width="0.5" stroke-miterlimit="10" cx="515.1" cy="206.3" r="1143.8"/>
	<circle opacity="0.2" fill="none" stroke="#4A4A4A" stroke-width="0.5" stroke-miterlimit="10" cx="515.1" cy="206.3" r="1089.3"/>
	<circle opacity="0.2" fill="none" stroke="#4A4A4A" stroke-width="0.5" stroke-miterlimit="10" cx="515.1" cy="206.3" r="1034.9"/>
	<circle opacity="0.2" fill="none" stroke="#4A4A4A" stroke-width="0.5" stroke-miterlimit="10" cx="515.1" cy="206.3" r="980.4"/>
	<circle opacity="0.2" fill="none" stroke="#4A4A4A" stroke-width="0.5" stroke-miterlimit="10" cx="515.1" cy="206.3" r="925.9"/>
	<circle opacity="0.2" fill="none" stroke="#4A4A4A" stroke-width="0.5" stroke-miterlimit="10" cx="515.1" cy="206.3" r="871.5"/>
	<circle opacity="0.2" fill="none" stroke="#4A4A4A" stroke-width="0.5" stroke-miterlimit="10" cx="515.1" cy="206.3" r="817"/>
	<circle opacity="0.2" fill="none" stroke="#4A4A4A" stroke-width="0.5" stroke-miterlimit="10" cx="515.1" cy="206.3" r="54.5"/>
	<circle opacity="0.2" fill="none" stroke="#4A4A4A" stroke-width="0.5" stroke-miterlimit="10" cx="515.1" cy="206.3" r="272.3"/>
	<circle opacity="0.2" fill="none" stroke="#4A4A4A" stroke-width="0.5" stroke-miterlimit="10" cx="515.1" cy="206.3" r="217.9"/>
	<circle opacity="0.2" fill="none" stroke="#4A4A4A" stroke-width="0.5" stroke-miterlimit="10" cx="515.1" cy="206.3" r="163.4"/>
	<circle opacity="0.2" fill="none" stroke="#4A4A4A" stroke-width="0.5" stroke-miterlimit="10" cx="515.1" cy="206.3" r="762.5"/>
	<circle opacity="0.2" fill="none" stroke="#4A4A4A" stroke-width="0.5" stroke-miterlimit="10" cx="515.1" cy="206.3" r="708.1"/>
	<circle opacity="0.2" fill="none" stroke="#4A4A4A" stroke-width="0.5" stroke-miterlimit="10" cx="515.1" cy="206.3" r="653.6"/>
	<circle opacity="0.2" fill="none" stroke="#4A4A4A" stroke-width="0.5" stroke-miterlimit="10" cx="515.1" cy="206.3" r="599.1"/>
	<circle opacity="0.2" fill="none" stroke="#4A4A4A" stroke-width="0.5" stroke-miterlimit="10" cx="515.1" cy="206.3" r="544.7"/>
	<circle opacity="0.2" fill="none" stroke="#4A4A4A" stroke-width="0.5" stroke-miterlimit="10" cx="515.1" cy="206.3" r="490.2"/>
	<circle opacity="0.2" fill="none" stroke="#4A4A4A" stroke-width="0.5" stroke-miterlimit="10" cx="515.1" cy="206.3" r="435.7"/>
	<circle opacity="0.2" fill="none" stroke="#4A4A4A" stroke-width="0.5" stroke-miterlimit="10" cx="515.1" cy="206.3" r="381.3"/>
	<circle opacity="0.2" fill="none" stroke="#4A4A4A" stroke-width="0.5" stroke-miterlimit="10" cx="515.1" cy="206.3" r="326.8"/>
	<g>
		<g>
			<line fill="none" stroke="#4A4A4A" stroke-width="3" stroke-miterlimit="10" x1="515.1" y1="206.3" x2="519" y2="206.5"/>
			
				<line fill="none" stroke="#4A4A4A" stroke-width="3" stroke-miterlimit="10" stroke-dasharray="7.7869,3.8935" x1="522.9" y1="206.6" x2="1443.3" y2="235.1"/>
			<line fill="none" stroke="#4A4A4A" stroke-width="3" stroke-miterlimit="10" x1="1445.2" y1="235.2" x2="1449.1" y2="235.3"/>
		</g>
	</g>
</g>
<g>
	<g>
		<g>
			<path fill="#C6DDE7" d="M980.2,134.6c-5.7,0-12.9-3.7-20.2-10.6c-7.4,6.8-14.5,10.6-20.2,10.6c-2.1,0-4.1-0.5-5.8-1.5
				c-6.4-3.7-8.2-13.5-5.1-27.1c-13.3-4.1-20.9-10.6-20.9-18c0-7.4,7.6-13.9,20.9-18c-3.1-13.6-1.3-23.4,5.1-27.1
				c1.7-1,3.7-1.5,5.8-1.5c4.8,0,10.6,2.6,16.6,7.5c1.2,0.9,2.3,2,3.5,3.1c1.2-1.1,2.4-2.2,3.5-3.1c6.1-4.9,11.8-7.5,16.6-7.5
				c2.1,0,4.1,0.5,5.8,1.5c6.4,3.7,8.2,13.5,5.1,27.1c13.3,4.1,20.9,10.6,20.9,18s-7.6,13.9-20.9,18c3.1,13.6,1.3,23.4-5.1,27.1
				C984.3,134.1,982.4,134.6,980.2,134.6L980.2,134.6z"/>
			<path fill="#C6DDE7" d="M939.8,43.5c4.3,0,9.6,2.4,15.4,7.1c1.6,1.3,3.2,2.7,4.8,4.3c1.6-1.6,3.2-3,4.8-4.3
				c5.8-4.7,11.1-7.1,15.4-7.1c1.8,0,3.4,0.4,4.8,1.2c6,3.5,7.1,13.7,3.7,26.7c13,3.6,21.3,9.6,21.3,16.6c0,7-8.3,13-21.3,16.6
				c3.4,13,2.3,23.2-3.7,26.7c-1.4,0.8-3,1.2-4.8,1.2c0,0,0,0,0,0c-5.7,0-12.9-4.2-20.2-11.4c-7.3,7.2-14.6,11.4-20.2,11.4
				c-1.7,0-3.3-0.4-4.8-1.2c-6-3.5-7.1-13.7-3.7-26.7C918.3,101,910,95,910,88.1c0-7,8.3-13,21.3-16.6c-3.4-13-2.3-23.2,3.7-26.7
				C936.4,43.9,938,43.5,939.8,43.5 M939.8,39.5L939.8,39.5c-2.5,0-4.8,0.6-6.8,1.8c-6.9,4-9.2,13.9-6.4,27.5
				C913.4,73.1,906,80.1,906,88.1c0,8,7.4,14.9,20.6,19.3c-2.8,13.6-0.5,23.5,6.4,27.5c2,1.2,4.3,1.7,6.8,1.7
				c7.2,0,14.6-4.9,20.2-9.9c5.6,5,13,9.9,20.2,9.9c2.5,0,4.8-0.6,6.8-1.7c6.9-4,9.2-13.9,6.4-27.5c13.1-4.4,20.6-11.3,20.6-19.3
				c0-8-7.4-14.9-20.6-19.3c2.8-13.6,0.5-23.5-6.4-27.5c-2-1.2-4.3-1.8-6.8-1.8c-5.3,0-11.4,2.7-17.9,8c-0.8,0.6-1.5,1.3-2.3,1.9
				c-0.8-0.7-1.5-1.3-2.3-1.9C951.2,42.2,945.2,39.5,939.8,39.5L939.8,39.5z"/>
		</g>
	</g>
	<g>
		<circle fill="#4A4A4A" cx="960" cy="88.1" r="9.2"/>
		<path fill="#4A4A4A" d="M1010,88.1c0-7-8.3-13-21.3-16.6c3.4-13,2.3-23.2-3.7-26.7c-4.9-2.8-12.1-0.7-20.2,5.8
			c-1.6,1.3-3.2,2.7-4.8,4.3c-1.6-1.6-3.2-3-4.8-4.3c-8.1-6.6-15.3-8.7-20.2-5.8c-6,3.5-7.1,13.7-3.7,26.7
			c-13,3.6-21.3,9.6-21.3,16.6c0,7,8.3,13,21.3,16.6c-3.4,13-2.3,23.2,3.7,26.7c1.4,0.8,3,1.2,4.8,1.2c5.7,0,12.9-4.2,20.2-11.4
			c7.3,7.2,14.6,11.4,20.2,11.4c1.7,0,3.4-0.4,4.8-1.2c6-3.5,7.1-13.7,3.7-26.7C1001.7,101,1010,95,1010,88.1z M966.7,52.9
			c7-5.7,13.2-7.7,16.8-5.6c4.4,2.5,5.4,11.4,2.3,23.4c-4.4-1.1-9.3-1.8-14.5-2.3c-3-4.2-6.1-8-9.2-11.4
			C963.6,55.5,965.1,54.2,966.7,52.9z M974.9,96.6c-1.7,2.9-3.4,5.7-5.2,8.2c-3.1,0.2-6.3,0.4-9.7,0.4c-3.4,0-6.6-0.1-9.7-0.4
			c-1.8-2.6-3.5-5.3-5.2-8.2c-1.7-2.9-3.2-5.8-4.5-8.6c1.3-2.8,2.8-5.7,4.5-8.6c1.6-2.9,3.4-5.6,5.2-8.2c3.1-0.2,6.3-0.4,9.7-0.4
			c3.4,0,6.6,0.1,9.7,0.4c1.8,2.6,3.5,5.4,5.2,8.2c1.7,2.9,3.2,5.8,4.5,8.6C978,90.9,976.5,93.7,974.9,96.6z M981,91.6
			c1.7,3.8,3,7.5,4.1,11c-3.5,0.8-7.4,1.5-11.5,2c1.3-2,2.7-4.2,3.9-6.4C978.7,95.9,979.9,93.7,981,91.6z M960,117
			c-2.5-2.6-5-5.6-7.5-9c2.4,0.1,4.9,0.2,7.5,0.2c2.5,0,5-0.1,7.5-0.2C965,111.4,962.5,114.4,960,117z M946.5,104.5
			c-4.2-0.5-8-1.1-11.5-2c1-3.4,2.4-7.1,4.1-11c1.1,2.2,2.3,4.4,3.5,6.6C943.8,100.3,945.1,102.5,946.5,104.5z M939,84.6
			c-1.7-3.8-3-7.5-4.1-11c3.5-0.8,7.4-1.5,11.5-2c-1.3,2.1-2.7,4.2-3.9,6.4C941.3,80.2,940.1,82.4,939,84.6z M960,59.2
			c2.5,2.7,5,5.7,7.5,9c-2.4-0.1-4.9-0.2-7.5-0.2c-2.5,0-5,0.1-7.5,0.2C955,64.9,957.5,61.9,960,59.2z M977.4,78
			c-1.3-2.2-2.6-4.3-3.9-6.4c4.2,0.5,8,1.1,11.5,2c-1,3.4-2.4,7.1-4.1,11C979.9,82.4,978.7,80.2,977.4,78z M936.5,47.3
			c3.7-2.1,9.8-0.1,16.8,5.6c1.5,1.2,3.1,2.6,4.6,4.1c-3.2,3.3-6.3,7.2-9.2,11.4c-5.2,0.5-10.1,1.3-14.5,2.3
			C931.1,58.7,932.1,49.9,936.5,47.3z M913,88.1c0-5.1,7.1-10.4,19.1-13.7c1.3,4.4,3.1,9,5.3,13.7c-2.2,4.7-4,9.4-5.3,13.7
			C920.1,98.4,913,93.1,913,88.1z M936.5,128.8c-4.4-2.5-5.4-11.4-2.3-23.4c4.4,1.1,9.3,1.8,14.5,2.3c3,4.3,6.1,8.1,9.3,11.4
			C949,127.8,940.9,131.3,936.5,128.8z M983.5,128.8c-0.9,0.5-2,0.8-3.3,0.8c-4.6,0-11.1-3.6-18.1-10.5c3.1-3.3,6.2-7.1,9.3-11.4
			c5.2-0.5,10.1-1.3,14.5-2.3C988.9,117.4,987.9,126.2,983.5,128.8z M987.9,101.8c-1.3-4.4-3.1-9-5.3-13.7c2.2-4.7,4-9.4,5.3-13.7
			c12,3.3,19.1,8.6,19.1,13.7S999.9,98.4,987.9,101.8z"/>
	</g>
</g>
<circle fill="#4A4A4A" cx="1445.7" cy="235.6" r="5.5"/>
</svg>
