<svg width="23" height="23" viewBox="0 0 23 23" xmlns="http://www.w3.org/2000/svg"><title>Slack</title><g fill="none" fill-rule="evenodd"><path d="M10.023 14.266l-1.45-4.308 4.276-1.46 1.455 4.321-4.281 1.447zM22.9 11.984c-.269-.796-1.03-1.326-1.898-1.32a2.097 2.097 0 0 0-.646.11l-2.259.763-1.458-4.332 2.172-.742c.907-.305 1.664-1.255 1.36-2.32l-.025-.079c-.275-.815-1.022-1.337-1.903-1.33-.197 0-.396.03-.594.086l-2.234.749-.742-2.205A1.995 1.995 0 0 0 13.666.21a1.99 1.99 0 0 0-1.529-.104 1.998 1.998 0 0 0-1.286 2.445l.027.09.74 2.2-4.284 1.435-.739-2.193a1.999 1.999 0 0 0-2.537-1.258A1.999 1.999 0 0 0 2.773 5.27l.028.09.736 2.188-2.17.727a1.993 1.993 0 0 0-1.263 2.526c.269.798.996 1.31 1.854 1.303a2.13 2.13 0 0 0 .661-.113c.756-.258 1.477-.504 2.164-.74L6.23 15.55l-2.157.73a2.006 2.006 0 0 0-1.26 2.547c.264.787.994 1.292 1.859 1.285a2.21 2.21 0 0 0 .691-.118l2.12-.724.75 2.232a2 2 0 0 0 2.536 1.26 1.999 1.999 0 0 0 1.26-2.536l-.758-2.252 4.276-1.462.765 2.273a2 2 0 0 0 2.536 1.258c1.015-.342 1.58-1.416 1.274-2.485l-.786-2.341 2.372-.811s.735-.32.969-.682a2.06 2.06 0 0 0 .248-1.656l-.025-.083z" fill="#9B9B9B"/><path d="M10.023 14.266l-1.45-4.308 4.276-1.46 1.455 4.321-4.281 1.447zM22.9 11.984c-.269-.796-1.03-1.326-1.898-1.32a2.097 2.097 0 0 0-.646.11l-2.259.763-1.458-4.332 2.172-.742c.907-.305 1.664-1.255 1.36-2.32l-.025-.079c-.275-.815-1.022-1.337-1.903-1.33-.197 0-.396.03-.594.086l-2.234.749-.742-2.205A1.995 1.995 0 0 0 13.666.21a1.99 1.99 0 0 0-1.529-.104 1.998 1.998 0 0 0-1.286 2.445l.027.09.74 2.2-4.284 1.435-.739-2.193a1.999 1.999 0 0 0-2.537-1.258A1.999 1.999 0 0 0 2.773 5.27l.028.09.736 2.188-2.17.727a1.993 1.993 0 0 0-1.263 2.526c.269.798.996 1.31 1.854 1.303a2.13 2.13 0 0 0 .661-.113c.756-.258 1.477-.504 2.164-.74L6.23 15.55l-2.157.73a2.006 2.006 0 0 0-1.26 2.547c.264.787.994 1.292 1.859 1.285a2.21 2.21 0 0 0 .691-.118l2.12-.724.75 2.232a2 2 0 0 0 2.536 1.26 1.999 1.999 0 0 0 1.26-2.536l-.758-2.252 4.276-1.462.765 2.273a2 2 0 0 0 2.536 1.258c1.015-.342 1.58-1.416 1.274-2.485l-.786-2.341 2.372-.811s.735-.32.969-.682a2.06 2.06 0 0 0 .248-1.656l-.025-.083z" fill="#CDE5B3"/></g></svg>