<?xml version="1.0" encoding="UTF-8" standalone="no"?>
<svg width="124px" height="124px" viewBox="0 0 124 124" version="1.1" xmlns="http://www.w3.org/2000/svg" xmlns:xlink="http://www.w3.org/1999/xlink">
    <!-- Generator: Sketch 3.8.3 (29802) - http://www.bohemiancoding.com/sketch -->
    <title>Group 2</title>
    <desc>Created with Sketch.</desc>
    <defs>
        <polygon id="path-1" points="0 89.5160484 99.903871 89.5160484 99.903871 0.544484761 1.09294574e-20 0.544484761"></polygon>
    </defs>
    <g id="Welcome" stroke="none" stroke-width="1" fill="none" fill-rule="evenodd">
        <g id="Upcoming-Events-Desktop-HD" transform="translate(-888.000000, -1002.000000)">
            <g id="Group-2" transform="translate(890.000000, 1004.000000)">
                <g id="cain" stroke="#4A4A4A" stroke-width="3" fill="#CDE5B3">
                    <circle id="Oval-52-Copy-2" cx="60" cy="60" r="60"></circle>
                </g>
                <g id="Group" transform="translate(10.000000, 15.000000)">
                    <g id="Group-5">
                        <mask id="mask-2" fill="white">
                            <use xlink:href="#path-1"></use>
                        </mask>
                        <g id="Clip-4"></g>
                        <path d="M99.903871,45.0305645 C99.903871,38.0837903 91.5716129,32.0676613 78.6320968,28.4684677 C79.1909677,26.3047581 79.6409677,24.1966935 79.961129,22.1692742 C81.595,11.8321774 79.8070968,4.58862903 74.9280645,1.7708871 C70.0482258,-1.04524194 62.8812903,1.02814516 54.745,7.61120968 C53.1482258,8.90314516 51.5466129,10.3483065 49.9522581,11.9152419 C48.3570968,10.3483065 46.7554839,8.90314516 45.1587097,7.61120968 C37.0232258,1.02814516 29.853871,-1.04685484 24.9756452,1.7708871 C20.0966129,4.58862903 18.3087097,11.8321774 19.9425806,22.1692742 C20.2627419,24.1966935 20.7127419,26.3047581 21.2716129,28.4684677 C8.33209677,32.0676613 -0.000161290322,38.0837903 -0.000161290322,45.0305645 C-0.000161290322,51.9773387 8.33209677,57.9934677 21.2716129,61.5926613 C20.7127419,63.756371 20.2627419,65.8644355 19.9425806,67.8918548 C18.3087097,78.2289516 20.0966129,85.4725 24.9756452,88.2902419 C26.3974194,89.1104032 28.0127419,89.5160484 29.7901613,89.5160484 C34.1127419,89.5160484 39.3925806,87.1160484 45.1587097,82.4499194 C46.7554839,81.1579839 48.3570968,79.7128226 49.9522581,78.1458871 C51.5466129,79.7128226 53.1482258,81.1579839 54.745,82.4499194 C60.511129,87.1160484 65.7901613,89.5160484 70.1143548,89.5160484 C71.8909677,89.5160484 73.5070968,89.1104032 74.9280645,88.2902419 C79.8070968,85.4725 81.595,78.2289516 79.961129,67.8918548 C79.6409677,65.8644355 79.1909677,63.756371 78.6320968,61.5926613 C91.5716129,57.9934677 99.903871,51.9773387 99.903871,45.0305645 M56.6167742,9.9241129 C61.8030645,5.72733871 66.5095161,3.52330645 70.0990323,3.52330645 C71.3595161,3.52330645 72.4829032,3.79508065 73.4401613,4.34830645 C77.1240323,6.4741129 78.4296774,12.8007258 77.0232258,21.7055645 C76.7167742,23.6410484 76.2877419,25.6547581 75.7530645,27.7233065 C71.3417742,26.6716935 66.47,25.8894355 61.2683871,25.4216935 C58.3079032,21.2192742 55.1966129,17.3845968 52.0337097,14.038629 C53.5595161,12.5394355 55.0909677,11.1579839 56.6167742,9.9241129 M64.7933871,53.5999194 C63.1458065,56.4531452 61.4143548,59.1950806 59.6240323,61.8007258 C56.5417742,62.038629 53.3151613,62.1684677 49.9522581,62.1684677 C46.5885484,62.1684677 43.3619355,62.038629 40.2796774,61.8007258 C38.4893548,59.1950806 36.7579032,56.4531452 35.1103226,53.5999194 C33.4643548,50.7491129 31.9570968,47.881371 30.5966129,45.0305645 C31.9570968,42.1797581 33.4643548,39.3120161 35.1103226,36.4612097 C36.7579032,33.6079839 38.4893548,30.8668548 40.2796774,28.2604032 C43.3619355,28.0233065 46.5885484,27.8926613 49.9522581,27.8926613 C53.3151613,27.8926613 56.5417742,28.0233065 59.6240323,28.2604032 C61.4143548,30.8668548 63.1458065,33.6079839 64.7933871,36.4612097 C66.4393548,39.3120161 67.9466129,42.1797581 69.3070968,45.0305645 C67.9466129,47.881371 66.4393548,50.7491129 64.7933871,53.5999194 M70.9054839,48.5305645 C72.5369355,52.2652419 73.8966129,55.9426613 74.9562903,59.4821774 C71.4619355,60.3112097 67.6095161,60.9765323 63.4522581,61.438629 C64.7998387,59.3902419 66.1095161,57.2692742 67.37,55.0870161 C68.6280645,52.9079839 69.8070968,50.7176613 70.9054839,48.5305645 M49.9522581,73.8966935 C47.4216129,71.2128226 44.9216129,68.2031452 42.5070968,64.9289516 C44.9320968,65.0692742 47.4159677,65.1434677 49.9522581,65.1434677 C52.4877419,65.1434677 54.9716129,65.0692742 57.3966129,64.9289516 C54.9820968,68.2031452 52.4829032,71.2128226 49.9522581,73.8966935 M36.4514516,61.438629 C32.2941935,60.9765323 28.4425806,60.3112097 24.9482258,59.4821774 C26.0070968,55.9426613 27.3667742,52.2652419 28.9982258,48.5305645 C30.0966129,50.7176613 31.2756452,52.9079839 32.5337097,55.0870161 C33.7941935,57.2692742 35.103871,59.3902419 36.4514516,61.438629 M28.9982258,41.5305645 C27.3667742,37.7958871 26.0070968,34.1184677 24.9482258,30.5789516 C28.4425806,29.7499194 32.2941935,29.0845968 36.4514516,28.6225 C35.103871,30.6708871 33.7941935,32.7918548 32.5337097,34.9741129 C31.2756452,37.1531452 30.0966129,39.3434677 28.9982258,41.5305645 M49.9522581,16.1644355 C52.4829032,18.8483065 54.9820968,21.8579839 57.3966129,25.1321774 C54.9716129,24.9918548 52.4877419,24.9176613 49.9522581,24.9176613 C47.4159677,24.9176613 44.9320968,24.9918548 42.5070968,25.1321774 C44.9216129,21.8579839 47.4216129,18.8483065 49.9522581,16.1644355 M67.37,34.9741129 C66.1095161,32.7918548 64.7998387,30.6708871 63.4522581,28.6225 C67.6095161,29.0845968 71.4619355,29.7499194 74.9562903,30.5789516 C73.8966129,34.1184677 72.5369355,37.7958871 70.9054839,41.5305645 C69.8070968,39.3434677 68.6280645,37.1531452 67.37,34.9741129 M22.8812903,21.7055645 C21.4740323,12.8007258 22.7796774,6.4741129 26.4635484,4.34830645 C27.4216129,3.79508065 28.5433871,3.52330645 29.8046774,3.52330645 C33.3933871,3.52330645 38.1006452,5.72814516 43.2869355,9.9241129 C44.8127419,11.1579839 46.3441935,12.5394355 47.8708065,14.038629 C44.7070968,17.3845968 41.5958065,21.2192742 38.6353226,25.4216935 C33.4345161,25.8894355 28.5619355,26.6716935 24.1506452,27.7233065 C23.6167742,25.6547581 23.1869355,23.6410484 22.8812903,21.7055645 M2.97564516,45.0305645 C2.97564516,39.9531452 10.0877419,34.6595968 22.0667742,31.3225 C23.3845161,35.7410484 25.1514516,40.3587903 27.3135484,45.0305645 C25.1514516,49.7023387 23.3845161,54.3200806 22.0667742,58.738629 C10.0877419,55.4015323 2.97564516,50.1079839 2.97564516,45.0305645 M43.2869355,80.1370161 C36.278871,85.8079839 30.1482258,87.8418548 26.4635484,85.7128226 C22.7796774,83.5870161 21.4740323,77.2604032 22.8812903,68.3555645 C23.1869355,66.4200806 23.6167742,64.406371 24.1506452,62.3378226 C28.5619355,63.3894355 33.4345161,64.1716935 38.6353226,64.6394355 C41.5958065,68.8418548 44.7070968,72.6765323 47.8708065,76.0225 C46.3441935,77.5216935 44.8127419,78.9031452 43.2869355,80.1370161 M77.0232258,68.3555645 C78.4296774,77.2604032 77.1240323,83.5870161 73.4401613,85.7128226 C69.7570968,87.8402419 63.6248387,85.8071774 56.6167742,80.1370161 C55.0909677,78.9031452 53.5595161,77.5216935 52.0337097,76.0225 C55.1966129,72.6765323 58.3079032,68.8418548 61.2683871,64.6394355 C66.47,64.1716935 71.3417742,63.3894355 75.7530645,62.3378226 C76.2877419,64.406371 76.7167742,66.4200806 77.0232258,68.3555645 M77.8369355,58.738629 C76.52,54.3200806 74.7522581,49.7023387 72.5909677,45.0305645 C74.7522581,40.3587903 76.52,35.7410484 77.8369355,31.3225 C89.8159677,34.6595968 96.928871,39.9531452 96.928871,45.0305645 C96.928871,50.1079839 89.8159677,55.4015323 77.8369355,58.738629" id="Fill-3" fill="#4A4A4A" mask="url(#mask-2)"></path>
                    </g>
                    <path d="M50.1516129,36 C45.0975806,36 41,40.0975806 41,45.1516129 C41,50.2056452 45.0975806,54.3032258 50.1516129,54.3032258 C55.2056452,54.3032258 59.3032258,50.2056452 59.3032258,45.1516129 C59.3032258,40.0975806 55.2056452,36 50.1516129,36" id="Fill-1" fill="#4A4A4A"></path>
                </g>
            </g>
        </g>
    </g>
</svg>