<?xml version="1.0" encoding="UTF-8" standalone="no"?>
<svg width="24px" height="19px" viewBox="0 0 24 19" version="1.1" xmlns="http://www.w3.org/2000/svg" xmlns:xlink="http://www.w3.org/1999/xlink">
    <!-- Generator: Sketch 3.8.3 (29802) - http://www.bohemiancoding.com/sketch -->
    <title>Twitter</title>
    <desc>Created with Sketch.</desc>
    <defs>
        <polygon id="path-1" points="23.9465343 0 0 0 0 18.92993 23.9465343 18.92993"></polygon>
    </defs>
    <g id="Symbols" stroke="none" stroke-width="1" fill="none" fill-rule="evenodd">
        <g id="Twitter">
            <g id="Page-1">
                <g>
                    <mask id="mask-2" fill="white">
                        <use xlink:href="#path-1"></use>
                    </mask>
                    <g id="Clip-2"></g>
                    <path d="M23.9465693,2.24089238 C23.0654891,2.62097758 22.1187153,2.87794619 21.1248175,2.99339462 C22.1392117,2.40200897 22.9182482,1.46538565 23.2849927,0.349497758 C22.3357664,0.897174888 21.2844088,1.29481166 20.1652555,1.50917937 C19.2691095,0.580394619 17.992292,0 16.5792701,0 C13.8658686,0 11.6661898,2.13975785 11.6661898,4.77879821 C11.6661898,5.15343049 11.709635,5.51809417 11.7933723,5.86784753 C7.71030657,5.66856054 4.09024818,3.76600448 1.66712409,0.874766816 C1.24423358,1.58057848 1.0019562,2.40149776 1.0019562,3.277287 C1.0019562,4.9352287 1.86928467,6.39797309 3.18753285,7.25501794 C2.38221898,7.23022422 1.62464234,7.01517489 0.962277372,6.65724215 C0.961927007,6.67717937 0.961839416,6.69720179 0.961839416,6.71730942 C0.961839416,9.03275336 2.65532847,10.964278 4.90283212,11.4033229 C4.49054015,11.5124664 4.05652555,11.5708296 3.60849635,11.5708296 C3.29185401,11.5708296 2.98414599,11.5409238 2.68414599,11.4851166 C3.30937226,13.3837534 5.12373723,14.7653857 7.27357664,14.8040673 C5.59208759,16.0857578 3.47378102,16.8496771 1.1719708,16.8496771 C0.775445255,16.8496771 0.384350365,16.8270987 0,16.7829641 C2.17427737,18.1388655 4.75664234,18.9299641 7.53109489,18.9299641 C16.5677956,18.9299641 21.5093431,11.6481076 21.5093431,5.33295067 C21.5093431,5.12573991 21.5045255,4.91963677 21.4951533,4.71472646 C22.4549781,4.04095067 23.2878832,3.19924215 23.9465693,2.24089238" id="Fill-1" fill="#FFFFFF" mask="url(#mask-2)"></path>
                </g>
            </g>
        </g>
    </g>
</svg>