<svg width="24" height="19" viewBox="0 0 24 19" xmlns="http://www.w3.org/2000/svg" xmlns:xlink="http://www.w3.org/1999/xlink"><title>Twitter</title><defs><path id="a" d="M23.947 0H0v18.93h23.947z"/></defs><g fill="none" fill-rule="evenodd"><mask id="b" fill="#fff"><use xlink:href="#a"/></mask><path d="M23.947 2.24a10 10 0 0 1-2.822.753A4.819 4.819 0 0 0 23.285.35c-.95.548-2 .946-3.12 1.16A4.971 4.971 0 0 0 16.58 0c-2.713 0-4.913 2.14-4.913 4.779 0 .374.044.74.127 1.089C7.71 5.668 4.09 3.766 1.667.875a4.658 4.658 0 0 0-.665 2.402c0 1.658.867 3.121 2.186 3.978a4.998 4.998 0 0 1-2.226-.598v.06c0 2.316 1.693 4.247 3.94 4.686a5.053 5.053 0 0 1-2.218.082c.625 1.899 2.44 3.28 4.59 3.32a10.035 10.035 0 0 1-6.102 2.045c-.397 0-.788-.023-1.172-.067a14.19 14.19 0 0 0 7.531 2.147c9.037 0 13.978-7.282 13.978-13.597 0-.207-.004-.413-.014-.618a9.839 9.839 0 0 0 2.452-2.474" fill="#FFF" mask="url(#b)"/></g></svg>