<svg width="23" height="17" viewBox="0 0 23 17" xmlns="http://www.w3.org/2000/svg" xmlns:xlink="http://www.w3.org/1999/xlink"><title>Youtube Copy</title><defs><path id="a" d="M23 8.267v8.089H0V.179h23z"/></defs><g transform="translate(0 .077)" fill="none" fill-rule="evenodd"><mask id="b" fill="#fff"><use xlink:href="#a"/></mask><path d="M9.126 11.25l-.001-6.462 6.214 3.242-6.213 3.22zM22.77 3.67s-.225-1.585-.915-2.284C20.982.47 20 .465 19.552.412 16.333.179 11.505.179 11.505.179h-.01s-4.828 0-8.047.233c-.45.053-1.43.058-2.304.973C.454 2.084.23 3.67.23 3.67S0 5.529 0 7.39v1.745c0 1.861.23 3.722.23 3.722s.224 1.585.914 2.284c.875.916 2.024.886 2.536.982 1.84.177 7.82.232 7.82.232s4.833-.008 8.052-.24c.45-.054 1.43-.058 2.304-.974.69-.699.915-2.284.915-2.284S23 10.998 23 9.136V7.391c0-1.861-.23-3.722-.23-3.722z" fill="#9B9B9B" mask="url(#b)"/></g></svg>