<svg version="1" xmlns="http://www.w3.org/2000/svg" width="346.667" height="346.667" viewBox="0 0 260.000000 260.000000"><path d="M67.9 16c-16.2 6.4-21.5 29.9-14.4 64 .7 3.6 1.3 6.6 1.2 6.6-.1.1-3.8 1.4-8.2 2.8-21.1 7-38.4 18.7-43.9 29.8-5.9 11.8-1.6 24.7 11.5 35.1 6.7 5.2 19.6 11.9 30.9 15.8 5.2 1.8 9.6 3.3 9.7 3.4.1 0-.7 4.6-1.9 10-2.9 13.8-2.9 33.4 0 42.3 2.5 7.7 5.2 11.9 10.2 15.5 13.6 9.7 34.4 3.5 59.3-17.7l7.7-6.7 7.8 6.7c35.8 30.6 63.9 29.5 70.7-2.8 1.7-7.8 1-25.5-1.4-37.3-1.1-5.5-1.9-10-1.8-10 .1-.1 3.8-1.4 8.2-2.9 12.7-4.4 25.5-10.8 32-16.1 7.5-6.1 8.8-7.7 12.1-14.3 2.3-4.6 2.6-6.1 2.2-11.7-.7-8.1-3.7-13.5-12-20.9-6.8-6.2-21.3-13.9-34.3-18.2-4.4-1.4-8.1-2.7-8.2-2.8-.1-.1.2-1.9.7-4.1 2.7-12.2 3.5-19.4 3.4-31-.5-44.2-33.5-49.8-74.4-12.6-2.5 2.2-4.7 4-5 4.1-.3 0-3.2-2.5-6.5-5.5s-9.6-7.9-14.1-11C92.6 15.1 79 11.7 67.9 16zm22 9c9 3.5 27.8 16.6 32.4 22.7 1.6 2 1.5 2.3-1.9 6-4.9 5.2-15.2 18.1-17.8 22-1.4 2.2-2.9 3.3-4.6 3.4-1.4 0-3.4.2-4.5.4s-4.5.7-7.7 1c-3.1.4-9.5 1.4-14.2 2.4-9.7 2-8.6 2.6-10.6-6.3-4.3-19.5-2.9-39.3 3.2-47.9C69 22 78.9 20.6 89.9 25zm102.6.5c6.1 4.6 9.5 15.8 9 29.7-.3 8.5-1.8 19.4-3.5 25.9l-1 3.6-8.6-1.8c-4.7-1-11.1-2-14.2-2.4-3.2-.3-6.6-.8-7.7-1-1.1-.2-3.1-.4-4.5-.4-1.7-.1-3.4-1.4-5.4-4.4-3.2-4.5-13.3-17.1-17.8-22.1l-2.8-3 2.8-2.9c3.3-3.5 14.1-12.2 19.8-15.9 4.7-3 14.6-7.3 18.4-8.1 5.2-1 12.3.3 15.5 2.8zm-56.3 36.7c3 3.5 7 8.4 9 10.9l3.7 4.6-18.9-.1h-18.8l3.6-4.6c6.9-8.6 14.4-17 15.2-17 .5 0 3.2 2.8 6.2 6.2zm17.1 24.2c2.4.3 12.9 16.6 22.1 34.1l4.7 8.9-2 4.7c-2.7 6.2-11.8 22.2-18.3 32l-5.2 7.9-7.1.1c-17.8.4-40.7-.1-42.1-.9-.9-.5-2.5-2.5-3.7-4.4-11.3-18.6-14.1-23.4-17.7-30.5l-4.2-8.1 5.6-10.9c4.6-8.9 17.4-30.5 19.3-32.3 1.3-1.3 40.7-1.8 48.6-.6zm-60.5 3.8c-4.3 6.5-10 16.3-13.4 22.8l-3.8 7.4-2.2-5.1c-1.3-2.8-3.6-9-5.3-13.7-2.5-7-2.8-8.8-1.7-9.2 2.5-1 21-4.2 24.5-4.3 3.2-.1 3.3 0 1.9 2.1zm86.2-.8c.8.1 3.8.6 6.5 1.1 2.8.4 6 1.1 7.2 1.6l2.3.8-3.1 8.7c-1.7 4.7-4 10.9-5.3 13.7l-2.2 5.1-3.8-7.4c-3.4-6.6-9.1-16.3-13.4-22.9l-1.6-2.4 5.9.7c3.3.4 6.7.8 7.5 1zM60.2 103.3c1.5 4.6 4.4 12.5 6.6 17.5l4 9.2-3.8 8.7c-2.1 4.9-5.1 12.7-6.6 17.5-1.6 4.8-3.4 8.8-4.1 8.8-2.5 0-19.2-6.4-26.8-10.3-9.3-4.9-18.7-13.7-20.5-19.2-3.7-11.2 5.1-22.7 24.7-32.1 7.6-3.7 19.7-8.2 22.3-8.3 1-.1 2.4 2.6 4.2 8.2zm147.9-7.2c3.6 1.1 3.6 1.1 14.4 5.5 17.4 7.1 29.5 18.7 29.5 28.5 0 11.2-15.1 23.7-38.3 31.8-4.9 1.7-9.4 3.1-10 3.1-.7 0-2.5-3.9-4.1-8.8-1.6-4.8-4.6-12.6-6.6-17.4l-3.8-8.7 3.8-8.8c2-4.8 5-12.7 6.6-17.5 1.6-4.9 3.4-8.8 4-8.8.6 0 2.6.5 4.5 1.1zM79 146.3c0 .4 3.4 6.4 7.5 13.3 4.2 7 7.4 12.8 7.3 12.9-.5.3-26.6-4.3-27.7-4.9-1-.7 1.3-8.3 6.4-20.9l2.8-6.8 1.8 2.8c1.1 1.5 1.9 3.1 1.9 3.6zm111.3 7.7c5.5 15.1 5.7 13.6-1.5 14.9-14.9 2.6-22.8 3.8-22.8 3.4 0-.2 2.6-4.7 5.9-10.1 3.2-5.3 7.3-12.6 9.1-16.1 3.9-7.4 3.5-7.8 9.3 7.9zM84.5 179.4c2.2.3 6.7.8 10.1 1.2 5.2.5 6.4 1.1 7.7 3.3 1.7 2.8 9.5 12.7 16.7 21 2.5 2.9 4.5 5.6 4.5 6 0 1.3-11.6 11-19.4 16.3-22.7 15.4-39.2 13.4-44.1-5.2-2.7-9.9-1.5-29.8 2.6-45.1.4-1.5 1.2-1.5 9.2.1 4.8 1 10.5 2.1 12.7 2.4zm114 2.2c.3 2.2.8 4.5 1.1 5.3 1.7 5.1 2.3 24 1.1 32.4-1.2 7.8-5.1 13.8-10.8 16.7-9.4 4.9-27.5-1.9-44.8-16.9-2.9-2.5-6.3-5.3-7.4-6.2-2.1-1.7-2-1.8 6.1-11.4 4.5-5.3 9.9-12 12-15 3.7-5.3 3.7-5.3 10.2-6 3.6-.4 7.2-.8 8-1 .8-.2 3.5-.6 6-.9 2.5-.4 7.2-1.3 10.5-2 6.8-1.4 7.1-1.2 8 5zm-54.3 6.7c-2.6 3.3-6.8 8.3-9.4 11.1l-4.8 5.1-4.7-5.1c-2.7-2.8-6.9-7.7-9.5-11l-4.6-6 18.8-.1h18.9l-4.7 6z"/><path d="M122.5 107.3c-11.4 4.5-17.6 14.5-16 26.2 2.5 19.2 26.3 27.2 40.4 13.4 7.6-7.5 9.1-20.4 3.5-29.3-6-9.4-18.3-14-27.9-10.3z"/></svg>