<?xml version="1.0" standalone="no"?>
<!DOCTYPE svg PUBLIC "-//W3C//DTD SVG 20010904//EN"
 "http://www.w3.org/TR/2001/REC-SVG-20010904/DTD/svg10.dtd">
<svg version="1.0" xmlns="http://www.w3.org/2000/svg"
 width="260.000000pt" height="260.000000pt" viewBox="0 0 260.000000 260.000000"
 preserveAspectRatio="xMidYMid meet">
<metadata>
Created by potrace 1.11, written by Peter Selinger 2001-2013
</metadata>
<g transform="translate(0.000000,260.000000) scale(0.100000,-0.100000)"
fill="#000000" stroke="none">
<path d="M679 2440 c-162 -64 -215 -299 -144 -640 7 -36 13 -66 12 -66 -1 -1
-38 -14 -82 -28 -211 -70 -384 -187 -439 -298 -59 -118 -16 -247 115 -351 67
-52 196 -119 309 -158 52 -18 96 -33 97 -34 1 0 -7 -46 -19 -100 -29 -138 -29
-334 0 -423 25 -77 52 -119 102 -155 136 -97 344 -35 593 177 l77 67 78 -67
c358 -306 639 -295 707 28 17 78 10 255 -14 373 -11 55 -19 100 -18 100 1 1
38 14 82 29 127 44 255 108 320 161 75 61 88 77 121 143 23 46 26 61 22 117
-7 81 -37 135 -120 209 -68 62 -213 139 -343 182 -44 14 -81 27 -82 28 -1 1 2
19 7 41 27 122 35 194 34 310 -5 442 -335 498 -744 126 -25 -22 -47 -40 -50
-41 -3 0 -32 25 -65 55 -33 30 -96 79 -141 110 -168 114 -304 148 -415 105z
m220 -90 c90 -35 278 -166 324 -227 16 -20 15 -23 -19 -60 -49 -52 -152 -181
-178 -220 -14 -22 -29 -33 -46 -34 -14 0 -34 -2 -45 -4 -11 -2 -45 -7 -77 -10
-31 -4 -95 -14 -142 -24 -97 -20 -86 -26 -106 63 -43 195 -29 393 32 479 48
67 147 81 257 37z m1026 -5 c61 -46 95 -158 90 -297 -3 -85 -18 -194 -35 -259
l-10 -36 -86 18 c-47 10 -111 20 -142 24 -32 3 -66 8 -77 10 -11 2 -31 4 -45
4 -17 1 -34 14 -54 44 -32 45 -133 171 -178 221 l-28 30 28 29 c33 35 141 122
198 159 47 30 146 73 184 81 52 10 123 -3 155 -28z m-563 -367 c30 -35 70 -84
90 -109 l37 -46 -189 1 -188 0 36 46 c69 86 144 170 152 170 5 0 32 -28 62
-62z m171 -242 c24 -3 129 -166 221 -341 l47 -89 -20 -47 c-27 -62 -118 -222
-183 -320 l-52 -79 -71 -1 c-178 -4 -407 1 -421 9 -9 5 -25 25 -37 44 -113
186 -141 234 -177 305 l-42 81 56 109 c46 89 174 305 193 323 13 13 407 18
486 6z m-605 -38 c-43 -65 -100 -163 -134 -228 l-38 -74 -22 51 c-13 28 -36
90 -53 137 -25 70 -28 88 -17 92 25 10 210 42 245 43 32 1 33 0 19 -21z m862
8 c8 -1 38 -6 65 -11 28 -4 60 -11 72 -16 l23 -8 -31 -87 c-17 -47 -40 -109
-53 -137 l-22 -51 -38 74 c-34 66 -91 163 -134 229 l-16 24 59 -7 c33 -4 67
-8 75 -10z m-1188 -139 c15 -46 44 -125 66 -175 l40 -92 -38 -87 c-21 -49 -51
-127 -66 -175 -16 -48 -34 -88 -41 -88 -25 0 -192 64 -268 103 -93 49 -187
137 -205 192 -37 112 51 227 247 321 76 37 197 82 223 83 10 1 24 -26 42 -82z
m1479 72 c36 -11 36 -11 144 -55 174 -71 295 -187 295 -285 0 -112 -151 -237
-383 -318 -49 -17 -94 -31 -100 -31 -7 0 -25 39 -41 88 -16 48 -46 126 -66
174 l-38 87 38 88 c20 48 50 127 66 175 16 49 34 88 40 88 6 0 26 -5 45 -11z
m-1291 -502 c0 -4 34 -64 75 -133 42 -70 74 -128 73 -129 -5 -3 -266 43 -277
49 -10 7 13 83 64 209 l28 68 18 -28 c11 -15 19 -31 19 -36z m1113 -77 c55
-151 57 -136 -15 -149 -149 -26 -228 -38 -228 -34 0 2 26 47 59 101 32 53 73
126 91 161 39 74 35 78 93 -79z m-1058 -254 c22 -3 67 -8 101 -12 52 -5 64
-11 77 -33 17 -28 95 -127 167 -210 25 -29 45 -56 45 -60 0 -13 -116 -110
-194 -163 -227 -154 -392 -134 -441 52 -27 99 -15 298 26 451 4 15 12 15 92
-1 48 -10 105 -21 127 -24z m1140 -22 c3 -22 8 -45 11 -53 17 -51 23 -240 11
-324 -12 -78 -51 -138 -108 -167 -94 -49 -275 19 -448 169 -29 25 -63 53 -74
62 -21 17 -20 18 61 114 45 53 99 120 120 150 37 53 37 53 102 60 36 4 72 8
80 10 8 2 35 6 60 9 25 4 72 13 105 20 68 14 71 12 80 -50z m-543 -67 c-26
-33 -68 -83 -94 -111 l-48 -51 -47 51 c-27 28 -69 77 -95 110 l-46 60 188 1
189 0 -47 -60z"/>
<path d="M1225 1527 c-114 -45 -176 -145 -160 -262 25 -192 263 -272 404 -134
76 75 91 204 35 293 -60 94 -183 140 -279 103z"/>
</g>
</svg>
